<svg width="60" height="60" viewBox="0 0 60 60" fill="none" xmlns="http://www.w3.org/2000/svg">
<mask id="mask0_1497_27541" style="mask-type:alpha" maskUnits="userSpaceOnUse" x="8" y="8" width="44" height="44">
<circle cx="30" cy="30" r="22" fill="#D9D9D9"/>
</mask>
<g mask="url(#mask0_1497_27541)">
<rect x="7" y="36" width="49" height="17" fill="#FFD6D6"/>
</g>
<path d="M41.9977 34.1948C41.3323 35.3004 40.5429 36.3581 39.5402 37.1424C38.7211 37.778 37.7964 38.2121 36.8258 38.5119C35.8369 38.8213 34.8089 38.9652 33.7764 39.0084L30.0019 39.1667L26.2274 39.0084C25.1971 38.9652 24.1692 38.8213 23.178 38.5119C22.2074 38.2145 21.2781 37.7804 20.4635 37.1424C19.4585 36.3581 18.6715 35.3004 18.0061 34.1948C16.1728 31.1392 14.881 27.2418 15.4821 23.6178C15.9663 20.7253 18.0084 16.8662 21.285 17.1852C21.6613 17.2164 22.0146 17.3291 22.0146 17.3291C22.3083 17.4203 22.5745 17.557 22.8338 17.7033C23.8227 18.2645 25.0113 18.8521 26.388 19.387C26.4018 19.3918 26.4132 19.3966 26.427 19.4014C28.7307 20.2744 31.2662 20.2744 33.5722 19.4014C33.5859 19.3966 33.5974 19.3918 33.6112 19.387C34.9879 18.8545 36.1765 18.2645 37.1654 17.7033C37.4247 17.557 37.6908 17.4203 37.9845 17.3291C37.9845 17.3291 38.3379 17.2188 38.7142 17.1852C41.9908 16.8662 44.0352 20.7253 44.5171 23.6178C45.1182 27.2418 43.8287 31.1392 41.9931 34.1948H41.9977Z" fill="white" stroke="#3E3D40" stroke-width="1.5"/>
<path d="M20.5 17.5C20.5 17.5 23.2075 20.5 30 20.5C36.7925 20.5 39.5 17.5 39.5 17.5" stroke="#FF0202" stroke-width="2"/>
<path d="M18.5 19C18.5 19 22.6452 23 30 23C37.3548 23 41.5 19 41.5 19" stroke="#FECF02" stroke-width="3"/>
<path d="M16.5 21C16.5 21 21.8046 24.5 30 24.5C38.1954 24.5 43 21 43 21" stroke="#4EBDF9" stroke-width="3"/>
<path d="M15.5 23C15.5 23 23.2958 26 30 26C36.7042 26 44 23 44 23" stroke="#4EC410" stroke-width="2"/>
<path d="M41.9977 34.1947C41.3323 35.3004 40.5429 36.3581 39.5402 37.1424C38.7211 37.7779 37.7964 38.2121 36.8258 38.5119C35.8369 38.8213 34.8089 38.9652 33.7764 39.0083L30.0019 39.1666L26.2274 39.0083C25.1971 38.9652 24.1692 38.8213 23.178 38.5119C22.2074 38.2145 21.2781 37.7803 20.4635 37.1424C19.4585 36.3581 18.6715 35.3004 18.0061 34.1947C16.1728 31.1391 14.881 27.2417 15.4821 23.6177C15.9663 20.7252 18.0084 16.8662 21.285 17.1852C21.6613 17.2164 22.0146 17.3291 22.0146 17.3291C22.3083 17.4202 22.5745 17.5569 22.8338 17.7032C23.8227 18.2645 25.0113 18.8521 26.388 19.3869C26.4018 19.3917 26.4132 19.3965 26.427 19.4013C28.7307 20.2743 31.2662 20.2743 33.5722 19.4013C33.5859 19.3965 33.5974 19.3917 33.6112 19.3869C34.9879 18.8545 36.1765 18.2645 37.1654 17.7032C37.4247 17.5569 37.6908 17.4202 37.9845 17.3291C37.9845 17.3291 38.3379 17.2188 38.7142 17.1852C41.9908 16.8662 44.0352 20.7252 44.5171 23.6177C45.1182 27.2417 43.8287 31.1391 41.9931 34.1947H41.9977Z" stroke="#3E3D40" stroke-width="1.5"/>
</svg>
