<svg width="60" height="60" viewBox="0 0 60 60" fill="none" xmlns="http://www.w3.org/2000/svg">
<mask id="mask0_1497_27544" style="mask-type:alpha" maskUnits="userSpaceOnUse" x="8" y="8" width="44" height="44">
<circle cx="30" cy="30" r="22" fill="#D9D9D9"/>
</mask>
<g mask="url(#mask0_1497_27544)">
<rect x="7" y="36" width="49" height="17" fill="#FFD6D6"/>
</g>
<path d="M29.4561 21.6112C29.7364 21.9053 30.0572 22.1574 30.4085 22.3635L27.4824 42.6923L28.8551 42.4742C29.1576 42.3761 29.4318 42.212 29.6592 41.9919C29.8866 41.7718 30.0592 41.5057 30.1668 41.2095L35.0138 26.7539C34.7296 26.8019 34.4372 26.7799 34.163 26.6918C33.8889 26.6038 33.6391 26.4517 33.4381 26.2476C33.2371 26.0435 33.0868 25.7954 33.0036 25.5232C32.9203 25.2511 32.9041 24.9629 32.9569 24.6828L33.2838 22.9278C34.3092 22.8058 35.2616 22.3455 35.9885 21.6212C36.7155 20.8968 37.1723 19.9503 37.2861 18.9357C37.3998 17.9212 37.1622 16.9007 36.6119 16.0362C36.0616 15.1717 35.2331 14.5174 34.2585 14.1792C33.2838 13.841 32.2238 13.837 31.2471 14.1712C30.2704 14.5034 29.4379 15.1537 28.8835 16.0142C28.3292 16.8746 28.0855 17.8952 28.1911 18.9097C28.2987 19.9243 28.7495 20.8728 29.4724 21.6011L29.4561 21.6091V21.6112Z" fill="white" stroke="#3D3935" stroke-width="1.5" stroke-linejoin="round"/>
<path d="M33.0431 16.1607C31.91 16.1607 30.9922 17.0672 30.9922 18.1858C30.9922 19.3044 31.91 20.2108 33.0431 20.2108C34.1761 20.2108 35.094 19.3044 35.094 18.1858C35.094 17.0672 34.1761 16.1607 33.0431 16.1607Z" fill="white" stroke="#3D3935" stroke-width="1.5" stroke-linejoin="round"/>
<path d="M38.519 29.8565C39.3069 30.5168 40.2978 30.895 41.3334 30.9291C42.367 30.9651 43.3843 30.6549 44.2168 30.0486C45.0494 29.4443 45.6484 28.5798 45.9185 27.5973C46.1885 26.6148 46.1114 25.5722 45.7012 24.6377C45.291 23.7032 44.5722 22.9328 43.6584 22.4526C42.7467 21.9723 41.6949 21.8082 40.6775 21.9903C39.6582 22.1724 38.7322 22.6867 38.05 23.4511C37.3657 24.2155 36.9656 25.184 36.9149 26.2006L35.1625 26.6448C34.8823 26.7168 34.5899 26.7208 34.3076 26.6568C34.0254 26.5928 33.7634 26.4627 33.5441 26.2786C33.3248 26.0945 33.1522 25.8604 33.0446 25.5962C32.937 25.3321 32.8943 25.0479 32.9228 24.7638L18.6234 30.5308C18.331 30.6549 18.0731 30.845 17.866 31.0831C17.6589 31.3213 17.5127 31.6034 17.4335 31.9076L17.3076 33.2723L37.6845 28.99C37.918 29.3222 38.1962 29.6184 38.5129 29.8745L38.519 29.8585V29.8565Z" fill="white" stroke="#3D3935" stroke-width="1.5" stroke-linejoin="round"/>
<path d="M41.5548 24.3929C40.4217 24.3929 39.5039 25.2393 39.5039 26.2819C39.5039 27.3244 40.4217 28.1709 41.5548 28.1709C42.6879 28.1709 43.6057 27.3244 43.6057 26.2819C43.6057 25.2393 42.6879 24.3929 41.5548 24.3929Z" fill="white" stroke="#3D3935" stroke-width="1.5" stroke-linejoin="round"/>
<path d="M32.3055 26.9571C31.9685 26.9571 31.6943 27.2272 31.6943 27.5594C31.6943 27.8916 31.9685 28.1617 32.3055 28.1617C32.6426 28.1617 32.9167 27.8916 32.9167 27.5594C32.9167 27.2272 32.6426 26.9571 32.3055 26.9571Z" fill="#3D3935"/>
</svg>
