<svg width="60" height="60" viewBox="0 0 60 60" fill="none" xmlns="http://www.w3.org/2000/svg">
<path d="M41.6647 34.1947C40.9992 35.3004 40.2099 36.3581 39.2072 37.1424C38.3881 37.7779 37.4634 38.2121 36.4928 38.5119C35.5039 38.8213 34.4759 38.9652 33.4434 39.0083L29.6689 39.1666L25.8944 39.0083C24.8641 38.9652 23.8362 38.8213 22.845 38.5119C21.8744 38.2145 20.9451 37.7803 20.1305 37.1424C19.1255 36.3581 18.3385 35.3004 17.6731 34.1947C15.8398 31.1391 14.548 27.2417 15.1491 23.6177C15.6333 20.7252 17.6754 16.8662 20.952 17.1852C21.3283 17.2164 21.6816 17.3291 21.6816 17.3291C21.9753 17.4202 22.2415 17.5569 22.5008 17.7032C23.4897 18.2645 24.6783 18.8521 26.055 19.3869C26.0688 19.3917 26.0802 19.3965 26.094 19.4013C28.3977 20.2743 30.9332 20.2743 33.2392 19.4013C33.2529 19.3965 33.2644 19.3917 33.2782 19.3869C34.6549 18.8545 35.8434 18.2645 36.8324 17.7032C37.0917 17.5569 37.3578 17.4202 37.6515 17.3291C37.6515 17.3291 38.0049 17.2188 38.3812 17.1852C41.6578 16.8662 43.7022 20.7252 44.1841 23.6177C44.7852 27.2417 43.4957 31.1391 41.6601 34.1947H41.6647Z" stroke="#D1D1D1" stroke-width="1.5"/>
<mask id="mask0_1497_27543" style="mask-type:alpha" maskUnits="userSpaceOnUse" x="8" y="8" width="44" height="44">
<circle cx="30" cy="30" r="22" fill="#D9D9D9"/>
</mask>
<g mask="url(#mask0_1497_27543)">
<rect x="7" y="36" width="49" height="17" fill="#FFD6D6"/>
</g>
<path d="M39 36.4571L37.6211 24.3864C37.5404 22.8993 36.6187 21.8011 35.7 22.0303C31.8701 22.9874 27.9316 22.9891 24 22.0304C23.078 21.8061 22.3192 22.896 22.2626 24.3913L21 36.6731C25.8 39.8078 33.8509 39.8133 39 36.4587V36.4571Z" fill="white" stroke="#3E3D40" stroke-width="1.5" stroke-miterlimit="10"/>
<mask id="mask1_1497_27543" style="mask-type:alpha" maskUnits="userSpaceOnUse" x="20" y="21" width="20" height="20">
<path d="M39 37.3075L37.6211 24.5267C37.5404 22.9522 36.6187 21.7894 35.7 22.0321C31.8701 23.0454 27.9316 23.0472 24 22.0322C23.078 21.7947 22.3192 22.9487 22.2626 24.532L21 37.5362C25.8 40.8553 33.8509 40.8611 39 37.3093V37.3075Z" fill="#D9D9D9" stroke="#3E3D40" stroke-width="1.5" stroke-miterlimit="10"/>
</mask>
<g mask="url(#mask1_1497_27543)">
<ellipse cx="30.0004" cy="21.9999" rx="8.1" ry="8.52632" fill="#00ADEF"/>
<ellipse cx="29.9998" cy="21.0526" rx="7.2" ry="7.57895" fill="#FFCC02"/>
<ellipse cx="29.9996" cy="21.0526" rx="5.4" ry="5.68421" fill="#FF3355"/>
</g>
<path d="M39 36.4571L37.6211 24.3863C37.5404 22.8993 36.6187 21.801 35.7 22.0303C31.8701 22.9874 27.9316 22.989 24 22.0304C23.078 21.8061 22.3192 22.896 22.2626 24.3913L21 36.6731C21 36.6731 24.3 39 30 39C35.7 39 39 36.6731 39 36.6731V36.4571Z" stroke="#3E3D40" stroke-width="1.5" stroke-miterlimit="10"/>
</svg>
