<svg width="60" height="60" viewBox="0 0 60 60" fill="none" xmlns="http://www.w3.org/2000/svg">
<mask id="mask0_1497_27542" style="mask-type:alpha" maskUnits="userSpaceOnUse" x="8" y="8" width="44" height="44">
<circle cx="30" cy="30" r="22" fill="#D9D9D9"/>
</mask>
<g mask="url(#mask0_1497_27542)">
<rect x="7" y="36" width="49" height="17" fill="#FFD6D6"/>
</g>
<path d="M40 37.0083L38.4679 22.8075C38.3782 21.058 37.3541 19.766 36.3333 20.0357C32.0779 21.1616 27.7018 21.1636 23.3333 20.0357C22.3089 19.7718 21.4657 21.0541 21.4029 22.8133L20 37.2624C25.3333 40.9503 34.2788 40.9568 40 37.0103V37.0083Z" fill="white" stroke="#3E3D40" stroke-width="1.5" stroke-miterlimit="10"/>
<path d="M41.8281 14.1667C42.3192 14.1667 42.7933 14.3369 43.1709 14.6442L43.3271 14.7839L43.3291 14.7858L44.5898 16.0475L44.5918 16.0495C44.9879 16.4486 45.208 16.9877 45.208 17.5475C45.2079 18.1092 44.9857 18.6468 44.5908 19.0446L42.3799 21.2555L42.3789 21.2546L42.2637 21.3708L32.127 31.5065L32.1201 31.5143L32.1123 31.5212C31.403 32.1913 30.6035 32.7587 29.7373 33.2067L29.7275 33.2116L29.7188 33.2165L26.0195 34.9987H26.0176C25.7993 35.1033 25.5581 35.1866 25.3125 35.2038C25.067 35.2209 24.7296 35.1741 24.4648 34.9098C24.1997 34.645 24.1523 34.3068 24.1699 34.0602C24.1876 33.8141 24.2715 33.5725 24.377 33.3542L26.1582 29.6559L26.1631 29.6471L26.168 29.6374C26.615 28.7713 27.1821 27.9711 27.8525 27.2624L27.8594 27.2546L27.8672 27.2467L38.0029 17.11L38.5332 16.5798L38.6494 16.4645L40.3301 14.7839C40.7282 14.3887 41.2671 14.1668 41.8281 14.1667Z" fill="#399927" stroke="white" stroke-width="1.5"/>
<path d="M29.8326 43C28.6903 43 27.674 42.2144 27.282 41.0788C24.6271 40.685 21.984 39.7442 19.4098 38.2784C18.9332 38.6881 18.3403 38.9149 17.7239 38.9149C16.2211 38.9149 15 37.5883 15 35.9574C15 34.3266 16.2211 33 17.7239 33C19.2266 33 20.4458 34.3266 20.4458 35.9574C20.4458 36.0131 20.4458 36.0688 20.4418 36.1265C22.7403 37.4531 25.0801 38.3162 27.4081 38.6961C27.865 37.7156 28.7868 37.0871 29.8326 37.0871C30.8784 37.0871 31.8612 37.7673 32.3024 38.7936C34.6875 38.5032 37.1376 37.7216 39.5936 36.4646C39.568 36.2975 39.5542 36.1285 39.5542 35.9574C39.5542 34.3266 40.7753 33 42.2761 33C43.7769 33 45 34.3266 45 35.9574C45 37.5883 43.7789 38.9149 42.2761 38.9149C41.7778 38.9149 41.2894 38.7657 40.8659 38.4873C38.018 39.969 35.1582 40.8719 32.3497 41.1762C31.9341 42.2681 30.9513 43 29.8326 43Z" fill="#239B28"/>
<path d="M42.6001 34.1727C43.8089 34.1727 44.7892 35.2125 44.7892 36.4927C44.7892 37.7729 43.8089 38.8127 42.6001 38.8127C42.0725 38.8127 41.5914 38.6153 41.2134 38.287C38.0985 39.8877 35.0079 40.8181 31.9516 41.076C31.7131 42.0826 30.854 42.8273 29.8292 42.8273C28.8044 42.8273 27.9028 42.0435 27.6906 40.9979C24.7657 40.6402 21.8752 39.6551 19.0311 38.0407C18.6309 38.5137 18.0488 38.8127 17.4019 38.8127C16.1932 38.8127 15.2128 37.7729 15.2128 36.4927C15.2128 35.2125 16.1932 34.1727 17.4019 34.1727C18.6107 34.1727 19.589 35.2125 19.589 36.4927C19.589 36.6569 19.5729 36.8172 19.5425 36.9716C22.2431 38.5176 24.986 39.4753 27.7371 39.833C28.01 38.8811 28.8428 38.1892 29.8292 38.1892C30.8156 38.1892 31.6969 38.9202 31.9455 39.9131C34.7674 39.6551 37.6478 38.7795 40.5504 37.2999C40.4615 37.0498 40.413 36.7761 40.413 36.4927C40.413 35.2125 41.3933 34.1727 42.6001 34.1727ZM42.6001 33C40.7263 33 39.2002 34.5675 39.2002 36.4927C39.2002 36.5435 39.2002 36.5943 39.2042 36.6452C37.0131 37.6771 34.8361 38.3475 32.7076 38.6446C32.0971 37.6517 31.0218 37.0165 29.8292 37.0165C28.6366 37.0165 27.6502 37.6068 27.0256 38.5352C24.9456 38.1619 22.8576 37.4172 20.7978 36.3149C20.7068 34.4717 19.2191 33 17.4019 33C15.5847 33 14 34.5675 14 36.4927C14 38.4179 15.5261 39.9854 17.4019 39.9854C18.0366 39.9854 18.6511 39.8037 19.1807 39.4694C21.667 40.7829 24.2179 41.6487 26.781 42.0553C27.345 43.2201 28.5194 44 29.8292 44C31.139 44 32.2447 43.2768 32.8248 42.1667C35.5719 41.8383 38.3613 40.992 41.1346 39.6453C41.5894 39.8682 42.0887 39.9854 42.5981 39.9854C44.4739 39.9854 46 38.4179 46 36.4927C46 34.5675 44.4739 33 42.5981 33H42.6001Z" fill="white"/>
</svg>
