<svg width="60" height="60" viewBox="0 0 60 60" fill="none" xmlns="http://www.w3.org/2000/svg">
<mask id="mask0_1497_27540" style="mask-type:alpha" maskUnits="userSpaceOnUse" x="10" y="10" width="40" height="40">
<circle cx="30" cy="30" r="20" fill="#D9D9D9"/>
</mask>
<g mask="url(#mask0_1497_27540)">
<path d="M52.4695 35.9489C52.4695 35.9489 47.2975 52.5568 29.9999 52.5568C12.7023 52.5568 7.53027 35.9489 7.53027 35.9489" fill="#FFD6D6"/>
<path d="M39.1839 34.1841C38.6621 35.0385 38.0432 35.8558 37.257 36.4618C36.6147 36.953 35.8897 37.2884 35.1287 37.5201C34.3533 37.7592 33.5473 37.8704 32.7376 37.9037L29.7781 38.026L26.8186 37.9037C26.0107 37.8704 25.2047 37.7592 24.4275 37.5201C23.6665 37.2903 22.9379 36.9548 22.2992 36.4618C21.5112 35.8558 20.8941 35.0385 20.3723 34.1841C18.9348 31.823 17.9219 28.8113 18.3933 26.011C18.7729 23.7759 20.3741 20.7939 22.9433 21.0404C23.2383 21.0645 23.5154 21.1516 23.5154 21.1516C23.7457 21.222 23.9544 21.3276 24.1577 21.4407C24.9331 21.8744 25.865 22.3284 26.9445 22.7417C26.9553 22.7454 26.9643 22.7491 26.9751 22.7528C28.7814 23.4274 30.7694 23.4274 32.5775 22.7528C32.5883 22.7491 32.5973 22.7454 32.6081 22.7417C33.6876 22.3303 34.6195 21.8744 35.3949 21.4407C35.5982 21.3276 35.8069 21.222 36.0372 21.1516C36.0372 21.1516 36.3143 21.0663 36.6094 21.0404C39.1785 20.7939 40.7815 23.7759 41.1593 26.011C41.6307 28.8113 40.6196 31.823 39.1803 34.1841H39.1839Z" fill="white" stroke="#3E3D40" stroke-width="1.5"/>
<path d="M50.9717 43.4783L52.4696 35.8547L35.8616 35.9435C32.6644 35.9434 30 38.297 30 38.297V54.4166C40.0966 54.4166 50.9717 50.212 50.9717 43.4783Z" fill="#939598"/>
<path d="M30 23.2593C30.9062 23.2593 32.0918 23.0924 32.9533 22.7556C32.9639 22.7499 32.9717 22.7471 32.9849 22.7415C34.0145 22.3311 34.9076 21.8755 35.651 21.4397C35.8454 21.3265 36.045 21.2218 36.2657 21.151C36.2657 21.151 36.531 21.0661 36.812 21.0406C39.2706 20.7916 40.802 23.7772 41.1645 26.01C41.6163 28.8117 40.647 31.8228 39.2733 34.183C38.7742 35.0376 38.1832 35.8555 37.4293 36.4611C36.8146 36.9535 36.1212 37.2874 35.3936 37.5195C34.6528 37.7572 33.8806 37.8704 33.1057 37.9043L30 38" fill="#939598"/>
<path d="M30 23.2593C30.9062 23.2593 32.0918 23.0924 32.9533 22.7556C32.9639 22.7499 32.9717 22.7471 32.9849 22.7415C34.0145 22.3311 34.9076 21.8755 35.651 21.4397C35.8454 21.3265 36.045 21.2218 36.2657 21.151C36.2657 21.151 36.531 21.0661 36.812 21.0406C39.2706 20.7916 40.802 23.7772 41.1645 26.01C41.6163 28.8117 40.647 31.8228 39.2733 34.183C38.7742 35.0376 38.1832 35.8555 37.4293 36.4611C36.8146 36.9535 36.1212 37.2874 35.3936 37.5195C34.6528 37.7572 33.8806 37.8704 33.1057 37.9043L30 38" stroke="#3E3D40" stroke-width="1.5" stroke-miterlimit="10" stroke-linecap="round"/>
<path d="M35.8616 22.5986C33.7301 24.1973 32.6643 24.1973 30 25.263C35.3288 24.7301 35.3288 26.3288 36.7246 27.9412C38.526 23.6644 37.4602 23.6644 35.8616 22.5986Z" fill="#D9D9D9"/>
</g>
<path d="M45 45.5L48.3913 48.8322" stroke="#0067AC" stroke-width="4" stroke-linecap="round" stroke-linejoin="bevel"/>
<circle cx="30" cy="30" r="20.25" stroke="#0067AC" stroke-width="1.5"/>
</svg>
