<svg width="60" height="60" viewBox="0 0 60 60" fill="none" xmlns="http://www.w3.org/2000/svg">
<mask id="mask0_1497_27539" style="mask-type:alpha" maskUnits="userSpaceOnUse" x="8" y="8" width="44" height="44">
<circle cx="30" cy="30" r="22" fill="#D9D9D9"/>
</mask>
<g mask="url(#mask0_1497_27539)">
<path d="M56.5833 28.2376C56.5833 28.2376 51.0338 50.458 29.7605 51.9394C8.48724 53.4208 5.25 27.25 5.25 27.25" fill="#FFD6D6"/>
<path d="M52.3722 36.655L53.8333 27.25H39.3218C39.3218 27.25 38.7238 30.66 37.7917 34.125C36.8595 37.59 30 36.655 30 36.655V52C43.3867 52 52.3722 46.711 52.3722 36.655Z" fill="#D4D191"/>
<path d="M39.8128 33.0987C39.2684 34.0033 38.6263 34.8687 37.8059 35.5104C37.1357 36.0304 36.3791 36.3856 35.585 36.6309C34.7759 36.884 33.9348 37.0018 33.09 37.0371L30.0018 37.1666L26.9136 37.0371C26.0707 37.0018 25.2296 36.884 24.4186 36.6309C23.6245 36.3876 22.8642 36.0324 22.1977 35.5104C21.3754 34.8687 20.7315 34.0033 20.1871 33.0987C18.6871 30.5987 17.6301 27.4099 18.122 24.4448C18.5181 22.0782 20.189 18.9208 22.8698 19.1818C23.1777 19.2073 23.4668 19.2996 23.4668 19.2996C23.7071 19.3741 23.9249 19.486 24.137 19.6057C24.9461 20.0649 25.9186 20.5456 27.045 20.9832C27.0563 20.9872 27.0657 20.9911 27.0769 20.995C28.9618 21.7093 31.0362 21.7093 32.923 20.995C32.9342 20.9911 32.9436 20.9872 32.9549 20.9832C34.0813 20.5476 35.0537 20.0649 35.8629 19.6057C36.075 19.486 36.2928 19.3741 36.5331 19.2996C36.5331 19.2996 36.8222 19.2093 37.1301 19.1818C39.8109 18.9208 41.4836 22.0782 41.8779 24.4448C42.3697 27.4099 41.3147 30.5987 39.8128 33.0987Z" fill="white" stroke="#3E3D40" stroke-width="1.5"/>
<path d="M14.9542 32.8589C14.4098 33.7635 13.6263 34.8687 12.8059 35.5104C12.1357 36.0304 11.3791 36.3856 10.585 36.6309C9.77588 36.884 8.93484 37.0018 8.09003 37.0371L5.00181 37.1666L1.91359 37.0371C1.07066 37.0018 0.229612 36.884 -0.581398 36.6309C-1.37551 36.3876 -2.13583 36.0324 -2.80229 35.5104C-3.62456 34.8687 -4.26849 34.0033 -4.81292 33.0987C-6.31292 30.5987 -7.36986 27.4099 -6.87799 24.4448C-6.48188 22.0782 -4.81104 18.9208 -2.1302 19.1818C-1.82232 19.2073 -1.53321 19.2996 -1.53321 19.2996C-1.29291 19.3741 -1.07514 19.486 -0.862998 19.6057C-0.053865 20.0649 0.918596 20.5456 2.045 20.9832C2.05626 20.9872 2.06565 20.9911 2.07692 20.995C3.96176 21.7093 6.03622 21.7093 7.92295 20.995C7.93421 20.9911 7.9436 20.9872 7.95487 20.9832C9.08127 20.5476 10.0537 20.0649 10.8629 19.6057C11.075 19.486 11.2928 19.3741 11.5331 19.2996C11.5331 19.2996 11.8222 19.2093 12.1301 19.1818C14.8109 18.9208 16.4836 22.0782 16.8779 24.4448C17.3697 27.4099 16.3147 30.5987 14.8128 33.0987L14.9542 32.8589Z" fill="white" stroke="#3E3D40" stroke-width="1.5"/>
<path d="M64.8165 33.0987C64.2721 34.0033 63.6263 34.8687 62.8059 35.5104C62.1357 36.0304 61.3791 36.3856 60.585 36.6309C59.7759 36.884 58.9348 37.0018 58.09 37.0371L55.0018 37.1666L51.9136 37.0371C51.0707 37.0018 50.2296 36.884 49.4186 36.6309C48.6245 36.3876 47.8642 36.0324 47.1977 35.5104C46.3754 34.8687 45.7315 34.0033 45.1871 33.0987C43.6871 30.5987 42.6301 27.4099 43.122 24.4448C43.5181 22.0782 45.189 18.9208 47.8698 19.1818C48.1777 19.2073 48.4668 19.2996 48.4668 19.2996C48.7071 19.3741 48.9249 19.486 49.137 19.6057C49.9461 20.0649 50.9186 20.5456 52.045 20.9832C52.0563 20.9872 52.0657 20.9911 52.0769 20.995C53.9618 21.7093 56.0362 21.7093 57.923 20.995C57.9342 20.9911 57.9436 20.9872 57.9549 20.9832C59.0813 20.5476 60.0537 20.0649 60.8629 19.6057C61.075 19.486 61.2928 19.3741 61.5331 19.2996C61.5331 19.2996 61.8222 19.2093 62.1301 19.1818C64.8109 18.9208 66.4836 22.0782 66.8779 24.4448C67.3697 27.4099 66.3147 30.5987 64.8128 33.0987H64.8165Z" fill="#D4D191" stroke="#6F6723" stroke-width="1.5"/>
<mask id="mask1_1497_27539" style="mask-type:alpha" maskUnits="userSpaceOnUse" x="30" y="18" width="13" height="20">
<rect x="30" y="18" width="13" height="20" fill="#D9D9D9"/>
</mask>
<g mask="url(#mask1_1497_27539)">
<path d="M39.8128 33.0987C39.2684 34.0033 38.6263 34.8687 37.8059 35.5104C37.1357 36.0304 36.3791 36.3856 35.585 36.6309C34.7759 36.884 33.9348 37.0018 33.09 37.0371L30.0018 37.1666L26.9136 37.0371C26.0707 37.0018 25.2296 36.884 24.4186 36.6309C23.6245 36.3876 22.8642 36.0324 22.1977 35.5104C21.3754 34.8687 20.7315 34.0033 20.1871 33.0987C18.6871 30.5987 17.6301 27.4099 18.122 24.4448C18.5181 22.0782 20.189 18.9208 22.8698 19.1818C23.1777 19.2073 23.4668 19.2996 23.4668 19.2996C23.7071 19.3741 23.9249 19.486 24.137 19.6057C24.9461 20.0649 25.9186 20.5456 27.045 20.9832C27.0563 20.9872 27.0657 20.9911 27.0769 20.995C28.9618 21.7093 31.0362 21.7093 32.923 20.995C32.9342 20.9911 32.9436 20.9872 32.9549 20.9832C34.0813 20.5476 35.0537 20.0649 35.8629 19.6057C36.075 19.486 36.2928 19.3741 36.5331 19.2996C36.5331 19.2996 36.8222 19.2093 37.1301 19.1818C39.8109 18.9208 41.4836 22.0782 41.8779 24.4448C42.3697 27.4099 41.3147 30.5987 39.8128 33.0987Z" fill="#D4D191" stroke="#6F6723" stroke-width="1.5"/>
</g>
</g>
</svg>
