<svg width="36" height="47" viewBox="0 0 36 47" fill="none" xmlns="http://www.w3.org/2000/svg">
<path d="M31.8513 27.7884C21.049 29.0554 14.5713 29.0711 4.1196 27.795C3.52163 27.7219 2.99219 28.1873 2.99219 28.7897V32.7328C2.99219 33.2053 3.32569 33.6143 3.78849 33.7096C14.5999 35.9364 21.1086 35.9887 32.1763 33.7097C32.639 33.6144 32.9727 33.2053 32.9727 32.7329V28.7834C32.9727 28.1832 32.4474 27.7185 31.8513 27.7884Z" fill="#FFE0E7" stroke="#B6B6B6" stroke-width="0.575002"/>
<path d="M16.8558 31.8982C18.2938 31.4858 18.1141 28.461 17.8444 27.0001C17.8444 27.0001 17.1792 26.8301 16.584 26.8301C15.9888 26.8301 15.3278 27.0001 15.3278 27.0001C15.2379 28.8047 15.4177 32.3107 16.8558 31.8982Z" fill="white" stroke="#B6B6B6" stroke-width="0.3"/>
<path d="M19.7464 31.8982C21.1844 31.4857 21.0047 28.4609 20.735 27.0001C20.735 27.0001 20.1548 26.915 19.5596 26.915C18.9645 26.915 18.2184 27.0001 18.2184 27.0001C18.1286 28.8046 18.3083 32.3106 19.7464 31.8982Z" fill="white" stroke="#B6B6B6" stroke-width="0.3"/>
<path d="M22.5844 32.0711C23.9621 31.6587 23.6853 28.2907 23.427 26.8301C23.427 26.8301 22.7035 26.7451 22.1934 26.7451C21.6832 26.7451 20.9299 26.8301 20.9299 26.8301C20.8438 28.6344 21.2066 32.4835 22.5844 32.0711Z" fill="white" stroke="#B6B6B6" stroke-width="0.3"/>
<path d="M13.6422 32.0711C12.2645 31.6587 12.5412 28.2907 12.7995 26.8301C12.7995 26.8301 13.353 26.7451 14.0332 26.7451C14.7134 26.7451 15.2967 26.8301 15.2967 26.8301C15.3828 28.6344 15.0199 32.4835 13.6422 32.0711Z" fill="white" stroke="#B6B6B6" stroke-width="0.3"/>
<path d="M9.8408 26.5546C11.0785 25.7623 12.5814 27.2337 12.5814 27.2337C12.6698 29.0164 11.454 32.8194 10.0395 32.4119C8.86073 32.0723 9.48718 26.979 9.8408 26.5546Z" fill="white" stroke="#B6B6B6" stroke-width="0.3"/>
<path d="M26.3858 26.2147C25.1481 25.4224 23.6452 26.8938 23.6452 26.8938C23.5568 28.6765 24.7726 32.4795 26.1871 32.0721C27.3658 31.7325 26.7394 26.6392 26.3858 26.2147Z" fill="white" stroke="#B6B6B6" stroke-width="0.3"/>
<path d="M32.994 24.7046C32.1438 24.1944 31.6728 24.303 30.6525 24.9832C30.3975 25.1533 31.4177 29.5576 32.7781 29.1495C33.4192 28.5308 33.3341 25.1297 32.994 24.7046Z" fill="white" stroke="#B6B6B6" stroke-width="0.3"/>
<path d="M28.5398 25.784C27.3217 24.9883 26.3645 25.9545 26.3645 25.9545C26.2775 27.7449 27.3045 31.288 28.6966 30.8788C29.8568 30.5378 28.8878 26.2103 28.5398 25.784Z" fill="white" stroke="#B6B6B6" stroke-width="0.3"/>
<path d="M2.94974 24.9838C3.79995 24.4736 4.90529 24.4736 5.92559 25.1538C6.18067 25.3239 5.16041 29.7282 3.79999 29.3201C2.4898 28.1062 2.60963 25.4089 2.94974 24.9838Z" fill="white" stroke="#B6B6B6" stroke-width="0.3"/>
<path d="M30.925 24.9131C29.7026 24.4268 28.9201 25.5387 28.9201 25.5387C28.8332 27.3349 29.6906 30.4352 31.0817 30.0247C32.2409 29.6825 31.2728 25.3408 30.925 24.9131Z" fill="white" stroke="#B6B6B6" stroke-width="0.3"/>
<path d="M5.30547 25.0831C6.5279 24.5967 7.31036 25.7086 7.31036 25.7086C7.3973 27.5049 6.53985 30.6051 5.14878 30.1946C3.98954 29.8524 4.9577 25.5107 5.30547 25.0831Z" fill="white" stroke="#B6B6B6" stroke-width="0.3"/>
<path d="M7.51488 26.2947C8.73302 25.499 9.69017 26.4653 9.69017 26.4653C9.77718 28.2556 8.75022 31.7988 7.35806 31.3896C6.19791 31.0485 7.16684 26.721 7.51488 26.2947Z" fill="white" stroke="#B6B6B6" stroke-width="0.3"/>
<path d="M2.31698 17.2109L3.1318 22.7109C3.20444 23.2012 3.62532 23.5643 4.121 23.5643H31.7748C32.2984 23.5643 32.7333 23.1604 32.772 22.6382L33.1792 17.1416C33.214 16.6721 32.9131 16.2403 32.4605 16.1104C21.198 12.8801 14.4782 13.0104 3.04274 16.1026C2.55559 16.2343 2.24303 16.7117 2.31698 17.2109Z" fill="#FFE0E7" stroke="#B6B6B6" stroke-width="0.575002"/>
<path d="M15.6609 19.7102C18.2967 19.9653 18.0416 26.1722 18.0416 26.1722C18.0416 26.1722 17.1913 26.5974 15.6609 26.5123C14.1304 26.4273 13.2802 26.1722 13.2802 26.1722C13.2802 26.1722 13.025 19.4551 15.6609 19.7102Z" fill="white" stroke="#B6B6B6" stroke-width="0.3"/>
<path d="M20.4292 19.632C23.065 19.8871 22.8034 25.9169 22.8034 25.9169C22.8034 25.9169 21.9531 26.4341 20.4292 26.4341C18.9053 26.4341 18.1269 26.172 18.1269 26.172C18.1269 26.172 17.7934 19.3769 20.4292 19.632Z" fill="white" stroke="#B6B6B6" stroke-width="0.3"/>
<path d="M24.9276 19.9648C26.5602 20.441 26.4581 23.621 26.203 25.1515C26.203 25.1515 25.5228 25.7467 24.5875 25.9167C23.6523 26.0868 22.887 25.7467 22.887 25.7467C22.6319 21.6654 23.6523 19.9648 24.9276 19.9648Z" fill="white" stroke="#B6B6B6" stroke-width="0.3"/>
<path d="M11.131 20.3057C9.49844 20.7818 9.60047 23.9618 9.85555 25.4923C9.85555 25.4923 10.5358 26.0875 11.471 26.2575C12.4063 26.4276 13.1716 26.0875 13.1716 26.0875C13.4267 22.0062 12.4063 20.3057 11.131 20.3057Z" fill="white" stroke="#B6B6B6" stroke-width="0.3"/>
<path d="M28.3297 19.71C27.7345 19.71 26.4591 22.0907 26.3741 22.3458L26.2891 25.2367C26.2891 25.2367 27.5645 26.0019 27.9896 25.8319C28.4147 25.6618 28.7548 25.0666 28.7548 25.0666C28.8965 24.3581 29.197 22.89 29.265 22.0057C29.35 20.9003 29.0949 19.71 28.3297 19.71Z" fill="white" stroke="#B6B6B6" stroke-width="0.3"/>
<path d="M7.59999 19.7949C8.19517 19.7949 9.47057 22.1757 9.5556 22.4307L9.64062 25.3217C9.64062 25.3217 8.36523 26.0869 7.94009 25.9168C7.51496 25.7468 7.17485 25.1516 7.17485 25.1516C7.03314 24.443 6.73272 22.9749 6.66469 22.0906C6.57967 20.9853 6.83475 19.7949 7.59999 19.7949Z" fill="white" stroke="#B6B6B6" stroke-width="0.3"/>
<path d="M30.6254 20.1348C30.3533 20.1348 29.6618 20.9283 29.35 21.3251L28.8398 24.9813C28.8398 24.9813 29.6901 25.4914 30.0302 25.4914C30.3703 25.4914 30.6254 25.1513 30.6254 25.1513C31.1016 24.6752 31.2773 22.2888 31.3056 21.1551C31.1922 20.815 30.8975 20.1348 30.6254 20.1348Z" fill="white" stroke="#B6B6B6" stroke-width="0.3"/>
<path d="M32.128 20.3057C31.8465 20.3057 31.6237 20.8797 31.3012 21.245L30.8086 24.8121C30.8086 24.8121 31.2044 25.1522 31.5562 25.1522C31.9081 25.1522 32.128 24.9241 32.128 24.9241C32.6206 24.4857 32.5472 22.2887 32.5765 21.245C32.4593 20.9319 32.4095 20.3057 32.128 20.3057Z" fill="white" stroke="#B6B6B6" stroke-width="0.3"/>
<path d="M3.69233 20.3057C3.9738 20.3057 4.19664 20.8797 4.51915 21.245L5.01172 24.8121C5.01172 24.8121 4.61592 25.1522 4.26408 25.1522C3.91225 25.1522 3.69233 24.9241 3.69233 24.9241C3.19976 24.4857 3.27308 22.2887 3.24376 21.245C3.36104 20.9319 3.41086 20.3057 3.69233 20.3057Z" fill="white" stroke="#B6B6B6" stroke-width="0.3"/>
<path d="M5.28475 20.1348C5.55684 20.1348 6.24839 20.9283 6.56015 21.3251L7.07031 24.9813C7.07031 24.9813 6.22005 25.4914 5.87994 25.4914C5.53983 25.4914 5.28475 25.1513 5.28475 25.1513C4.8086 24.6752 4.63288 22.2888 4.60454 21.1551C4.71791 20.815 5.01267 20.1348 5.28475 20.1348Z" fill="white" stroke="#B6B6B6" stroke-width="0.3"/>
</svg>
