<svg preserveAspectRatio="none" width="100%" height="100%" overflow="visible" style="display: block;" viewBox="0 0 217.95 191.238" fill="none" xmlns="http://www.w3.org/2000/svg">
<path id="Vector" d="M162.003 21.2219C162.003 23.2513 161.318 24.942 160.341 26.4162C161.381 26.0834 162.375 26.0526 163.359 26.0119L163.485 26.0071L163.499 26.0061H163.513C165.649 25.9559 167.315 26.0394 168.711 26.4826C170.19 26.9523 171.245 27.7827 172.252 28.9533L172.328 29.0412L172.389 29.1399C172.669 29.5911 172.987 30.0092 173.409 30.6096C173.81 31.1789 174.252 31.8428 174.656 32.6379C175.48 34.2586 176.092 36.3195 176.092 39.2395C176.092 41.1709 175.682 42.703 174.893 44.092C174.52 44.7479 174.069 45.3552 173.569 45.9436C173.831 45.9161 174.098 45.8996 174.372 45.8996C176.054 45.8996 177.145 46.057 178.107 46.425C178.574 46.6035 178.971 46.8166 179.338 47.0246C179.722 47.2423 180.046 47.4375 180.49 47.6731H180.489C182.203 48.5212 183.728 49.5502 184.722 51.1887C185.719 52.8333 186.051 54.8724 185.862 57.4768C185.863 59.9426 185.883 62.1553 185.006 64.1545C184.49 65.3303 183.701 66.3683 182.571 67.3703C183.003 67.3443 183.446 67.3313 183.901 67.3313C185.73 67.3313 188.191 68.3007 190.179 70.1594C192.224 72.0722 193.84 74.9877 193.84 78.9426C193.84 81.8409 193.628 84.0113 192.768 85.8616C192.256 86.9619 191.544 87.8839 190.637 88.76C193.395 88.7639 195.611 89.5553 197.315 91.0598C199.704 93.1678 200.76 96.404 201.193 99.7532C201.902 102.073 202.609 103.327 203.277 105.05C203.946 106.773 204.369 108.549 204.207 111.293C203.991 115.047 202.729 117.687 200.909 119.677C199.852 120.833 198.625 121.741 197.393 122.515C198.178 122.467 199.017 122.442 199.922 122.442C202.529 122.442 204.602 123.621 206.186 125.344C207.74 127.035 208.857 129.277 209.667 131.57C211.289 136.159 211.833 141.374 211.957 144.072L211.96 144.133L211.958 144.195C211.838 147.61 211.144 150.349 209.011 152.631C208.312 153.378 207.476 154.052 206.493 154.684C206.605 154.696 206.717 154.708 206.828 154.722C209.33 155.046 211.554 156.014 213.005 157.863C214.053 158.899 214.89 160.527 215.474 162.584C216.081 164.725 216.45 167.454 216.45 170.763C216.45 177.151 215.683 182.753 211.761 186.163L211.685 186.229L211.6 186.284C210.445 187.042 209.035 188.073 206.715 188.786C204.41 189.495 201.288 189.876 196.594 189.606L196.59 189.605C195.679 189.55 194.742 189.469 193.819 189.307C192.876 189.586 191.871 189.738 190.84 189.738H153.737C152.357 189.737 151.237 188.618 151.237 187.238V159.239C151.237 148.469 142.507 139.739 131.737 139.739H92.7373C81.9679 139.739 73.2373 148.469 73.2373 159.239V187.238C73.2373 188.618 72.118 189.738 70.7373 189.738H28.5801C27.3441 189.738 26.1541 189.527 25.043 189.127C23.8348 189.408 22.569 189.535 21.3486 189.605C16.6542 189.875 13.5338 189.495 11.2285 188.786C8.90805 188.073 7.49724 187.042 6.34277 186.284L6.25879 186.229L6.18164 186.163C2.25816 182.752 1.5 177.149 1.5 170.763C1.50002 167.455 1.86653 164.726 2.47168 162.585C3.05124 160.535 3.88315 158.91 4.92676 157.872C6.44138 155.936 8.79846 154.966 11.4453 154.682C10.5476 154.104 9.77321 153.491 9.11523 152.821C6.84341 150.504 6.11319 147.71 5.99316 144.193L5.99023 144.134L5.99316 144.074C6.11377 141.374 6.65607 136.16 8.27734 131.571C9.08734 129.278 10.2026 127.035 11.7568 125.344C13.3404 123.621 15.4137 122.442 18.0205 122.442C18.9318 122.442 19.7747 122.47 20.5625 122.519C19.552 121.885 18.5536 121.167 17.6611 120.315C15.5909 118.339 14.0751 115.662 13.7627 111.681L13.7354 111.291C13.5779 108.548 14.0006 106.773 14.668 105.051C15.3359 103.327 16.0408 102.071 16.75 99.7483C17.2039 96.2378 18.3464 92.8427 20.9951 90.7522C22.654 89.4429 24.7472 88.7626 27.3037 88.759C26.3973 87.8834 25.687 86.9613 25.1758 85.8616C24.3157 84.0112 24.1035 81.841 24.1035 78.9426C24.1035 74.987 25.7205 72.0708 27.7666 70.1584C29.7547 68.3002 32.2171 67.3313 34.042 67.3313C34.5012 67.3313 34.9458 67.3435 35.3789 67.3703C34.3705 66.4775 33.6317 65.5587 33.1182 64.5393C32.0525 62.4237 32.0788 60.0903 32.0791 57.4631C31.8927 54.8652 32.2252 52.8304 33.2207 51.1887C34.2142 49.5504 35.7384 48.5211 37.4521 47.6731C37.8978 47.437 38.2223 47.2417 38.6074 47.0237C38.9748 46.8156 39.3722 46.6033 39.8389 46.425C40.8015 46.0574 41.8913 45.8997 43.5703 45.8996C43.8433 45.8996 44.1105 45.9132 44.3721 45.9407C43.8725 45.3538 43.4239 44.7471 43.0518 44.093C42.2612 42.7035 41.8506 41.1709 41.8506 39.2395C41.8506 36.3195 42.4624 34.2586 43.2861 32.6379C43.6904 31.8426 44.1335 31.1789 44.5342 30.6096C44.9567 30.0092 45.2731 29.5911 45.5537 29.1399L45.6162 29.0403L45.6924 28.9514C46.7021 27.7829 47.7558 26.9524 49.2334 26.4826C50.6289 26.0391 52.2937 25.9559 54.4307 26.0061H54.4443L54.457 26.0071C55.5791 26.0539 56.7154 26.0747 57.9043 26.5207C56.8897 25.0224 56.1749 23.2989 56.1748 21.2219V21.1125L56.1904 21.0051C56.5953 18.2314 57.61 16.5202 59.0342 15.2844C59.7077 14.7 60.4347 14.2555 61.1133 13.8684C61.8277 13.4608 62.4381 13.1425 63.0908 12.7287L63.1514 12.6907L63.2158 12.6575C64.5652 11.9739 65.8179 11.2392 67.373 10.7326C68.9788 10.2096 70.8832 9.92405 73.7412 9.92405C76.1796 9.92407 78.1193 10.1587 79.4688 11.3879C79.4701 10.688 79.4698 9.96024 79.6455 9.29808C79.8777 8.42336 80.3691 7.73948 81.0732 6.98167L81.1445 6.90452L81.2266 6.83812C85.1354 3.66686 90.538 0.95594 98.002 1.59397L98.001 1.59495C102.356 1.96483 105.083 2.3965 106.801 3.0637C107.693 3.41038 108.414 3.85628 108.952 4.47483C109.032 4.56614 109.104 4.65971 109.172 4.75315C109.24 4.65971 109.312 4.56614 109.392 4.47483C109.93 3.85636 110.65 3.41043 111.542 3.0637C113.259 2.39643 115.984 1.96385 120.335 1.59397L121.029 1.54417C127.913 1.13962 132.994 3.59848 136.747 6.54222L137.117 6.83812L137.199 6.90452L137.271 6.98167C137.976 7.73943 138.467 8.42342 138.699 9.29808C138.863 9.91475 138.873 10.5884 138.875 11.2434C140.216 10.1398 142.097 9.92406 144.437 9.92405C147.298 9.92405 149.203 10.2095 150.808 10.7326C151.973 11.1125 152.968 11.6212 153.962 12.1399L154.962 12.6575L155.026 12.6907L155.087 12.7287C155.739 13.1423 156.35 13.461 157.064 13.8684C157.744 14.2554 158.471 14.6999 159.146 15.2844C160.571 16.5205 161.586 18.232 161.987 21.0071L162.003 21.1135V21.2219Z" stroke="var(--stroke-0, #009ACE)" stroke-width="3"/>
</svg>
