<svg preserveAspectRatio="none" width="100%" height="100%" overflow="visible" style="display: block;" viewBox="0 0 25 16" fill="none" xmlns="http://www.w3.org/2000/svg">
<g id="Vector">
<path d="M20 16H2C1.46957 16 0.960859 15.7893 0.585786 15.4142C0.210714 15.0391 0 14.5304 0 14V2C0 1.46957 0.210714 0.96086 0.585786 0.585787C0.960859 0.210714 1.46957 0 2 0H20C20.5304 0 21.0391 0.210714 21.4142 0.585787C21.7893 0.96086 22 1.46957 22 2V3H23C23.5304 3 24.0391 3.21071 24.4142 3.58579C24.7893 3.96086 25 4.46957 25 5V11C25 11.5304 24.7893 12.0391 24.4142 12.4142C24.0391 12.7893 23.5304 13 23 13H22V14C22 14.5304 21.7893 15.0391 21.4142 15.4142C21.0391 15.7893 20.5304 16 20 16ZM2 2V14H20V11H23V5H20V2H2Z" fill="var(--fill-0, black)" fill-opacity="0.63"/>
<path d="M18 12V4H4V12H18Z" fill="var(--fill-0, black)" fill-opacity="0.63"/>
</g>
</svg>
