<svg preserveAspectRatio="none" width="100%" height="100%" overflow="visible" style="display: block;" viewBox="0 0 185.837 166.289" fill="none" xmlns="http://www.w3.org/2000/svg">
<path id="Gingiva" d="M92.9193 165.789C73.1872 165.789 56.1943 158.803 42.4061 145.021C7.60836 110.242 1.51863 40.5189 0.507515 12.3123C0.27231 5.75088 5.60341 0.5 12.169 0.5H27.1768C33.8042 0.5 39.2153 5.87217 39.5326 12.492C41.0715 44.6015 49.2677 130.107 92.9193 130.107C136.571 130.107 144.767 44.6015 146.306 12.492C146.623 5.8722 152.034 0.5 158.662 0.5H173.664C180.232 0.5 185.565 5.75473 185.329 12.3185C184.316 40.5307 178.225 110.252 143.433 145.023C129.643 158.803 112.651 165.789 92.9193 165.789Z" fill="var(--fill-0, #FFF0F3)" stroke="var(--stroke-0, #8F8F8F)"/>
</svg>
