<svg width="36" height="43" viewBox="0 0 36 43" fill="none" xmlns="http://www.w3.org/2000/svg">
<g clip-path="url(#clip0_4138_125208)">
<g clip-path="url(#clip1_4138_125208)">
<path d="M33.1516 25.5804C22.4206 26.8387 15.9828 26.8543 5.60014 25.5869C5.00217 25.5139 4.47266 25.9793 4.47266 26.5817V30.4894C4.47266 30.9619 4.80611 31.3709 5.26891 31.4662C16.011 33.6784 22.48 33.7303 33.4767 31.4663C33.9394 31.371 34.2731 30.9619 34.2731 30.4895V26.5754C34.2731 25.9752 33.7477 25.5105 33.1516 25.5804Z" fill="#FFE0E7" stroke="#B6B6B6" stroke-width="0.6"/>
<path d="M18.2527 29.6647C19.6821 29.2547 19.5034 26.248 19.2354 24.796C19.2354 24.796 18.5742 24.627 17.9826 24.627C17.391 24.627 16.734 24.796 16.734 24.796C16.6446 26.5897 16.8233 30.0747 18.2527 29.6647Z" fill="white" stroke="#B6B6B6" stroke-width="0.3"/>
<path d="M21.1238 29.6651C22.5532 29.2551 22.3745 26.2485 22.1065 24.7964C22.1065 24.7964 21.5298 24.7119 20.9382 24.7119C20.3466 24.7119 19.605 24.7964 19.605 24.7964C19.5157 26.5902 19.6944 30.0751 21.1238 29.6651Z" fill="white" stroke="#B6B6B6" stroke-width="0.3"/>
<path d="M23.9493 29.837C25.3188 29.427 25.0437 26.0793 24.7869 24.6275C24.7869 24.6275 24.0678 24.543 23.5607 24.543C23.0536 24.543 22.3048 24.6275 22.3048 24.6275C22.2192 26.4209 22.5799 30.2469 23.9493 29.837Z" fill="white" stroke="#B6B6B6" stroke-width="0.3"/>
<path d="M15.0585 29.837C13.689 29.427 13.9641 26.0793 14.2209 24.6275C14.2209 24.6275 14.771 24.543 15.4471 24.543C16.1232 24.543 16.703 24.6275 16.703 24.6275C16.7886 26.4209 16.4279 30.2469 15.0585 29.837Z" fill="white" stroke="#B6B6B6" stroke-width="0.3"/>
<path d="M11.2831 24.353C12.5133 23.5654 14.0072 25.028 14.0072 25.028C14.0951 26.8 12.8865 30.5801 11.4806 30.1751C10.3089 29.8376 10.9316 24.7749 11.2831 24.353Z" fill="white" stroke="#B6B6B6" stroke-width="0.3"/>
<path d="M27.7286 24.0151C26.4984 23.2276 25.0045 24.6901 25.0045 24.6901C24.9166 26.4621 26.1252 30.2422 27.5312 29.8372C28.7028 29.4997 28.0801 24.437 27.7286 24.0151Z" fill="white" stroke="#B6B6B6" stroke-width="0.3"/>
<path d="M34.2961 22.5142C33.451 22.0071 32.9829 22.115 31.9687 22.7911C31.7152 22.9602 32.7293 27.3381 34.0815 26.9324C34.7187 26.3174 34.6342 22.9368 34.2961 22.5142Z" fill="white" stroke="#B6B6B6" stroke-width="0.3"/>
<path d="M29.8666 23.5868C28.6557 22.7959 27.7043 23.7563 27.7043 23.7563C27.6178 25.5359 28.6386 29.0578 30.0224 28.651C31.1756 28.312 30.2125 24.0105 29.8666 23.5868Z" fill="white" stroke="#B6B6B6" stroke-width="0.3"/>
<path d="M4.4327 22.7911C5.2778 22.284 6.3765 22.2841 7.39067 22.9602C7.64422 23.1292 6.63009 27.5071 5.27784 27.1014C3.97552 25.8948 4.09463 23.2137 4.4327 22.7911Z" fill="white" stroke="#B6B6B6" stroke-width="0.3"/>
<path d="M32.2371 22.721C31.022 22.2375 30.2443 23.3428 30.2443 23.3428C30.1579 25.1282 31.0102 28.2099 32.3929 27.8018C33.5452 27.4617 32.5828 23.1461 32.2371 22.721Z" fill="white" stroke="#B6B6B6" stroke-width="0.3"/>
<path d="M6.77067 22.8899C7.98576 22.4065 8.76352 23.5117 8.76352 23.5117C8.84994 25.2972 7.99764 28.3788 6.61492 27.9707C5.46265 27.6307 6.425 23.315 6.77067 22.8899Z" fill="white" stroke="#B6B6B6" stroke-width="0.3"/>
<path d="M8.96938 24.0946C10.1802 23.3037 11.1316 24.2641 11.1316 24.2641C11.2181 26.0437 10.1973 29.5656 8.81351 29.1588C7.66033 28.8198 8.62343 24.5183 8.96938 24.0946Z" fill="white" stroke="#B6B6B6" stroke-width="0.3"/>
<path d="M1.14511 15.0703L1.95349 20.5268C2.02613 21.0172 2.44701 21.3803 2.94269 21.3803H30.4196C30.9432 21.3803 31.3781 20.9764 31.4168 20.4542L31.8208 15.001C31.8555 14.5314 31.5547 14.0997 31.1021 13.9699C19.9117 10.7608 13.2329 10.8902 1.87081 13.962C1.38365 14.0937 1.07115 14.5711 1.14511 15.0703Z" fill="#FFE0E7" stroke="#B6B6B6" stroke-width="0.6"/>
<path d="M14.4082 17.5481C17.0282 17.8016 16.7747 23.9713 16.7747 23.9713C16.7747 23.9713 15.9295 24.3938 14.4082 24.3093C12.887 24.2248 12.0418 23.9713 12.0418 23.9713C12.0418 23.9713 11.7883 17.2945 14.4082 17.5481Z" fill="white" stroke="#B6B6B6" stroke-width="0.3"/>
<path d="M19.1496 17.4708C21.7696 17.7244 21.5096 23.718 21.5096 23.718C21.5096 23.718 20.6644 24.2321 19.1496 24.2321C17.6349 24.2321 16.8612 23.9715 16.8612 23.9715C16.8612 23.9715 16.5296 17.2173 19.1496 17.4708Z" fill="white" stroke="#B6B6B6" stroke-width="0.3"/>
<path d="M23.6222 17.8018C25.2449 18.275 25.1435 21.4359 24.8899 22.9572C24.8899 22.9572 24.2138 23.5488 23.2841 23.7179C22.3545 23.8869 21.5938 23.5488 21.5938 23.5488C21.3403 19.4921 22.3545 17.8018 23.6222 17.8018Z" fill="white" stroke="#B6B6B6" stroke-width="0.3"/>
<path d="M9.90907 18.1396C8.28637 18.6129 8.38779 21.7738 8.64134 23.2951C8.64134 23.2951 9.31745 23.8867 10.2471 24.0558C11.1768 24.2248 11.9375 23.8867 11.9375 23.8867C12.191 19.83 11.1768 18.1396 9.90907 18.1396Z" fill="white" stroke="#B6B6B6" stroke-width="0.3"/>
<path d="M27.0049 17.5479C26.4133 17.5479 25.1456 19.9143 25.0611 20.1678L24.9766 23.0414C24.9766 23.0414 26.2443 23.802 26.6669 23.633C27.0895 23.464 27.4275 22.8723 27.4275 22.8723C27.5684 22.168 27.867 20.7087 27.9346 19.8298C28.0191 18.7311 27.7656 17.5479 27.0049 17.5479Z" fill="white" stroke="#B6B6B6" stroke-width="0.3"/>
<path d="M6.3974 17.6328C6.98901 17.6328 8.25675 19.9993 8.34127 20.2528L8.42578 23.1263C8.42578 23.1263 7.15804 23.887 6.73547 23.7179C6.31289 23.5489 5.97482 22.9573 5.97482 22.9573C5.83396 22.253 5.53534 20.7937 5.46773 19.9147C5.38321 18.816 5.63676 17.6328 6.3974 17.6328Z" fill="white" stroke="#B6B6B6" stroke-width="0.3"/>
<path d="M29.2826 17.9707C29.0122 17.9707 28.3248 18.7595 28.0149 19.1539L27.5078 22.7881C27.5078 22.7881 28.353 23.2952 28.691 23.2952C29.0291 23.2952 29.2826 22.9571 29.2826 22.9571C29.7559 22.4838 29.9306 20.1118 29.9588 18.9849C29.8461 18.6468 29.5531 17.9707 29.2826 17.9707Z" fill="white" stroke="#B6B6B6" stroke-width="0.3"/>
<path d="M30.7802 18.1396C30.5004 18.1396 30.2789 18.7102 29.9584 19.0733L29.4688 22.619C29.4688 22.619 29.8622 22.957 30.2119 22.957C30.5616 22.957 30.7802 22.7303 30.7802 22.7303C31.2698 22.2946 31.1969 20.1108 31.2261 19.0733C31.1095 18.7621 31.06 18.1396 30.7802 18.1396Z" fill="white" stroke="#B6B6B6" stroke-width="0.3"/>
<path d="M2.51666 18.1396C2.79644 18.1396 3.01794 18.7102 3.33852 19.0733L3.82812 22.619C3.82812 22.619 3.4347 22.957 3.08498 22.957C2.73526 22.957 2.51666 22.7303 2.51666 22.7303C2.02705 22.2946 2.09993 20.1108 2.07079 19.0733C2.18736 18.7621 2.23689 18.1396 2.51666 18.1396Z" fill="white" stroke="#B6B6B6" stroke-width="0.3"/>
<path d="M4.10017 17.9707C4.37062 17.9707 5.05801 18.7595 5.36791 19.1539L5.875 22.7881C5.875 22.7881 5.02984 23.2952 4.69178 23.2952C4.35372 23.2952 4.10017 22.9571 4.10017 22.9571C3.62688 22.4838 3.45221 20.1118 3.42404 18.9849C3.53673 18.6468 3.82972 17.9707 4.10017 17.9707Z" fill="white" stroke="#B6B6B6" stroke-width="0.3"/>
</g>
</g>
<defs>
<clipPath id="clip0_4138_125208">
<rect width="36" height="43" fill="white"/>
</clipPath>
<clipPath id="clip1_4138_125208">
<rect width="34.4186" height="27" fill="white" transform="translate(1 8)"/>
</clipPath>
</defs>
</svg>
