<svg width="36" height="49" viewBox="0 0 36 49" fill="none" xmlns="http://www.w3.org/2000/svg">
<g clip-path="url(#clip0_4138_125234)">
<path d="M4.78522 15.4244C3.14499 16.9522 3.13146 18.82 2.96101 21.6669H29.99V16.3335C29.99 15.1553 29.0348 14.2002 27.8566 14.2002H8.79195C7.3501 14.2002 5.84028 14.4416 4.78522 15.4244Z" fill="#FFE0E7" stroke="#B6B6B6" stroke-width="0.6"/>
<path d="M14.1511 23.7631C13.39 22.8077 13.3222 21.5598 13.2734 20.8548L13.3559 20.9351C15.1532 19.9241 15.8272 18.5762 16.2765 18.5762C16.7258 18.5762 17.5888 19.6995 17.8491 20.4858C18.0384 20.8012 18.174 22.6395 17.5888 23.697C17.1866 24.4241 15.4677 25.4156 14.1511 23.7631Z" fill="white" stroke="#B6B6B6" stroke-width="0.3"/>
<path d="M8.5013 24.3273C7.64098 24.3273 7.20186 23.6104 7.08984 23.2519V21.6093L9.98582 20.5983C9.98582 20.5983 11.4461 20.0367 13.2061 20.7106C13.6182 21.1267 13.2599 22.6067 13.2061 23.2519C13.1389 24.0584 12.7357 24.0584 12.3324 24.1929C12.0058 24.3017 11.0778 24.2377 10.7193 24.0584C10.3384 24.1481 9.36161 24.3273 8.5013 24.3273Z" fill="white" stroke="#B6B6B6" stroke-width="0.3"/>
<path d="M3.93115 24.1253C3.44722 24.1791 3.2597 24.1925 2.78922 24.1253L2.78906 20.3733C2.78906 20.3733 3.35845 20.1486 4.81872 20.3733C6.279 20.5979 7.09011 21.6089 7.09011 21.6089V23.1171C7.09011 23.4532 6.31057 24.3269 5.54424 24.3269C4.87212 24.3269 4.53606 24.0581 3.93115 24.1253Z" fill="white" stroke="#B6B6B6" stroke-width="0.3"/>
<path d="M27.145 18.4632C27.145 18.4632 27.8187 16.834 28.6438 16.8677C29.4688 16.9014 30.341 18.6651 30.4766 21.1752C30.4766 22.3471 30.3862 23.2992 30.3371 23.7209C30.3214 23.8594 30.2094 23.9644 30.0719 23.9723C29.514 24.002 28.1055 24.0416 27.4121 23.7189C26.536 23.3111 27.143 18.4612 27.143 18.4612L27.145 18.4632Z" fill="white" stroke="#B6B6B6" stroke-width="0.3"/>
<path d="M27.974 23.9556C27.974 23.9556 24.7839 24.3515 23.5718 23.7418C22.3598 23.1321 22.5268 17.6349 25.2534 17.1935C27.9799 16.7521 28.3708 21.5564 27.974 23.9556Z" fill="white" stroke="#B6B6B6" stroke-width="0.3"/>
<path d="M20.5531 17.7224C20.7908 17.6274 21.0579 17.6749 21.2563 17.8372C21.771 18.2589 22.7728 19.3635 22.873 21.6221C22.873 23.2849 22.9398 24.441 22.3014 24.54C21.6629 24.6389 18.9678 25.1794 18.0937 22.4694C17.4788 19.9316 19.4884 18.146 20.5531 17.7204V17.7224Z" fill="white" stroke="#B6B6B6" stroke-width="0.3"/>
<path d="M8.38204 34.2834C7.07517 32.7291 6.61613 30.953 6.53654 28.0025C6.52164 27.45 6.97168 27 7.52431 27H31.8568C32.1513 27 32.3901 27.2388 32.3901 27.5333C32.4114 30.6724 32.0948 32.4336 31.2756 35.102C31.1478 35.518 30.7613 35.8 30.3261 35.8H12.2038C10.7697 35.8 9.30498 35.3811 8.38204 34.2834Z" fill="#FFE0E7" stroke="#B6B6B6" stroke-width="0.6"/>
<path d="M30.2491 25.1113C30.4191 26.2369 30.2491 27.1356 30.4194 28.2588C30.4194 28.2588 30.6441 29.0455 31.318 29.7191C31.9919 30.3928 32.2163 29.0451 32.2163 29.0451C32.5527 27.6972 32.7551 26.6268 32.3998 25.0138C32.2211 24.2023 30.1543 24.4843 30.2491 25.1113Z" fill="white" stroke="#B6B6B6" stroke-width="0.3"/>
<path d="M30.1819 24.7089C30.0031 23.8974 26.8858 24.2981 26.8245 25.0022C26.7632 25.7063 27.0494 27.4734 27.0494 27.4734C27.7234 27.0241 29.6444 29.9447 30.0816 29.8323C30.5189 29.72 30.5372 26.322 30.1819 24.7089Z" fill="white" stroke="#B6B6B6" stroke-width="0.3"/>
<path d="M22.8559 25.0445C22.5866 25.7839 22.7289 27.2183 22.6676 27.9223C25.5886 30.0566 26.3746 29.8319 26.3746 29.8319C26.9363 29.8319 27.1094 26.9265 26.7541 25.3134C26.5754 24.5019 23.5788 23.0593 22.8559 25.0445Z" fill="white" stroke="#B6B6B6" stroke-width="0.3"/>
<path d="M18.6227 24.8074C17.773 25.6697 18.1248 26.6692 18.0635 27.361L19.6361 28.7089C19.6361 28.7089 21.2079 30.2179 21.6572 29.7199C22.1066 29.2219 22.669 28.0349 22.669 28.0349C22.669 28.0349 23.0893 26.4976 22.5203 25.4481C22.1291 24.7266 20.7727 22.6252 18.6227 24.8074Z" fill="white" stroke="#B6B6B6" stroke-width="0.3"/>
<path d="M6.59065 24.5071L6.52344 26.6579C6.60505 27.024 7.1667 26.9117 8.0021 27.361C10.2873 27.9226 11.4299 26.9117 11.5643 26.9117V25.2464C11.3179 24.8656 10.7175 24.1442 10.2873 24.3055C9.74961 24.5071 8.80864 24.5071 8.0021 24.3055C7.35687 24.1442 6.79229 24.3727 6.59065 24.5071Z" fill="white" stroke="#B6B6B6" stroke-width="0.3"/>
<path d="M11.5649 25.0997C11.5649 25.0997 11.3572 26.7987 11.5651 26.911C12.5591 26.6864 15.121 28.596 15.2555 28.596C15.363 28.596 17.7267 29.9439 18.0637 27.3604L18.0173 25.5819C18.0173 25.0997 18.0173 24.3721 17.0763 24.3721C16.502 24.3721 14.7911 24.7753 13.9845 24.5737C13.3393 24.4124 11.5649 24.7753 11.5649 25.0997Z" fill="white" stroke="#B6B6B6" stroke-width="0.3"/>
</g>
<defs>
<clipPath id="clip0_4138_125234">
<rect width="36" height="49" fill="white"/>
</clipPath>
</defs>
</svg>
