<svg width="32" height="49" viewBox="0 0 32 49" fill="none" xmlns="http://www.w3.org/2000/svg">
<g clip-path="url(#clip0_4138_125247)">
<path d="M28.6288 15.4244C30.2691 16.9522 30.2826 18.82 30.4531 21.6669H3.4241V16.3335C3.4241 15.1553 4.37922 14.2002 5.55743 14.2002H24.6221C26.064 14.2002 27.5738 14.4416 28.6288 15.4244Z" fill="#FFE0E7" stroke="#B6B6B6" stroke-width="0.6"/>
<path d="M19.2629 23.7631C20.0241 22.8077 20.0919 21.5598 20.1406 20.8548L20.0581 20.9351C18.2609 19.9241 17.5869 18.5762 17.1376 18.5762C16.6883 18.5762 15.8252 19.6995 15.565 20.4858C15.3757 20.8012 15.2401 22.6395 15.8252 23.697C16.2275 24.4241 17.9464 25.4156 19.2629 23.7631Z" fill="white" stroke="#B6B6B6" stroke-width="0.3"/>
<path d="M24.9128 24.3273C25.7731 24.3273 26.2122 23.6104 26.3242 23.2519V21.6093L23.4282 20.5983C23.4282 20.5983 21.968 20.0367 20.2079 20.7106C19.7958 21.1267 20.1542 22.6067 20.2079 23.2519C20.2751 24.0584 20.6784 24.0584 21.0817 24.1929C21.4083 24.3017 22.3363 24.2377 22.6948 24.0584C23.0756 24.1481 24.0525 24.3273 24.9128 24.3273Z" fill="white" stroke="#B6B6B6" stroke-width="0.3"/>
<path d="M29.4829 24.1253C29.9668 24.1791 30.1544 24.1925 30.6248 24.1253L30.625 20.3733C30.625 20.3733 30.0556 20.1486 28.5953 20.3733C27.1351 20.5979 26.3239 21.6089 26.3239 21.6089V23.1171C26.3239 23.4532 27.1035 24.3269 27.8698 24.3269C28.5419 24.3269 28.878 24.0581 29.4829 24.1253Z" fill="white" stroke="#B6B6B6" stroke-width="0.3"/>
<path d="M6.2691 18.4632C6.2691 18.4632 5.59531 16.834 4.77027 16.8677C3.94523 16.9014 3.07304 18.6651 2.9375 21.1752C2.9375 22.3471 3.02786 23.2992 3.07697 23.7209C3.09269 23.8594 3.20466 23.9644 3.34216 23.9723C3.90005 24.002 5.30851 24.0416 6.00194 23.7189C6.87806 23.3111 6.27106 18.4612 6.27106 18.4612L6.2691 18.4632Z" fill="white" stroke="#B6B6B6" stroke-width="0.3"/>
<path d="M5.44003 23.9556C5.44003 23.9556 8.6302 24.3515 9.84222 23.7418C11.0542 23.1321 10.8873 17.6349 8.16071 17.1935C5.43414 16.7521 5.04323 21.5564 5.44003 23.9556Z" fill="white" stroke="#B6B6B6" stroke-width="0.3"/>
<path d="M12.861 17.7224C12.6233 17.6274 12.3562 17.6749 12.1578 17.8372C11.6431 18.2589 10.6412 19.3635 10.5411 21.6221C10.5411 23.2849 10.4743 24.441 11.1127 24.54C11.7511 24.6389 14.4463 25.1794 15.3204 22.4694C15.9353 19.9316 13.9257 18.146 12.861 17.7204V17.7224Z" fill="white" stroke="#B6B6B6" stroke-width="0.3"/>
<path d="M25.032 34.2834C26.3389 32.7291 26.7979 30.953 26.8775 28.0025C26.8924 27.45 26.4424 27 25.8898 27H1.55729C1.26274 27 1.02396 27.2388 1.02396 27.5333C1.0027 30.6724 1.31931 32.4336 2.13851 35.102C2.26623 35.518 2.65273 35.8 3.08793 35.8H21.2102C22.6444 35.8 24.1091 35.3811 25.032 34.2834Z" fill="#FFE0E7" stroke="#B6B6B6" stroke-width="0.6"/>
<path d="M3.16501 25.1113C2.99493 26.2369 3.16501 27.1356 2.99468 28.2588C2.99468 28.2588 2.76999 29.0455 2.09605 29.7191C1.42212 30.3928 1.19776 29.0451 1.19776 29.0451C0.861403 27.6972 0.658943 26.6268 1.01423 25.0138C1.19296 24.2023 3.25974 24.4843 3.16501 25.1113Z" fill="white" stroke="#B6B6B6" stroke-width="0.3"/>
<path d="M3.23219 24.7089C3.41093 23.8974 6.52825 24.2981 6.58956 25.0022C6.65087 25.7063 6.36466 27.4734 6.36466 27.4734C5.69067 27.0241 3.76966 29.9447 3.33243 29.8323C2.89521 29.72 2.87691 26.322 3.23219 24.7089Z" fill="white" stroke="#B6B6B6" stroke-width="0.3"/>
<path d="M10.5582 25.0445C10.8274 25.7839 10.6851 27.2183 10.7464 27.9223C7.82551 30.0566 7.03941 29.8319 7.03941 29.8319C6.47777 29.8319 6.30465 26.9265 6.65993 25.3134C6.83866 24.5019 9.83522 23.0593 10.5582 25.0445Z" fill="white" stroke="#B6B6B6" stroke-width="0.3"/>
<path d="M14.7914 24.8074C15.641 25.6697 15.2892 26.6692 15.3505 27.361L13.778 28.7089C13.778 28.7089 12.2061 30.2179 11.7568 29.7199C11.3075 29.2219 10.7451 28.0349 10.7451 28.0349C10.7451 28.0349 10.3247 26.4976 10.8938 25.4481C11.285 24.7266 12.6414 22.6252 14.7914 24.8074Z" fill="white" stroke="#B6B6B6" stroke-width="0.3"/>
<path d="M26.8234 24.5071L26.8906 26.6579C26.809 27.024 26.2474 26.9117 25.412 27.361C23.1268 27.9226 21.9842 26.9117 21.8497 26.9117V25.2464C22.0962 24.8656 22.6966 24.1442 23.1268 24.3055C23.6645 24.5071 24.6054 24.5071 25.412 24.3055C26.0572 24.1442 26.6218 24.3727 26.8234 24.5071Z" fill="white" stroke="#B6B6B6" stroke-width="0.3"/>
<path d="M21.8492 25.0997C21.8492 25.0997 22.0568 26.7987 21.849 26.911C20.855 26.6864 18.293 28.596 18.1586 28.596C18.0511 28.596 15.6874 29.9439 15.3504 27.3604L15.3968 25.5819C15.3968 25.0997 15.3968 24.3721 16.3378 24.3721C16.912 24.3721 18.623 24.7753 19.4295 24.5737C20.0748 24.4124 21.8492 24.7753 21.8492 25.0997Z" fill="white" stroke="#B6B6B6" stroke-width="0.3"/>
</g>
<defs>
<clipPath id="clip0_4138_125247">
<rect width="32" height="49" fill="white"/>
</clipPath>
</defs>
</svg>
