<svg width="36" height="49" viewBox="0 0 36 49" fill="none" xmlns="http://www.w3.org/2000/svg">
<g clip-path="url(#clip0_4138_125221)">
<g clip-path="url(#clip1_4138_125221)">
<path d="M2.54766 28.5804C13.2786 29.8387 19.7164 29.8543 30.0991 28.5869C30.697 28.5139 31.2266 28.9793 31.2266 29.5817V33.4894C31.2266 33.9619 30.8931 34.3709 30.4303 34.4662C19.6882 36.6784 13.2192 36.7303 2.22255 34.4663C1.75979 34.371 1.42612 33.9619 1.42612 33.4895V29.5754C1.42612 28.9752 1.95152 28.5105 2.54766 28.5804Z" fill="#FFE0E7" stroke="#B6B6B6" stroke-width="0.6"/>
<path d="M17.4465 32.6647C16.0171 32.2547 16.1958 29.248 16.4638 27.796C16.4638 27.796 17.125 27.627 17.7166 27.627C18.3082 27.627 18.9653 27.796 18.9653 27.796C19.0546 29.5897 18.8759 33.0747 17.4465 32.6647Z" fill="white" stroke="#B6B6B6" stroke-width="0.3"/>
<path d="M14.5754 32.6651C13.146 32.2551 13.3247 29.2485 13.5927 27.7964C13.5927 27.7964 14.1694 27.7119 14.761 27.7119C15.3526 27.7119 16.0942 27.7964 16.0942 27.7964C16.1835 29.5902 16.0048 33.0751 14.5754 32.6651Z" fill="white" stroke="#B6B6B6" stroke-width="0.3"/>
<path d="M11.7499 32.837C10.3804 32.427 10.6555 29.0793 10.9123 27.6275C10.9123 27.6275 11.6314 27.543 12.1385 27.543C12.6456 27.543 13.3944 27.6275 13.3944 27.6275C13.48 29.4209 13.1193 33.2469 11.7499 32.837Z" fill="white" stroke="#B6B6B6" stroke-width="0.3"/>
<path d="M20.6408 32.837C22.0102 32.427 21.7351 29.0793 21.4784 27.6275C21.4784 27.6275 20.9282 27.543 20.2521 27.543C19.576 27.543 18.9962 27.6275 18.9962 27.6275C18.9106 29.4209 19.2713 33.2469 20.6408 32.837Z" fill="white" stroke="#B6B6B6" stroke-width="0.3"/>
<path d="M24.4201 27.353C23.1898 26.5654 21.6959 28.028 21.6959 28.028C21.608 29.8 22.8166 33.5801 24.2226 33.1751C25.3942 32.8376 24.7715 27.7749 24.4201 27.353Z" fill="white" stroke="#B6B6B6" stroke-width="0.3"/>
<path d="M7.97448 27.0151C9.20472 26.2276 10.6986 27.6901 10.6986 27.6901C10.7865 29.4621 9.57795 33.2422 8.17197 32.8372C7.0003 32.4997 7.62298 27.437 7.97448 27.0151Z" fill="white" stroke="#B6B6B6" stroke-width="0.3"/>
<path d="M1.407 25.5142C2.2521 25.0071 2.72025 25.115 3.73442 25.7911C3.98797 25.9602 2.97384 30.3381 1.62159 29.9324C0.984416 29.3174 1.06893 25.9368 1.407 25.5142Z" fill="white" stroke="#B6B6B6" stroke-width="0.3"/>
<path d="M5.83266 26.5868C7.04349 25.7959 7.99489 26.7563 7.99489 26.7563C8.08138 28.5359 7.06059 32.0578 5.67679 31.651C4.52361 31.312 5.48672 27.0105 5.83266 26.5868Z" fill="white" stroke="#B6B6B6" stroke-width="0.3"/>
<path d="M31.2704 25.7911C30.4253 25.284 29.3266 25.2841 28.3125 25.9602C28.0589 26.1292 29.073 30.5071 30.4253 30.1014C31.7276 28.8948 31.6085 26.2137 31.2704 25.7911Z" fill="white" stroke="#B6B6B6" stroke-width="0.3"/>
<path d="M3.46208 25.721C4.67717 25.2375 5.45493 26.3428 5.45493 26.3428C5.54135 28.1282 4.68904 31.2099 3.30633 30.8018C2.15405 30.4617 3.1164 26.1461 3.46208 25.721Z" fill="white" stroke="#B6B6B6" stroke-width="0.3"/>
<path d="M28.9285 25.8899C27.7135 25.4065 26.9357 26.5117 26.9357 26.5117C26.8493 28.2972 27.7016 31.3788 29.0843 30.9707C30.2366 30.6307 29.2742 26.315 28.9285 25.8899Z" fill="white" stroke="#B6B6B6" stroke-width="0.3"/>
<path d="M26.7298 27.0946C25.519 26.3037 24.5676 27.2641 24.5676 27.2641C24.4811 29.0437 25.5019 32.5656 26.8857 32.1588C28.0389 31.8198 27.0758 27.5183 26.7298 27.0946Z" fill="white" stroke="#B6B6B6" stroke-width="0.3"/>
<path d="M34.558 18.0703L33.7496 23.5268C33.677 24.0172 33.2561 24.3803 32.7604 24.3803H5.28357C4.75994 24.3803 4.32498 23.9764 4.2863 23.4542L3.88237 18.001C3.84758 17.5314 4.1484 17.0997 4.60104 16.9699C15.7914 13.7608 22.4702 13.8902 33.8323 16.962C34.3195 17.0937 34.632 17.5711 34.558 18.0703Z" fill="#FFE0E7" stroke="#B6B6B6" stroke-width="0.6"/>
<path d="M21.291 20.5481C18.671 20.8016 18.9245 26.9713 18.9245 26.9713C18.9245 26.9713 19.7697 27.3938 21.291 27.3093C22.8123 27.2248 23.6574 26.9713 23.6574 26.9713C23.6574 26.9713 23.911 20.2945 21.291 20.5481Z" fill="white" stroke="#B6B6B6" stroke-width="0.3"/>
<path d="M16.5535 20.4708C13.9335 20.7244 14.1936 26.718 14.1936 26.718C14.1936 26.718 15.0387 27.2321 16.5535 27.2321C18.0683 27.2321 18.8419 26.9715 18.8419 26.9715C18.8419 26.9715 19.1735 20.2173 16.5535 20.4708Z" fill="white" stroke="#B6B6B6" stroke-width="0.3"/>
<path d="M12.0809 20.8018C10.4582 21.275 10.5597 24.4359 10.8132 25.9572C10.8132 25.9572 11.4893 26.5488 12.419 26.7179C13.3487 26.8869 14.1093 26.5488 14.1093 26.5488C14.3629 22.4921 13.3487 20.8018 12.0809 20.8018Z" fill="white" stroke="#B6B6B6" stroke-width="0.3"/>
<path d="M25.798 21.1396C27.4207 21.6129 27.3192 24.7738 27.0657 26.2951C27.0657 26.2951 26.3896 26.8867 25.4599 27.0558C24.5302 27.2248 23.7696 26.8867 23.7696 26.8867C23.516 22.83 24.5302 21.1396 25.798 21.1396Z" fill="white" stroke="#B6B6B6" stroke-width="0.3"/>
<path d="M8.69818 20.5479C9.28979 20.5479 10.5575 22.9143 10.642 23.1678L10.7266 26.0414C10.7266 26.0414 9.45883 26.802 9.03625 26.633C8.61367 26.464 8.2756 25.8723 8.2756 25.8723C8.13475 25.168 7.83612 23.7087 7.76851 22.8298C7.68399 21.7311 7.93754 20.5479 8.69818 20.5479Z" fill="white" stroke="#B6B6B6" stroke-width="0.3"/>
<path d="M29.3057 20.6328C28.7141 20.6328 27.4464 22.9993 27.3619 23.2528L27.2773 26.1263C27.2773 26.1263 28.5451 26.887 28.9677 26.7179C29.3902 26.5489 29.7283 25.9573 29.7283 25.9573C29.8692 25.253 30.1678 23.7937 30.2354 22.9147C30.3199 21.816 30.0664 20.6328 29.3057 20.6328Z" fill="white" stroke="#B6B6B6" stroke-width="0.3"/>
<path d="M6.41657 20.9707C6.68703 20.9707 7.37442 21.7595 7.68431 22.1539L8.19141 25.7881C8.19141 25.7881 7.34625 26.2952 7.00819 26.2952C6.67012 26.2952 6.41657 25.9571 6.41657 25.9571C5.94329 25.4838 5.76862 23.1118 5.74045 21.9849C5.85314 21.6468 6.14612 20.9707 6.41657 20.9707Z" fill="white" stroke="#B6B6B6" stroke-width="0.3"/>
<path d="M4.92291 21.1396C5.20269 21.1396 5.42419 21.7102 5.74477 22.0733L6.23438 25.619C6.23438 25.619 5.84095 25.957 5.49123 25.957C5.14151 25.957 4.92291 25.7303 4.92291 25.7303C4.4333 25.2946 4.50618 23.1108 4.47704 22.0733C4.59361 21.7621 4.64314 21.1396 4.92291 21.1396Z" fill="white" stroke="#B6B6B6" stroke-width="0.3"/>
<path d="M33.1865 21.1396C32.9067 21.1396 32.6852 21.7102 32.3646 22.0733L31.875 25.619C31.875 25.619 32.2684 25.957 32.6181 25.957C32.9679 25.957 33.1865 25.7303 33.1865 25.7303C33.6761 25.2946 33.6032 23.1108 33.6323 22.0733C33.5158 21.7621 33.4662 21.1396 33.1865 21.1396Z" fill="white" stroke="#B6B6B6" stroke-width="0.3"/>
<path d="M31.603 20.9707C31.3325 20.9707 30.6451 21.7595 30.3352 22.1539L29.8281 25.7881C29.8281 25.7881 30.6733 26.2952 31.0113 26.2952C31.3494 26.2952 31.603 25.9571 31.603 25.9571C32.0762 25.4838 32.2509 23.1118 32.2791 21.9849C32.1664 21.6468 31.8734 20.9707 31.603 20.9707Z" fill="white" stroke="#B6B6B6" stroke-width="0.3"/>
</g>
</g>
<defs>
<clipPath id="clip0_4138_125221">
<rect width="36" height="49" fill="white"/>
</clipPath>
<clipPath id="clip1_4138_125221">
<rect width="34.4186" height="27" fill="white" transform="translate(0.789062 11)"/>
</clipPath>
</defs>
</svg>
