<svg preserveAspectRatio="none" width="100%" height="100%" overflow="visible" style="display: block;" viewBox="0 0 27.1847 27.9207" fill="none" xmlns="http://www.w3.org/2000/svg">
<g id="Vector">
<path d="M24.5872 14.7204C24.5872 14.4704 24.5872 14.2204 24.5872 13.9604C24.5872 13.7004 24.5872 13.4504 24.5872 13.1904L26.5072 11.5104C26.8611 11.1984 27.0933 10.7714 27.1629 10.3048C27.2324 9.83814 27.1348 9.36196 26.8872 8.96037L24.5272 4.96037C24.3518 4.65663 24.0997 4.40435 23.796 4.22883C23.4924 4.05331 23.1479 3.96073 22.7972 3.96037C22.5798 3.9587 22.3636 3.99248 22.1572 4.06037L19.7272 4.88037C19.3076 4.60158 18.87 4.35102 18.4172 4.13037L17.9072 1.61037C17.8157 1.14997 17.5653 0.736408 17.1996 0.44207C16.834 0.147732 16.3765 -0.00862619 15.9072 0.000367431H11.2272C10.7579 -0.00862619 10.3003 0.147732 9.93471 0.44207C9.56907 0.736408 9.31861 1.14997 9.22717 1.61037L8.71717 4.13037C8.2611 4.35097 7.82014 4.60152 7.39717 4.88037L5.01717 4.02037C4.80846 3.96599 4.59234 3.94573 4.37717 3.96037C4.02644 3.96073 3.68198 4.05331 3.37833 4.22883C3.07468 4.40435 2.82253 4.65663 2.64717 4.96037L0.287167 8.96037C0.0537536 9.36136 -0.0329817 9.83102 0.0418158 10.2889C0.116613 10.7468 0.34829 11.1645 0.697167 11.4704L2.58717 13.2004C2.58717 13.4504 2.58717 13.7004 2.58717 13.9604C2.58717 14.2204 2.58717 14.4704 2.58717 14.7304L0.697167 16.4104C0.338435 16.7184 0.100422 17.1435 0.0253652 17.6103C-0.0496916 18.0771 0.0430624 18.5554 0.287167 18.9604L2.64717 22.9604C2.82253 23.2641 3.07468 23.5164 3.37833 23.6919C3.68198 23.8674 4.02644 23.96 4.37717 23.9604C4.59452 23.962 4.81068 23.9283 5.01717 23.8604L7.44717 23.0404C7.86671 23.3192 8.30434 23.5697 8.75717 23.7904L9.26717 26.3104C9.35861 26.7708 9.60907 27.1843 9.97471 27.4787C10.3403 27.773 10.7979 27.9294 11.2672 27.9204H15.9872C16.4565 27.9294 16.914 27.773 17.2796 27.4787C17.6453 27.1843 17.8957 26.7708 17.9872 26.3104L18.4972 23.7904C18.9532 23.5698 19.3942 23.3192 19.8172 23.0404L22.2372 23.8604C22.4436 23.9283 22.6598 23.962 22.8772 23.9604C23.2279 23.96 23.5724 23.8674 23.876 23.6919C24.1797 23.5164 24.4318 23.2641 24.6072 22.9604L26.8872 18.9604C27.1206 18.5594 27.2073 18.0897 27.1325 17.6318C27.0577 17.1739 26.826 16.7562 26.4772 16.4504L24.5872 14.7204ZM22.7972 21.9604L19.3672 20.8004C18.5642 21.4805 17.6466 22.0121 16.6572 22.3704L15.9472 25.9604H11.2272L10.5172 22.4104C9.53559 22.0419 8.62288 21.5112 7.81717 20.8404L4.37717 21.9604L2.01717 17.9604L4.73717 15.5604C4.55226 14.5252 4.55226 13.4655 4.73717 12.4304L2.01717 9.96037L4.37717 5.96037L7.80717 7.12037C8.6101 6.44026 9.52777 5.90862 10.5172 5.55037L11.2272 1.96037H15.9472L16.6572 5.51037C17.6387 5.87879 18.5514 6.40951 19.3572 7.08037L22.7972 5.96037L25.1572 9.96037L22.4372 12.3604C22.6221 13.3955 22.6221 14.4552 22.4372 15.4904L25.1572 17.9604L22.7972 21.9604Z" fill="black" fill-opacity="0.63"/>
<path d="M13.5872 19.9604C12.4005 19.9604 11.2404 19.6085 10.2537 18.9492C9.26705 18.2899 8.49802 17.3528 8.04389 16.2565C7.58976 15.1601 7.47094 13.9537 7.70246 12.7898C7.93397 11.6259 8.50541 10.5568 9.34453 9.71773C10.1836 8.87861 11.2527 8.30717 12.4166 8.07566C13.5805 7.84415 14.7869 7.96297 15.8833 8.41709C16.9796 8.87122 17.9167 9.64025 18.576 10.6269C19.2353 11.6136 19.5872 12.7737 19.5872 13.9604C19.5952 14.7505 19.4455 15.5343 19.1468 16.2659C18.8481 16.9975 18.4064 17.6621 17.8477 18.2209C17.2889 18.7796 16.6243 19.2213 15.8927 19.52C15.1611 19.8187 14.3773 19.9684 13.5872 19.9604ZM13.5872 9.96037C13.0585 9.94805 12.5329 10.0431 12.042 10.2398C11.5511 10.4364 11.1052 10.7306 10.7313 11.1045C10.3574 11.4784 10.0632 11.9243 9.86656 12.4152C9.6699 12.9061 9.57485 13.4317 9.58717 13.9604C9.57485 14.489 9.6699 15.0147 9.86656 15.5056C10.0632 15.9964 10.3574 16.4423 10.7313 16.8162C11.1052 17.1901 11.5511 17.4843 12.042 17.681C12.5329 17.8776 13.0585 17.9727 13.5872 17.9604C14.1158 17.9727 14.6415 17.8776 15.1323 17.681C15.6232 17.4843 16.0691 17.1901 16.443 16.8162C16.8169 16.4423 17.1111 15.9964 17.3078 15.5056C17.5044 15.0147 17.5995 14.489 17.5872 13.9604C17.5995 13.4317 17.5044 12.9061 17.3078 12.4152C17.1111 11.9243 16.8169 11.4784 16.443 11.1045C16.0691 10.7306 15.6232 10.4364 15.1323 10.2398C14.6415 10.0431 14.1158 9.94805 13.5872 9.96037Z" fill="black" fill-opacity="0.63"/>
</g>
</svg>
