<svg width="60" height="60" viewBox="0 0 60 60" fill="none" xmlns="http://www.w3.org/2000/svg">
<rect width="60" height="60" rx="8" fill="white"/>
<rect width="60" height="60" rx="8" stroke="#00ADEF"/>
<path d="M55 29C55 40.5972 43.807 50 30.0014 50C16.1958 50 5 40.5972 5 29" fill="#FFD6D6"/>
<path d="M45.5429 32.6721C44.6808 34.0793 43.6583 35.4255 42.3594 36.4237C41.2982 37.2326 40.1003 37.7851 38.8429 38.1667C37.5618 38.5604 36.2302 38.7436 34.8926 38.7985L30.0029 39L25.1132 38.7985C23.7785 38.7436 22.4469 38.5604 21.1628 38.1667C19.9054 37.7881 18.7016 37.2356 17.6464 36.4237C16.3444 35.4255 15.3249 34.0793 14.4629 32.6721C12.0879 28.7832 10.4144 23.8229 11.1932 19.2105C11.8204 15.5291 14.4658 10.6176 18.7105 11.0236C19.198 11.0633 19.6558 11.2068 19.6558 11.2068C20.0362 11.3228 20.381 11.4968 20.7169 11.683C21.998 12.3973 23.5378 13.1451 25.3213 13.8258C25.3391 13.8319 25.3539 13.8381 25.3718 13.8442C28.3561 14.9553 31.6407 14.9553 34.628 13.8442C34.6458 13.8381 34.6607 13.8319 34.6785 13.8258C36.462 13.1482 38.0017 12.3973 39.2829 11.683C39.6188 11.4968 39.9636 11.3228 40.344 11.2068C40.344 11.2068 40.8018 11.0664 41.2893 11.0236C45.5339 10.6176 48.1824 15.5291 48.8066 19.2105C49.5854 23.8229 47.9149 28.7832 45.5369 32.6721H45.5429Z" fill="white" stroke="#3D3935" stroke-width="2.06414" stroke-linecap="round" stroke-linejoin="round"/>
<path d="M43.1492 48.0698C48.9486 48.0698 53.6499 43.3685 53.6499 37.5691C53.6499 31.7697 48.9486 27.0684 43.1492 27.0684C37.3498 27.0684 32.6484 31.7697 32.6484 37.5691C32.6484 43.3685 37.3498 48.0698 43.1492 48.0698Z" fill="#008EC2" stroke="white" stroke-width="2.06414" stroke-miterlimit="10"/>
</svg>
