<svg width="60" height="60" viewBox="0 0 60 60" fill="none" xmlns="http://www.w3.org/2000/svg">
<rect width="60" height="60" rx="8" fill="white"/>
<rect width="60" height="60" rx="8" stroke="#00ADEF"/>
<path d="M55.3086 31C55.3086 41.4927 44.1156 50 30.31 50C16.5044 50 5.30859 41.4956 5.30859 31" fill="#FFD6D6"/>
<path d="M46.2573 34.8911L45.6513 29.7354L43.9239 15.0404C43.893 14.4885 43.7962 13.9691 43.6469 13.5C43.1347 11.8909 42.0046 10.874 40.8008 11.1659C34.3196 12.7398 27.6553 12.6223 21.002 11.0457C19.4419 10.6768 18.0292 12.5895 17.9336 15.0486L15.7969 35.2463C27.2373 39.9596 37.5438 40.4104 46.2573 34.8938V34.8911Z" fill="white" stroke="#3D3935" stroke-width="1.75" stroke-miterlimit="10"/>
<path d="M53.7724 12.2275C52.1356 10.5908 49.4818 10.5908 47.8451 12.2276L33.0202 27.053C32.5879 27.4852 32.2898 28.0332 32.1617 28.6309L31.019 33.9632C30.9581 34.2475 31.0455 34.5433 31.2511 34.7489C31.4567 34.9545 31.7526 35.0419 32.0369 34.981L37.3693 33.8384C37.9671 33.7103 38.5152 33.4121 38.9475 32.9798L53.7725 18.1543C55.4092 16.5176 55.4091 13.8641 53.7724 12.2275ZM49.0575 13.4398C50.0247 12.4726 51.5929 12.4726 52.5601 13.4398C53.5273 14.4069 53.5273 15.9749 52.5602 16.9421L51.7878 17.7145L48.2852 14.2121L49.0575 13.4398ZM47.0729 15.4245L50.5755 18.9268L37.7351 31.7675C37.5365 31.9662 37.2847 32.1031 37.01 32.162L32.9731 33.027L33.8382 28.9901C33.897 28.7155 34.034 28.4638 34.2325 28.2652L47.0729 15.4245Z" fill="#009ACE"/>
<path fill-rule="evenodd" clip-rule="evenodd" d="M50.5755 18.9268L47.0729 15.4245L34.2325 28.2652C34.034 28.4638 33.897 28.7155 33.8382 28.9901L32.9731 33.027L37.01 32.162C37.2847 32.1031 37.5365 31.9662 37.7351 31.7675L50.5755 18.9268Z" fill="white"/>
<path fill-rule="evenodd" clip-rule="evenodd" d="M52.5601 13.4398C51.5929 12.4726 50.0247 12.4726 49.0575 13.4398L48.2852 14.2121L51.7878 17.7145L52.5602 16.9421C53.5273 15.9749 53.5273 14.4069 52.5601 13.4398Z" fill="white"/>
<path d="M47.4912 11.874C49.3232 10.042 52.2939 10.0421 54.126 11.874C55.9579 13.7059 55.9579 16.6759 54.126 18.5078L39.3008 33.333C38.8003 33.8335 38.1657 34.1789 37.4736 34.3271L32.1416 35.4697C31.6914 35.5662 31.223 35.4281 30.8975 35.1025C30.5719 34.777 30.4338 34.3086 30.5303 33.8584L31.6729 28.5264C31.8211 27.8344 32.1666 27.1996 32.667 26.6992L47.4912 11.874Z" stroke="white" stroke-linejoin="round"/>
</svg>
