<svg width="60" height="60" viewBox="0 0 60 60" fill="none" xmlns="http://www.w3.org/2000/svg">
<rect width="60" height="60" rx="8" fill="white"/>
<rect width="60" height="60" rx="8" stroke="#00ADEF"/>
<path d="M27.2271 22.8068L19.9538 15.5334C19.6778 15.2574 19.3246 15.0854 18.9557 15.0247M9.99967 22.8068L17.3941 15.5334C17.8096 15.0943 18.4003 14.9333 18.9557 15.0247M28.1602 45.683L23.4479 45.6815C20.9669 45.6815 18.9557 43.6702 18.9557 41.1893L18.9557 15.0247" stroke="black" stroke-width="2.3" stroke-linecap="round"/>
<path d="M32.8354 37.8764L40.1087 45.1497C40.3847 45.4257 40.7379 45.5977 41.1068 45.6584M50.0628 37.8764L42.6684 45.1497C42.2529 45.5888 41.6622 45.7498 41.1068 45.6584M31.9023 15.0001L36.6146 15.0017C39.0956 15.0017 41.1068 17.0129 41.1068 19.4938L41.1068 45.6584" stroke="black" stroke-width="2.3" stroke-linecap="round"/>
</svg>
