<svg width="60" height="60" viewBox="0 0 60 60" fill="none" xmlns="http://www.w3.org/2000/svg">
<rect width="60" height="60" rx="8" fill="white"/>
<rect width="60" height="60" rx="8" stroke="#00ADEF"/>
<g clip-path="url(#clip0_4141_129474)">
<path d="M31 45.6673V26H5C5 37.0467 16.6393 46 31 46" fill="#FFD6D6"/>
<path d="M54.5841 25H30V46C43.8084 46 55 36.5991 55 25" fill="#CCCCCC"/>
<path d="M37.9696 28.4248C37.5102 29.1241 36.9662 29.7934 36.2722 30.2889C35.7063 30.6919 35.0704 30.9651 34.4006 31.155C33.7187 31.3519 33.0078 31.4422 32.2969 31.47L29.6903 31.5695L27.0836 31.47C26.3727 31.4422 25.6618 31.3519 24.9799 31.155C24.3101 30.9675 23.6693 30.6919 23.1083 30.2889C22.4144 29.7934 21.8703 29.1241 21.4109 28.4248C20.1438 26.4934 19.254 24.0271 19.6699 21.7369C20.0036 19.9074 21.4133 17.4689 23.6742 17.6704C23.9353 17.6913 24.1795 17.7607 24.1795 17.7607C24.3826 17.8186 24.5664 17.9043 24.7453 17.9969C25.4272 18.3512 26.247 18.7241 27.1997 19.0599C27.2093 19.0622 27.219 19.0668 27.2263 19.0691C28.8173 19.6203 30.5656 19.6203 32.1567 19.0691C32.1663 19.0668 32.176 19.0622 32.1833 19.0599C33.1335 18.7218 33.9533 18.3512 34.6376 17.9969C34.8165 17.9043 35.0003 17.8186 35.2034 17.7607C35.2034 17.7607 35.4476 17.6913 35.7088 17.6704C37.9696 17.4689 39.3818 19.9097 39.713 21.7369C40.129 24.0295 39.2367 26.4934 37.9721 28.4248H37.9696Z" fill="white" stroke="#3D3935" stroke-width="1.75" stroke-miterlimit="10"/>
<path d="M29.6914 19.4808C30.5256 19.4808 31.3623 19.3442 32.1554 19.0686C32.1651 19.064 32.1723 19.0617 32.1844 19.057C33.1323 18.7213 33.9544 18.3484 34.6387 17.9918C34.8177 17.8992 35.0014 17.8135 35.2046 17.7556C35.2046 17.7556 35.4488 17.6861 35.7075 17.6653C37.9708 17.4615 39.3805 19.9046 39.7142 21.7317C40.1301 24.0243 39.2379 26.4883 37.9732 28.4196C37.5138 29.119 36.9697 29.7882 36.2757 30.2838C35.7099 30.6867 35.0716 30.96 34.4018 31.1499C33.7199 31.3444 33.009 31.4371 32.2956 31.4648L29.6914 31.5644" fill="#CCCCCC"/>
<path d="M29.6914 19.4808C30.5256 19.4808 31.3623 19.3442 32.1554 19.0686C32.1651 19.064 32.1723 19.0617 32.1844 19.057C33.1323 18.7213 33.9544 18.3484 34.6387 17.9918C34.8177 17.8992 35.0014 17.8135 35.2046 17.7556C35.2046 17.7556 35.4488 17.6861 35.7075 17.6653C37.9708 17.4615 39.3805 19.9046 39.7142 21.7317C40.1301 24.0243 39.2379 26.4883 37.9732 28.4196C37.5138 29.119 36.9697 29.7882 36.2757 30.2838C35.7099 30.6867 35.0716 30.96 34.4018 31.1499C33.7199 31.3444 33.009 31.4371 32.2956 31.4648L29.6914 31.5644" stroke="#6A6A6A" stroke-width="1.36293" stroke-miterlimit="10" stroke-linecap="round"/>
<path d="M16.4032 28.7661C15.9438 29.4654 15.3997 30.1347 14.7058 30.6302C14.1399 31.0332 13.504 31.3064 12.8342 31.4963C12.1523 31.6932 11.4414 31.7835 10.7305 31.8113L8.12385 31.9109L5.51719 31.8113C4.80629 31.7835 4.09538 31.6932 3.41349 31.4963C2.74369 31.3088 2.10291 31.0332 1.54193 30.6302C0.847947 30.1347 0.303886 29.4654 -0.155542 28.7661C-1.4226 26.8347 -2.31244 24.3685 -1.89653 22.0782C-1.56284 20.2487 -0.153123 17.8102 2.10775 18.0117C2.3689 18.0326 2.61312 18.102 2.61312 18.102C2.81624 18.1599 3.00001 18.2456 3.17894 18.3382C3.86083 18.6925 4.68055 19.0654 5.63326 19.4012C5.64293 19.4035 5.6526 19.4081 5.65986 19.4104C7.25093 19.9616 8.99918 19.9616 10.5903 19.4104C10.5999 19.4081 10.6096 19.4035 10.6168 19.4012C11.5671 19.0631 12.3869 18.6925 13.0712 18.3382C13.2501 18.2456 13.4339 18.1599 13.637 18.102C13.637 18.102 13.8812 18.0326 14.1424 18.0117C16.4032 17.8102 17.8154 20.2511 18.1466 22.0782C18.5625 24.3708 17.6703 26.8347 16.4057 28.7661H16.4032Z" fill="white" stroke="#3D3935" stroke-width="1.75" stroke-miterlimit="10"/>
<path d="M59.4032 28.7661C58.9438 29.4654 58.3997 30.1347 57.7058 30.6302C57.1399 31.0332 56.504 31.3064 55.8342 31.4963C55.1523 31.6932 54.4414 31.7835 53.7305 31.8113L51.1238 31.9109L48.5172 31.8113C47.8063 31.7835 47.0954 31.6932 46.4135 31.4963C45.7437 31.3088 45.1029 31.0332 44.5419 30.6302C43.8479 30.1347 43.3039 29.4654 42.8445 28.7661C41.5774 26.8347 40.6876 24.3685 41.1035 22.0782C41.4372 20.2487 42.8469 17.8102 45.1077 18.0117C45.3689 18.0326 45.6131 18.102 45.6131 18.102C45.8162 18.1599 46 18.2456 46.1789 18.3382C46.8608 18.6925 47.6805 19.0654 48.6333 19.4012C48.6429 19.4035 48.6526 19.4081 48.6599 19.4104C50.2509 19.9616 51.9992 19.9616 53.5903 19.4104C53.5999 19.4081 53.6096 19.4035 53.6168 19.4012C54.5671 19.0631 55.3869 18.6925 56.0712 18.3382C56.2501 18.2456 56.4339 18.1599 56.637 18.102C56.637 18.102 56.8812 18.0326 57.1424 18.0117C59.4032 17.8102 60.8154 20.2511 61.1466 22.0782C61.5625 24.3708 60.6703 26.8347 59.4057 28.7661H59.4032Z" fill="#CCCCCC" stroke="#6A6A6A" stroke-width="1.75" stroke-miterlimit="10"/>
</g>
<defs>
<clipPath id="clip0_4141_129474">
<rect width="50" height="31" fill="white" transform="translate(5 15)"/>
</clipPath>
</defs>
</svg>
