<svg preserveAspectRatio="none" width="100%" height="100%" overflow="visible" style="display: block;" viewBox="0 0 30.6211 32.6911" fill="none" xmlns="http://www.w3.org/2000/svg">
<path id="Border 27" fill-rule="evenodd" clip-rule="evenodd" d="M7.69264 26.9594C0.500004 22.2806 0.500004 20.256 0.500004 14.2329C0.500004 8.66288 0.690319 7.3429 3.63671 3.69982C5.63816 1.92018 5.63816 1.92018 8.62047 1.57109C10.2503 1.2737 10.2503 0.5 13.9037 0.5C18.0663 0.5 19.1586 4.26698 21.8478 7.598C23.3562 9.54565 25.1365 11.3234 26.98 14.2329C28.9355 17.7291 30.1211 21.454 30.1211 24.424C30.032 26.0455 29.6435 27.8463 27.8226 29.7135C25.2842 32.1911 23.5524 32.1911 20.7105 32.1911C13.8307 32.1911 11.6119 29.5216 7.69264 26.9594Z" fill="var(--fill-0, white)" stroke="var(--stroke-0, #8F8F8F)"/>
</svg>
