<svg preserveAspectRatio="none" width="100%" height="100%" overflow="visible" style="display: block;" viewBox="0 0 15.5865 19.8091" fill="none" xmlns="http://www.w3.org/2000/svg">
<path id="Fill 14" fill-rule="evenodd" clip-rule="evenodd" d="M15.5865 19.8091C13.6189 18.2201 10.8746 13.8571 9.21343 13.8571C7.88086 13.9434 6.13914 16.991 4.57757 19.6343C4.96642 17.8723 7.69663 14.3924 6.3255 11.4477C4.28397 8.07531 2.13918 7.44042 0 6.43234C3.05818 7.19874 3.40678 7.63506 4.98427 7.33376C7.08609 6.40096 8.46926 3.7854 10.3275 0C9.581 3.07143 7.03776 7.6429 7.84416 9.78838C8.56673 11.0483 9.50608 11.655 10.4972 11.5679C11.7193 11.4606 13.0496 10.4253 14.5037 9.78838C12.6647 11.1735 11.8704 11.9477 11.9148 13.0902C11.9148 14.5144 14.5037 18.0632 15.5865 19.8091Z" fill="var(--fill-0, #8F8F8F)"/>
</svg>
