<svg width="249" height="389" viewBox="0 0 249 389" fill="none" xmlns="http://www.w3.org/2000/svg">
<path d="M173.901 37.7868C160.391 23.4878 143.743 16.2378 124.411 16.2378C105.079 16.2378 88.4299 23.4881 74.9211 37.789C39.4836 75.3027 34.4352 151.994 33.7762 178.756C33.6529 183.761 37.7435 187.754 42.7516 187.754H86.5004V158.253C86.5004 147.208 95.4547 138.253 106.5 138.253H147C158.046 138.253 167 147.208 167 158.253V187.754H206.065C211.076 187.754 215.168 183.759 215.044 178.751C214.382 151.984 209.333 75.2921 173.901 37.7868Z" fill="#FFF0F3"/>
<path d="M176.765 21.2217C176.765 23.2511 176.08 24.9418 175.103 26.416C176.143 26.0832 177.137 26.0524 178.121 26.0117L178.247 26.0068L178.261 26.0059H178.274C180.411 25.9557 182.077 26.0392 183.473 26.4824C184.952 26.9521 186.006 27.7825 187.014 28.9531L187.09 29.041L187.15 29.1396C187.431 29.5909 187.748 30.009 188.171 30.6094C188.572 31.1786 189.014 31.8425 189.418 32.6377C190.242 34.2584 190.853 36.3192 190.854 39.2393C190.854 41.1706 190.443 42.7027 189.654 44.0918C189.282 44.7477 188.831 45.3549 188.331 45.9434C188.593 45.9159 188.86 45.8994 189.134 45.8994C190.816 45.8994 191.907 46.0568 192.869 46.4248C193.336 46.6033 193.733 46.8164 194.1 47.0244C194.483 47.2421 194.807 47.4373 195.252 47.6729H195.251C196.965 48.5209 198.49 49.5499 199.483 51.1885C200.481 52.833 200.813 54.8721 200.624 57.4766C200.624 59.9424 200.644 62.155 199.768 64.1543C199.252 65.33 198.463 66.3681 197.333 67.3701C197.765 67.3441 198.207 67.3311 198.663 67.3311C200.491 67.3311 202.953 68.3004 204.94 70.1592C206.986 72.072 208.602 74.9874 208.602 78.9424C208.602 81.8406 208.389 84.011 207.529 85.8613C207.018 86.9617 206.306 87.8837 205.398 88.7598C208.157 88.7637 210.373 89.5551 212.077 91.0596C214.466 93.1676 215.522 96.4037 215.955 99.7529C216.664 102.072 217.37 103.327 218.039 105.05C218.708 106.773 219.13 108.549 218.969 111.293C218.753 115.047 217.491 117.687 215.671 119.677C214.613 120.833 213.387 121.741 212.154 122.515C212.94 122.466 213.778 122.441 214.684 122.441C217.291 122.441 219.364 123.621 220.947 125.344C222.502 127.035 223.618 129.277 224.429 131.569C226.051 136.158 226.594 141.373 226.719 144.072L226.722 144.133L226.72 144.194C226.6 147.609 225.906 150.349 223.772 152.631C223.074 153.378 222.237 154.052 221.255 154.684C221.367 154.696 221.479 154.707 221.59 154.722C224.092 155.046 226.315 156.014 227.767 157.862C228.814 158.899 229.652 160.527 230.235 162.584C230.843 164.725 231.212 167.454 231.212 170.763C231.212 177.151 230.445 182.753 226.522 186.163L226.446 186.229L226.361 186.284C225.207 187.042 223.797 188.072 221.477 188.786C219.171 189.495 216.05 189.876 211.355 189.605L211.352 189.604C210.441 189.55 209.504 189.468 208.581 189.307C207.637 189.586 206.633 189.737 205.602 189.737H168.499C167.118 189.737 165.999 188.618 165.999 187.237V159.238C165.999 148.469 157.269 139.738 146.499 139.738H107.499C96.7296 139.738 87.999 148.469 87.999 159.238V187.237C87.999 188.618 86.8797 189.737 85.499 189.737H43.3418C42.1058 189.737 40.9158 189.527 39.8047 189.127C38.5965 189.408 37.3307 189.535 36.1104 189.604C31.4159 189.875 28.2955 189.495 25.9902 188.786C23.6698 188.072 22.259 187.042 21.1045 186.284L21.0205 186.229L20.9434 186.163C17.0199 182.752 16.2617 177.149 16.2617 170.763C16.2617 167.455 16.6283 164.726 17.2334 162.585C17.813 160.535 18.6449 158.91 19.6885 157.872C21.2031 155.936 23.5602 154.965 26.207 154.682C25.3094 154.104 24.5349 153.491 23.877 152.82C21.6051 150.504 20.8749 147.71 20.7549 144.192L20.752 144.134L20.7549 144.074C20.8755 141.374 21.4178 136.159 23.0391 131.57C23.8491 129.278 24.9643 127.035 26.5186 125.344C28.1021 123.621 30.1754 122.442 32.7822 122.441C33.6935 122.441 34.5364 122.469 35.3242 122.519C34.3138 121.884 33.3154 121.166 32.4229 120.314C30.3526 118.338 28.8368 115.661 28.5244 111.681L28.4971 111.291C28.3396 108.548 28.7624 106.773 29.4297 105.051C30.0976 103.327 30.8026 102.071 31.5117 99.748C31.9656 96.2376 33.1082 92.8424 35.7568 90.752C37.4157 89.4427 39.5089 88.7624 42.0654 88.7588C41.159 87.8832 40.4487 86.961 39.9375 85.8613C39.0774 84.011 38.8652 81.8407 38.8652 78.9424C38.8652 74.9867 40.4822 72.0706 42.5283 70.1582C44.5164 68.3 46.9788 67.3311 48.8037 67.3311C49.2629 67.3311 49.7075 67.3433 50.1406 67.3701C49.1322 66.4773 48.3934 65.5585 47.8799 64.5391C46.8142 62.4235 46.8406 60.0901 46.8408 57.4629C46.6545 54.865 46.9869 52.8302 47.9824 51.1885C48.9759 49.5502 50.5001 48.5209 52.2139 47.6729C52.6595 47.4368 52.984 47.2415 53.3691 47.0234C53.7365 46.8154 54.1339 46.603 54.6006 46.4248C55.5632 46.0572 56.653 45.8994 58.332 45.8994C58.6051 45.8994 58.8722 45.913 59.1338 45.9404C58.6342 45.3536 58.1857 44.7469 57.8135 44.0928C57.023 42.7033 56.6123 41.1706 56.6123 39.2393C56.6123 36.3193 57.2241 34.2584 58.0479 32.6377C58.4521 31.8424 58.8952 31.1787 59.2959 30.6094C59.7185 30.009 60.0349 29.5908 60.3154 29.1396L60.3779 29.04L60.4541 28.9512C61.4638 27.7826 62.5175 26.9521 63.9951 26.4824C65.3906 26.0389 67.0554 25.9556 69.1924 26.0059H69.2061L69.2188 26.0068C70.3408 26.0536 71.4771 26.0745 72.666 26.5205C71.6514 25.0222 70.9366 23.2987 70.9365 21.2217V21.1123L70.9521 21.0049C71.3571 18.2312 72.3717 16.52 73.7959 15.2842C74.4694 14.6998 75.1964 14.2553 75.875 13.8682C76.5895 13.4606 77.1999 13.1423 77.8525 12.7285L77.9131 12.6904L77.9775 12.6572C79.3269 11.9737 80.5796 11.239 82.1348 10.7324C83.7405 10.2094 85.6449 9.92383 88.5029 9.92383C90.9413 9.92384 92.881 10.1585 94.2305 11.3877C94.2318 10.6878 94.2315 9.96002 94.4072 9.29785C94.6394 8.42314 95.1309 7.73925 95.835 6.98145L95.9062 6.9043L95.9883 6.83789C99.8971 3.66664 105.3 0.955715 112.764 1.59375L112.763 1.59473C117.117 1.9646 119.845 2.39627 121.562 3.06348C122.455 3.41016 123.175 3.85606 123.714 4.47461C123.793 4.56591 123.866 4.65949 123.934 4.75293C124.001 4.65949 124.074 4.56591 124.153 4.47461C124.692 3.85613 125.412 3.41021 126.304 3.06348C128.021 2.3962 130.746 1.96362 135.097 1.59375L135.791 1.54395C142.675 1.1394 147.756 3.59826 151.509 6.54199L151.879 6.83789L151.961 6.9043L152.033 6.98145C152.737 7.7392 153.229 8.42319 153.461 9.29785C153.625 9.91452 153.635 10.5882 153.637 11.2432C154.977 10.1396 156.858 9.92383 159.198 9.92383C162.06 9.92383 163.964 10.2092 165.569 10.7324C166.735 11.1123 167.73 11.621 168.724 12.1396L169.724 12.6572L169.788 12.6904L169.849 12.7285C170.501 13.1421 171.111 13.4607 171.826 13.8682C172.505 14.2552 173.233 14.6997 173.907 15.2842C175.333 16.5203 176.348 18.2318 176.749 21.0068L176.765 21.1133V21.2217Z" stroke="#009ACE" stroke-width="3"/>
<path d="M113.26 3.08742C106.226 2.49516 101.166 4.99881 97.4517 7.98204C96.1652 9.35447 96.2528 9.84103 96.2394 11.6695C96.2167 14.7406 96.5284 16.4135 98.9409 22.3899C101.353 28.3662 106.609 32.7091 111.806 32.6054C117.004 32.5017 120.373 26.1263 121.916 22.2545C123.638 17.4795 124.386 8.73733 123.899 6.7538C123.412 4.77026 122.052 3.82773 113.26 3.08742Z" fill="white" stroke="#8F8F8F"/>
<path fill-rule="evenodd" clip-rule="evenodd" d="M98.7109 12.0099C98.7109 12.0099 102.664 8.63482 108.037 7.62864C113.01 7.01211 119.873 8.918 119.873 8.918C119.873 8.918 112.629 8.15554 108.437 8.53693C103.734 9.4175 98.7109 12.0099 98.7109 12.0099Z" fill="#8F8F8F"/>
<path fill-rule="evenodd" clip-rule="evenodd" d="M20.8393 158.226C19.2009 159.771 17.7604 163.695 17.7604 170.074C17.7604 176.452 18.5729 181.37 21.9565 184.282C24.3515 185.837 26.9242 187.875 36.145 187.352C39.6558 187.153 42.9746 186.487 44.6734 183.536C47.9253 177.056 51.7358 164.653 41.9066 159.229C32.7712 154.774 24.0316 154.051 20.8393 158.226Z" fill="white" stroke="#8F8F8F"/>
<path fill-rule="evenodd" clip-rule="evenodd" d="M26.8479 170.351C28.1625 170.649 29.3763 171.215 29.7474 172.076C30.2801 173.313 29.6602 175.129 30.0491 177.376C30.428 175.471 31.0179 171.522 31.8409 171.036C32.6146 170.351 33.3588 170.351 35.7891 171.844C34.0501 169.656 33.896 168.939 34.7894 162.344C33.5676 165.582 33.1099 168.371 31.6617 169.656C30.6136 170.586 28.8491 170.488 26.8479 170.351Z" fill="#8F8F8F"/>
<path fill-rule="evenodd" clip-rule="evenodd" d="M32.8867 123.442C24.4262 123.442 22.5288 138.327 22.285 143.561C22.5211 150.195 25.0181 152.961 35.1038 156.245C40.2866 157.212 46.5556 159.786 51.1656 150.844C52.7405 144.997 53.6836 142.382 53.6836 136.647C53.1679 133.025 50.4002 129.963 47.3204 127.822C42.4524 124.931 40.0031 123.442 32.8867 123.442Z" fill="white" stroke="#8F8F8F"/>
<path fill-rule="evenodd" clip-rule="evenodd" d="M32.9356 138.828C34.2502 139.126 36.8595 140.173 36.8595 141.453C36.8595 142.817 35.4114 144.255 35.252 146.471C36.5251 144.714 37.0076 143.431 38.036 143.431C38.6889 143.317 39.1296 143.47 40.4979 144.352C39.6795 143.076 38.1586 141.701 38.3033 140.177C38.3033 138.476 40.6473 136.106 42.2812 132.582C38.7967 136.46 38.4354 139.047 32.9356 138.828Z" fill="#8F8F8F"/>
<path fill-rule="evenodd" clip-rule="evenodd" d="M33.0805 99.6884C31.6057 104.544 29.7841 105.767 30.0767 110.765C30.5718 119.222 36.8561 120.844 41.4059 123.7C47.7681 127.695 53.4136 128.835 56.4192 126.129C62.3319 120.808 60.0417 114.213 63.6127 106.986C65.9646 100.599 60.2402 95.379 52.9439 92.7474C38.5372 86.3016 34.0736 91.7509 33.0805 99.6884Z" fill="white" stroke="#8F8F8F"/>
<path fill-rule="evenodd" clip-rule="evenodd" d="M41.4526 113.727C42.9527 112.516 45.0451 109.19 46.3115 109.19C47.3275 109.256 48.6554 111.579 49.8459 113.594C49.5495 112.251 47.4679 109.598 48.5133 107.354C50.0698 104.783 51.705 104.299 53.3359 103.53C51.0043 104.115 50.7386 104.447 49.5359 104.217C47.9334 103.506 46.8789 101.513 45.4621 98.627C46.0313 100.968 47.9703 104.453 47.3555 106.089C46.8046 107.049 46.0884 107.512 45.3328 107.445C44.401 107.363 43.3868 106.574 42.2781 106.089C43.6802 107.144 44.2858 107.735 44.2519 108.606C44.2519 109.691 42.2781 112.396 41.4526 113.727Z" fill="#8F8F8F"/>
<path fill-rule="evenodd" clip-rule="evenodd" d="M83.1701 36.1261C80.6488 33.4123 78.6715 30.7689 75.7865 27.4358C74.0759 25.5998 72.8008 23.6511 72.8008 21.1436C73.5197 16.235 76.279 15.6973 79.0591 13.9514C81.9809 12.4829 83.4158 11.3853 88.9699 11.3853C94.937 11.3853 94.727 12.9381 96.0594 20.3307C96.6495 24.9909 96.7792 25.8791 96.997 30.6329C97.0601 35.5609 96.7637 36.7777 94.937 39.2365C91.118 42.6855 87.8604 41.3282 83.1701 36.1261Z" fill="white" stroke="#8F8F8F"/>
<path fill-rule="evenodd" clip-rule="evenodd" d="M76.6133 23.3247C76.6133 23.3247 79.1089 19.3498 83.2636 17.1755C86.2853 15.9654 91.99 16.25 91.99 16.25C91.99 16.25 87.1151 17.1482 83.7254 18.1099C80.0893 20.0128 76.6133 23.3247 76.6133 23.3247Z" fill="#8F8F8F"/>
<path fill-rule="evenodd" clip-rule="evenodd" d="M69.4946 52.6523C67.7088 51.369 63.3857 47.5066 62.1869 46.5072C59.8015 44.1565 58.3789 42.4686 58.3789 39.0916C58.3789 33.7309 60.6297 31.8128 61.8749 29.8234C63.6575 27.7817 65.2317 27.308 69.4946 27.4055C71.8948 27.5011 73.0528 27.5011 75.8111 30.2227C78.0702 32.4518 79.7639 34.3071 81.8638 37.8676C83.3899 41.8593 84.9947 43.7191 84.9947 48.6283C84.8499 51.2658 84.3318 55.9003 79.1836 56.2732C76.0827 56.4979 73.2747 54.9561 69.4946 52.6523Z" fill="white" stroke="#8F8F8F"/>
<path fill-rule="evenodd" clip-rule="evenodd" d="M60.9648 41.7152C61.5709 40.4689 62.1256 38.6083 64.0772 37.1473C63.6193 38.1433 62.5842 39.5411 62.521 41.2657C62.4736 42.5598 63.2892 44.1189 63.5657 45.3841C62.1293 44.2043 61.4532 43.3004 60.9648 41.7152ZM72.6513 30.5444C73.9443 31.0402 74.8436 31.8185 75.8325 33.3264C74.8432 32.9715 74.0185 31.9343 72.6513 31.8291C71.5246 31.7425 69.9511 32.4445 68.2956 33.3264C69.6398 31.7963 70.9697 30.9712 72.6513 30.5444Z" fill="#8F8F8F"/>
<path fill-rule="evenodd" clip-rule="evenodd" d="M56.6259 69.3318C48.5435 65.1784 48.5435 62.911 48.5435 57.2014C48.1683 52.2947 49.865 50.4115 53.1517 48.8095C55.0427 47.8158 55.3945 47.2129 58.6018 47.2129C61.8134 47.2129 64.1044 49.5801 68.5699 53.3583C72.7676 57.6387 74.391 60.1266 74.391 64.8812C74.391 67.2305 73.7911 68.8239 70.8522 71.1993C67.1964 73.2059 61.7132 72.2993 56.6259 69.3318Z" fill="white" stroke="#8F8F8F"/>
<path fill-rule="evenodd" clip-rule="evenodd" d="M59 64.8791C62.7011 61.9189 64.5909 58.6177 64.7912 55.3521C64.9419 58.1701 64.9419 58.5211 66.3991 58.8047C65.4199 59.0129 63.0247 60.0019 61.9504 65.8531C61.7626 63.6274 61.4324 63.9802 59 64.8791Z" fill="#8F8F8F"/>
<path fill-rule="evenodd" clip-rule="evenodd" d="M45.3748 89.0406C41.4011 86.1434 40.5156 84.3369 40.5156 78.6273C40.5156 71.6413 46.2389 68.5576 49.0104 68.5576C53.424 68.5576 56.0885 69.7625 60.5539 73.5407C66.0007 77.4274 67.9507 81.1403 67.4882 85.5563C67.0398 89.0406 65.1874 90.5596 63.0133 91.6354C56.5944 93.2833 49.8832 91.4256 45.3748 89.0406Z" fill="white" stroke="#8F8F8F"/>
<path fill-rule="evenodd" clip-rule="evenodd" d="M52.8555 85.7551C55.793 82.7772 56.3107 80.8366 55.837 76.2793C57.0051 79.0568 57.0127 78.714 58.4972 78.714C57.6439 79.4733 55.4958 80.7914 55.837 87.1865C55.1266 85.0697 55.1266 84.0832 52.8555 85.7551Z" fill="#8F8F8F"/>
<path d="M135.998 3.08742C143.032 2.49516 148.092 4.99881 151.806 7.98204C153.093 9.35447 153.005 9.84103 153.018 11.6695C153.041 14.7406 152.729 16.4135 150.317 22.3899C147.904 28.3662 142.649 32.7091 137.451 32.6054C132.254 32.5017 128.884 26.1263 127.342 22.2545C125.62 17.4795 124.872 8.73733 125.359 6.7538C125.845 4.77026 127.206 3.82773 135.998 3.08742Z" fill="white" stroke="#8F8F8F"/>
<path fill-rule="evenodd" clip-rule="evenodd" d="M150.371 12.0104C150.371 12.0104 146.418 8.63531 141.045 7.62913C136.072 7.01259 129.209 8.91849 129.209 8.91849C129.209 8.91849 136.453 8.15603 140.645 8.53742C145.348 9.41799 150.371 12.0104 150.371 12.0104Z" fill="#8F8F8F"/>
<path d="M220.36 154.714L220.378 155.464C222.517 155.414 224.385 155.742 225.851 156.476L225.852 156.475L226.188 155.804C227.135 156.278 227.947 156.917 228.579 157.73C229.257 158.388 229.863 159.348 230.359 160.574L229.664 160.855H229.662C230.276 162.371 230.752 164.399 230.968 166.948H230.97L231.717 166.886C231.8 167.875 231.845 168.938 231.845 170.074L231.839 171.052C231.834 171.374 231.827 171.693 231.817 172.008L231.067 171.985L231.064 171.984C231.024 173.33 230.936 174.602 230.778 175.793L230.779 175.794L231.523 175.892C231.341 177.274 231.066 178.568 230.668 179.757L229.957 179.519L229.955 179.518C229.53 180.788 228.96 181.917 228.208 182.895L228.21 182.896L228.804 183.354C228.386 183.896 227.916 184.396 227.388 184.851L227.35 184.884L227.308 184.911C226.408 185.495 225.395 186.21 223.976 186.811L223.684 186.12L223.683 186.118C222.058 186.805 219.855 187.343 216.422 187.424L216.423 187.426L216.44 188.175C215.596 188.195 214.682 188.189 213.688 188.15L212.668 188.102C211.826 188.054 210.983 187.979 210.164 187.852L210.279 187.11V187.107C208.575 186.842 207.009 186.345 205.77 185.373V185.374L205.307 185.964C204.701 185.489 204.165 184.912 203.718 184.216L203.532 183.91L203.521 183.892L203.512 183.872C203.188 183.226 202.858 182.523 202.537 181.774L203.227 181.479V181.478C202.666 180.173 202.133 178.727 201.697 177.208L201.694 177.209L200.974 177.415C200.553 175.948 200.22 174.406 200.043 172.85L200.788 172.765V172.764C200.615 171.243 200.598 169.715 200.797 168.236H200.796L200.053 168.137C200.266 166.554 200.719 165.008 201.493 163.575L202.153 163.932H202.154C202.839 162.664 203.788 161.498 205.058 160.486L205.057 160.484L204.589 159.898C205.189 159.42 205.854 158.977 206.587 158.572L206.604 158.562L206.62 158.555C207.492 158.13 208.36 157.738 209.222 157.38L209.508 158.072C211.333 157.315 213.122 156.717 214.832 156.284V156.282L214.647 155.555C216.667 155.043 218.594 154.755 220.36 154.714Z" fill="white" fill-opacity="0.5" stroke="#8F8F8F" stroke-width="1.5" stroke-dasharray="5 5"/>
<path fill-rule="evenodd" clip-rule="evenodd" d="M215.969 123.442C224.429 123.442 226.327 138.327 226.57 143.561C226.334 150.195 223.837 152.961 213.752 156.245C208.569 157.212 202.3 159.786 197.69 150.844C196.115 144.997 195.172 142.382 195.172 136.647C195.688 133.025 198.455 129.963 201.535 127.822C206.403 124.931 208.852 123.442 215.969 123.442Z" fill="#8ADAFF" stroke="#0080B2"/>
<path fill-rule="evenodd" clip-rule="evenodd" d="M215.92 138.828C214.605 139.126 211.996 140.173 211.996 141.453C211.996 142.817 213.444 144.255 213.603 146.471C212.33 144.714 211.848 143.431 210.819 143.431C210.167 143.317 209.726 143.47 208.358 144.352C209.176 143.076 210.697 141.701 210.552 140.177C210.552 138.476 208.208 136.106 206.574 132.582C210.059 136.46 210.42 139.047 215.92 138.828Z" fill="#0080B2"/>
<path d="M206.332 89.1548L206.346 89.9038V89.9048C208.02 89.8733 209.42 90.1527 210.586 90.6851L210.897 90.0034C212.417 90.6975 213.573 91.7792 214.434 93.1157L213.803 93.521C214.542 94.6692 215.056 96.0376 215.401 97.5454H215.402L216.134 97.3784C216.293 98.0721 216.416 98.7906 216.51 99.5259C216.816 100.527 217.138 101.371 217.453 102.128L216.762 102.416C217.602 104.434 218.382 105.827 218.681 107.87H218.682L219.424 107.761L219.468 108.098C219.562 108.898 219.587 109.783 219.527 110.809C219.478 111.658 219.372 112.447 219.215 113.181L218.481 113.025L218.48 113.024C218.122 114.703 217.49 116.053 216.679 117.177L216.68 117.178L217.288 117.617C216.301 118.984 215.077 120.026 213.788 120.898L213.367 120.276C212.1 121.133 210.737 121.844 209.424 122.561L209.783 123.219C209.108 123.588 208.46 123.952 207.849 124.335C207.251 124.711 206.659 125.062 206.073 125.388L205.708 124.733L205.707 124.732C204.447 125.434 203.223 126.012 202.052 126.463L202.053 126.466L202.322 127.166C200.897 127.715 199.529 128.085 198.249 128.251L198.151 127.507C196.648 127.703 195.302 127.597 194.159 127.167L194.158 127.169L193.894 127.872C193.259 127.632 192.676 127.302 192.154 126.875L191.935 126.687C191.209 126.034 190.597 125.359 190.078 124.664L190.679 124.214V124.213C189.574 122.734 188.927 121.172 188.477 119.538L188.476 119.539L187.752 119.737C187.29 118.06 187.03 116.302 186.725 114.568L187.461 114.438C187.173 112.803 186.833 111.116 186.238 109.387L185.532 109.631C185.335 109.058 185.108 108.481 184.846 107.9L184.57 107.318L184.553 107.282L184.539 107.245C184.21 106.352 184.025 105.471 183.973 104.608L184.721 104.563L184.722 104.562C184.619 102.869 185.082 101.282 185.967 99.8306H185.966L185.326 99.4399C186.194 98.0172 187.425 96.7389 188.886 95.6226L189.342 96.2183L189.343 96.2192C190.596 95.2613 192.044 94.4134 193.61 93.6909V93.689L193.297 93.0083C194.055 92.6585 194.839 92.337 195.641 92.0474C196.331 91.7389 197 91.4569 197.648 91.2007L197.925 91.8979C199.414 91.3094 200.785 90.8609 202.047 90.5396L201.862 89.812C203.509 89.3926 204.995 89.18 206.332 89.1548Z" fill="white" fill-opacity="0.5" stroke="#8F8F8F" stroke-width="1.5" stroke-dasharray="5 5"/>
<path fill-rule="evenodd" clip-rule="evenodd" d="M165.924 36.1261C168.445 33.4123 170.422 30.7689 173.307 27.4358C175.018 25.5998 176.293 23.6511 176.293 21.1436C175.574 16.235 172.815 15.6973 170.035 13.9514C167.113 12.4829 165.678 11.3853 160.124 11.3853C154.157 11.3853 154.367 12.9381 153.034 20.3307C152.444 24.9909 152.315 25.8791 152.097 30.6329C152.034 35.5609 152.33 36.7777 154.157 39.2365C157.976 42.6855 161.233 41.3282 165.924 36.1261Z" fill="white" stroke="#8F8F8F"/>
<path fill-rule="evenodd" clip-rule="evenodd" d="M172.477 23.3242C172.477 23.3242 169.981 19.3493 165.826 17.175C162.805 15.965 157.1 16.2495 157.1 16.2495C157.1 16.2495 161.975 17.1477 165.364 18.1094C169.001 20.0123 172.477 23.3242 172.477 23.3242Z" fill="#8F8F8F"/>
<path fill-rule="evenodd" clip-rule="evenodd" d="M179.361 52.6523C181.147 51.369 185.47 47.5066 186.669 46.5072C189.054 44.1565 190.477 42.4686 190.477 39.0916C190.477 33.7309 188.226 31.8128 186.981 29.8234C185.198 27.7817 183.624 27.308 179.361 27.4055C176.961 27.5011 175.803 27.5011 173.044 30.2227C170.785 32.4518 169.092 34.3071 166.992 37.8676C165.466 41.8593 163.861 43.7191 163.861 48.6283C164.006 51.2658 164.524 55.9003 169.672 56.2732C172.773 56.4979 175.581 54.9561 179.361 52.6523Z" fill="white" stroke="#8F8F8F"/>
<path fill-rule="evenodd" clip-rule="evenodd" d="M187.891 41.7152C187.285 40.4689 186.73 38.6083 184.778 37.1473C185.236 38.1433 186.271 39.5411 186.334 41.2657C186.382 42.5598 185.566 44.1189 185.29 45.3841C186.726 44.2043 187.402 43.3004 187.891 41.7152ZM176.204 30.5444C174.911 31.0402 174.012 31.8185 173.023 33.3264C174.012 32.9715 174.837 31.9343 176.204 31.8291C177.331 31.7425 178.904 32.4445 180.56 33.3264C179.216 31.7963 177.886 30.9712 176.204 30.5444Z" fill="#8F8F8F"/>
<path fill-rule="evenodd" clip-rule="evenodd" d="M192.23 69.3318C200.312 65.1784 200.312 62.911 200.312 57.2014C200.687 52.2947 198.99 50.4115 195.704 48.8095C193.813 47.8158 193.461 47.2129 190.254 47.2129C187.042 47.2129 184.751 49.5801 180.286 53.3583C176.088 57.6387 174.464 60.1266 174.464 64.8812C174.464 67.2305 175.064 68.8239 178.003 71.1993C181.659 73.2059 187.142 72.2993 192.23 69.3318Z" fill="#8ADAFF" stroke="#0080B2"/>
<path fill-rule="evenodd" clip-rule="evenodd" d="M189.855 64.8791C186.154 61.9189 184.265 58.6177 184.064 55.3521C183.914 58.1701 183.914 58.5211 182.456 58.8047C183.436 59.0129 185.831 60.0019 186.905 65.8531C187.093 63.6274 187.423 63.9802 189.855 64.8791Z" fill="#0080B2"/>
<path fill-rule="evenodd" clip-rule="evenodd" d="M203.485 89.0406C207.458 86.1434 208.344 84.3369 208.344 78.6273C208.344 71.6413 202.62 68.5576 199.849 68.5576C195.435 68.5576 192.771 69.7625 188.305 73.5407C182.859 77.4274 180.909 81.1403 181.371 85.5563C181.82 89.0406 183.672 90.5596 185.846 91.6354C192.265 93.2833 198.976 91.4256 203.485 89.0406Z" fill="#8ADAFF" stroke="#0080B2"/>
<path fill-rule="evenodd" clip-rule="evenodd" d="M196.004 85.7551C193.066 82.7772 192.549 80.8366 193.022 76.2793C191.854 79.0568 191.847 78.714 190.362 78.714C191.216 79.4733 193.364 80.7914 193.022 87.1865C193.733 85.0697 193.733 84.0832 196.004 85.7551Z" fill="#0080B2"/>
<rect x="94.5" y="148.738" width="64" height="69" rx="17.5" fill="#FFF0F3"/>
<rect x="94.5" y="148.738" width="64" height="69" rx="17.5" stroke="#8E8E8E"/>
<path fill-rule="evenodd" clip-rule="evenodd" d="M98.0385 193.242C97.4035 190.136 97.9088 189.607 99.4122 188.035C100.802 186.581 101.18 186.287 102.827 186.108C103.773 186.168 103.773 186.168 104.608 186.859C105.091 187.208 105.284 187.006 106.199 187.964C107.243 189.055 106.576 190.324 106.419 191.899C106.311 192.802 106.313 193.733 106.049 194.975C105.667 196.4 105.034 197.683 104.293 198.459C103.866 198.858 103.319 199.227 102.396 199.237C101.142 199.218 100.708 198.764 99.9955 198.019C98.2711 196.216 98.3813 194.938 98.0385 193.242Z" fill="white" stroke="black" stroke-opacity="0.445"/>
<path fill-rule="evenodd" clip-rule="evenodd" d="M155.547 193.242C156.182 190.136 155.677 189.607 154.174 188.035C152.784 186.581 152.406 186.287 150.759 186.108C149.813 186.168 149.813 186.168 148.978 186.859C148.495 187.208 148.302 187.006 147.387 187.964C146.343 189.055 147.01 190.324 147.167 191.899C147.275 192.802 147.273 193.733 147.537 194.975C147.919 196.4 148.552 197.683 149.293 198.459C149.72 198.858 150.267 199.227 151.189 199.237C152.444 199.218 152.878 198.764 153.59 198.019C155.315 196.216 155.205 194.938 155.547 193.242Z" fill="white" stroke="black" stroke-opacity="0.445"/>
<path fill-rule="evenodd" clip-rule="evenodd" d="M107.794 195.091C107.458 192.991 106.83 190.515 107.665 189.002C108.4 187.67 108.4 187.67 110.946 187.438C112.567 187.539 114.786 187.851 115.771 188.446C116.464 188.864 116.971 189.488 116.852 191.004C116.713 192.776 115.583 195.561 115 196.74C113.807 198.965 113.138 198.967 112.554 199.275C111.722 199.616 111.148 199.533 110.024 198.854C108.887 198.167 108.184 196.988 107.794 195.091Z" fill="white" stroke="black" stroke-opacity="0.445"/>
<path fill-rule="evenodd" clip-rule="evenodd" d="M121.903 188.317C123.607 188.422 125.532 188.569 125.907 189.128C126.41 189.832 126.421 191.359 126.222 193.214C125.673 196.726 125.413 196.917 124.963 197.899C124.059 199.693 123.54 200.427 121.425 200.178C119.664 199.97 118.771 198.607 118.413 197.999C117.933 197.211 117.525 195.706 117.284 193.911C117.18 192.232 117.189 189.196 117.832 188.823C118.52 188.426 120.147 188.255 121.903 188.317Z" fill="white" stroke="black" stroke-opacity="0.445"/>
<path fill-rule="evenodd" clip-rule="evenodd" d="M131.491 188.212C129.786 188.276 127.858 188.377 127.471 188.927C126.952 189.618 126.907 191.145 127.066 193.004C127.536 196.528 127.792 196.726 128.22 197.718C129.085 199.534 129.587 200.279 131.707 200.082C133.472 199.917 134.395 198.576 134.766 197.977C135.263 197.2 135.705 195.706 135.985 193.917C136.127 192.241 136.185 189.206 135.551 188.817C134.871 188.404 133.248 188.194 131.491 188.212Z" fill="white" stroke="black" stroke-opacity="0.445"/>
<path fill-rule="evenodd" clip-rule="evenodd" d="M145.792 194.619C146.128 192.52 146.756 190.044 145.921 188.531C145.185 187.199 145.185 187.199 142.64 186.967C141.019 187.068 138.8 187.38 137.815 187.974C137.122 188.393 136.615 189.017 136.734 190.533C136.873 192.304 138.003 195.089 138.586 196.268C139.779 198.494 140.448 198.496 141.032 198.804C141.864 199.145 142.437 199.061 143.562 198.383C144.699 197.696 145.402 196.517 145.792 194.619Z" fill="white" stroke="black" stroke-opacity="0.445"/>
<path fill-rule="evenodd" clip-rule="evenodd" d="M143.714 173.404C143.26 175.488 143.046 177.38 142.59 179.879C142.281 181.29 142.21 182.632 142.903 183.886C144.601 186.135 146.067 185.608 147.876 185.681C149.676 185.573 150.664 185.709 153.314 184.109C156.162 182.389 155.633 181.673 154.227 177.591C153.222 175.09 153.038 174.609 151.829 172.168C150.499 169.685 150.021 169.162 148.47 168.458C145.695 167.833 144.515 169.451 143.714 173.404Z" fill="white" stroke="black" stroke-opacity="0.445"/>
<path fill-rule="evenodd" clip-rule="evenodd" d="M109.349 172.466C110.133 174.44 110.65 176.267 111.504 178.649C112.037 179.985 112.323 181.295 111.843 182.654C110.533 185.17 109.003 184.911 107.232 185.302C105.441 185.514 104.489 185.823 101.618 184.714C98.5329 183.523 98.9386 182.724 99.664 178.452C100.25 175.809 100.353 175.302 101.15 172.683C102.06 170 102.446 169.4 103.861 168.432C106.495 167.326 107.919 168.711 109.349 172.466Z" fill="white" stroke="black" stroke-opacity="0.445"/>
<path d="M115.628 186.633C119.885 187.622 123.188 186.459 125.708 184.872C126.608 184.106 126.595 183.787 126.754 182.618C127.021 180.655 126.968 179.558 125.984 175.525C125 171.492 122.141 168.258 118.951 167.874C115.761 167.489 113.173 171.276 111.909 173.619C110.462 176.525 109.283 182.053 109.418 183.364C109.552 184.675 110.307 185.396 115.628 186.633Z" fill="white" stroke="black" stroke-opacity="0.445"/>
<path d="M138.751 186.733C134.494 187.722 131.191 186.559 128.671 184.973C127.771 184.206 127.784 183.887 127.625 182.719C127.358 180.756 127.411 179.658 128.395 175.626C129.379 171.593 132.238 168.358 135.428 167.974C138.618 167.59 141.206 171.376 142.469 173.72C143.917 176.625 145.096 182.154 144.961 183.465C144.827 184.776 144.072 185.497 138.751 186.733Z" fill="white" stroke="black" stroke-opacity="0.445"/>
<path d="M123.612 366.289C103.88 366.289 86.8868 359.302 73.0985 345.52C38.3008 310.741 32.2111 241.018 31.1999 212.812C30.9647 206.25 36.2958 201 42.8614 201H57.8692C64.4967 201 69.9077 206.372 70.225 212.992C71.7639 245.101 79.9601 330.606 123.612 330.606C167.263 330.606 175.46 245.101 176.998 212.992C177.316 206.372 182.727 201 189.354 201H204.356C210.924 201 216.257 206.254 216.022 212.818C215.008 241.03 208.917 310.751 174.125 345.522C160.336 359.302 143.344 366.289 123.612 366.289Z" fill="#FFF0F3" stroke="#8F8F8F"/>
<path fill-rule="evenodd" clip-rule="evenodd" d="M21.6973 230.226C24.9557 234.398 33.8761 233.675 43.2004 229.224C53.2329 223.804 49.3436 211.411 46.0244 204.936C44.2905 201.987 40.903 201.321 37.3196 201.122C27.9081 200.599 25.2822 202.636 22.8377 204.19C19.384 207.099 18.5547 212.014 18.5547 218.387C18.5547 224.761 20.025 228.682 21.6973 230.226Z" fill="white" stroke="#8F8F8F"/>
<path fill-rule="evenodd" clip-rule="evenodd" d="M27.8281 218.111C29.8707 217.974 31.6717 217.876 32.7415 218.805C34.2196 220.089 34.6868 222.876 35.9339 226.111C35.0219 219.522 35.1793 218.805 36.9542 216.618C34.4737 218.111 33.7141 218.111 32.9244 217.426C32.0843 216.941 31.4822 212.994 31.0955 211.091C30.6986 213.336 31.3313 215.151 30.7876 216.386C30.4088 217.247 29.1699 217.812 27.8281 218.111Z" fill="#8F8F8F"/>
<path fill-rule="evenodd" clip-rule="evenodd" d="M226.971 230.226C223.712 234.398 214.792 233.675 205.468 229.224C195.435 223.804 199.324 211.411 202.644 204.936C204.377 201.987 207.765 201.321 211.348 201.122C220.76 200.599 223.386 202.636 225.83 204.19C229.284 207.099 230.113 212.014 230.113 218.387C230.113 224.761 228.643 228.682 226.971 230.226Z" fill="white" stroke="#8F8F8F"/>
<path fill-rule="evenodd" clip-rule="evenodd" d="M220.84 218.111C218.797 217.974 216.996 217.876 215.927 218.805C214.448 220.089 213.981 222.876 212.734 226.111C213.646 219.522 213.489 218.805 211.714 216.618C214.194 218.111 214.954 218.111 215.744 217.426C216.584 216.941 217.186 212.994 217.572 211.091C217.969 213.336 217.337 215.151 217.88 216.386C218.259 217.247 219.498 217.812 220.84 218.111Z" fill="#8F8F8F"/>
<path fill-rule="evenodd" clip-rule="evenodd" d="M35.1116 264.79C38.5165 265.472 45.2642 264.316 50.4725 261.694C53.616 259.555 55.1248 255.619 55.545 251.297C55.545 245.239 54.2573 243.804 52.6499 237.962C49.0542 229.101 40.5885 231.492 36.2558 232.565C25.9614 235.847 23.4128 238.61 23.1719 245.239C23.5826 253.021 25.8966 262.848 35.1116 264.79Z" fill="white" stroke="#8F8F8F"/>
<path fill-rule="evenodd" clip-rule="evenodd" d="M34.5352 249.208C40.1488 248.989 40.5175 251.574 44.0741 255.448C42.4064 251.927 40.0139 249.559 40.0139 247.859C39.8662 246.336 41.4185 244.962 42.2539 243.687C40.8572 244.569 40.4075 244.721 39.7411 244.607C38.6914 244.607 37.2921 242.869 35.9927 241.114C37.1109 243.687 39.3046 245.297 38.6058 246.758C38.0296 248.281 35.8769 248.909 34.5352 249.208Z" fill="#8F8F8F"/>
<path fill-rule="evenodd" clip-rule="evenodd" d="M213.56 264.79C210.155 265.472 203.408 264.316 198.199 261.694C195.056 259.555 193.547 255.619 193.127 251.297C193.127 245.239 194.415 243.804 196.022 237.962C199.618 229.101 208.083 231.492 212.416 232.565C222.71 235.847 225.259 238.61 225.5 245.239C225.089 253.021 222.775 262.848 213.56 264.79Z" fill="white" stroke="#8F8F8F"/>
<path fill-rule="evenodd" clip-rule="evenodd" d="M214.137 249.208C208.523 248.989 208.154 251.574 204.598 255.448C206.265 251.927 208.658 249.559 208.658 247.859C208.806 246.336 207.253 244.962 206.418 243.687C207.815 244.569 208.264 244.721 208.931 244.607C209.98 244.607 211.38 242.869 212.679 241.114C211.561 243.687 209.367 245.297 210.066 246.758C210.642 248.281 212.795 248.909 214.137 249.208Z" fill="#8F8F8F"/>
<path fill-rule="evenodd" clip-rule="evenodd" d="M45.3917 301.31C48.7966 301.992 54.0694 301.288 59.1005 297.794C63.2535 294.937 64.7633 292.855 65.6753 287.029C65.6753 280.972 63.7681 281.052 62.1607 275.209C61.7026 267.424 56.5991 264.52 48.8988 265.197C35.8279 264.884 32.6001 272.519 32.264 281.22C31.7448 287.449 34.4281 289.387 37.3702 294.453C39.2617 297.711 41.3917 300.602 45.3917 301.31Z" fill="white" stroke="#8F8F8F"/>
<path fill-rule="evenodd" clip-rule="evenodd" d="M44.5898 276.982C47.9764 276.759 50.3422 280.147 50.3422 283.603C50.1466 285.04 49.7616 285.847 47.6413 287.225C51.4166 286.58 52.3559 289.543 56.0945 293.201C53.8828 289.222 51.0877 288.09 51.4166 283.603C52.4344 280.947 52.9154 280.947 55.588 280.423C53.0918 280.046 51.1496 280.037 50.1458 278.738C49.0368 277.303 48.4923 275.096 48.4923 272.455C47.8985 276.301 47.1977 276.663 44.5898 276.982Z" fill="#8F8F8F"/>
<path fill-rule="evenodd" clip-rule="evenodd" d="M203.276 301.31C199.871 301.992 194.599 301.288 189.567 297.794C185.415 294.937 183.905 292.855 182.993 287.029C182.993 280.972 184.9 281.052 186.507 275.209C186.965 267.424 192.069 264.52 199.769 265.197C212.84 264.884 216.068 272.519 216.404 281.22C216.923 287.449 214.24 289.387 211.298 294.453C209.406 297.711 207.276 300.602 203.276 301.31Z" fill="white" stroke="#8F8F8F"/>
<path fill-rule="evenodd" clip-rule="evenodd" d="M204.078 276.982C200.692 276.759 198.326 280.147 198.326 283.603C198.521 285.04 198.906 285.847 201.027 287.225C197.251 286.58 196.312 289.543 192.574 293.201C194.785 289.222 197.58 288.09 197.251 283.603C196.234 280.947 195.753 280.947 193.08 280.423C195.576 280.046 197.518 280.037 198.522 278.738C199.631 277.303 200.176 275.096 200.176 272.455C200.769 276.301 201.47 276.663 204.078 276.982Z" fill="#8F8F8F"/>
<path fill-rule="evenodd" clip-rule="evenodd" d="M49.6237 304.076C45.5679 306.971 44.6641 308.777 44.6641 314.482C44.6641 320.278 47.6592 322.426 51.5311 324.677C55.8264 325.808 58.4788 325.17 66.4646 320.25C72.024 316.366 75.4795 312.6 75.0075 308.188C75.0075 303.063 69.6291 300.523 64.2911 300.523C58.6008 300.523 54.2254 301.693 49.6237 304.076Z" fill="white" stroke="#8F8F8F"/>
<path fill-rule="evenodd" clip-rule="evenodd" d="M58.0781 306.725C60.8167 309.408 62.0196 311.686 62.2119 316.609C62.8086 314.444 62.7318 313.805 64.2471 313.967C62.7318 312.981 60.908 310.314 61.9429 305.589C60.8167 308.04 60.5158 308.223 58.0781 306.725Z" fill="#8F8F8F"/>
<path fill-rule="evenodd" clip-rule="evenodd" d="M199.048 304.076C203.104 306.971 204.008 308.777 204.008 314.482C204.008 320.278 201.013 322.426 197.141 324.677C192.845 325.808 190.193 325.17 182.207 320.25C176.648 316.366 173.192 312.6 173.664 308.188C173.664 303.063 179.043 300.523 184.381 300.523C190.071 300.523 194.446 301.693 199.048 304.076Z" fill="white" stroke="#8F8F8F"/>
<path fill-rule="evenodd" clip-rule="evenodd" d="M190.594 306.725C187.855 309.408 186.652 311.686 186.46 316.609C185.863 314.444 185.94 313.805 184.425 313.967C185.94 312.981 187.764 310.314 186.729 305.589C187.855 308.04 188.156 308.223 190.594 306.725Z" fill="#8F8F8F"/>
<path fill-rule="evenodd" clip-rule="evenodd" d="M63.8472 323.398C55.5977 327.549 55.5977 328.262 55.5977 335.519C55.5977 340.331 57.8627 343.189 60.3677 344.671C62.2979 345.664 62.5938 346.484 66.3079 346.484C69.9591 346.484 72.757 344.03 77.3148 340.254C82.2181 335.519 82.8604 334.655 82.8604 329.904C82.8604 327.557 81.8383 324.863 78.8386 322.489C77.0105 321.653 76.215 321.419 72.8512 321.419C69.229 321.419 66.9283 321.639 63.8472 323.398Z" fill="white" stroke="#8F8F8F"/>
<path fill-rule="evenodd" clip-rule="evenodd" d="M66.2539 328.028C68.4204 329.742 70.4604 332.438 71.0328 337.599C71.1866 334.783 71.4896 334.886 72.7248 335.314C70.4829 333.406 69.4226 329.85 69.6778 326.871C69.0791 328.926 68.7366 328.926 66.2539 328.028Z" fill="#8F8F8F"/>
<path fill-rule="evenodd" clip-rule="evenodd" d="M184.825 323.398C193.074 327.549 193.074 328.262 193.074 335.519C193.074 340.331 190.809 343.189 188.304 344.671C186.374 345.664 186.078 346.484 182.364 346.484C178.713 346.484 175.915 344.03 171.357 340.254C166.454 335.519 165.811 334.655 165.811 329.904C165.811 327.557 166.834 324.863 169.833 322.489C171.661 321.653 172.457 321.419 175.821 321.419C179.443 321.419 181.744 321.639 184.825 323.398Z" fill="white" stroke="#8F8F8F"/>
<path fill-rule="evenodd" clip-rule="evenodd" d="M182.418 328.028C180.251 329.742 178.211 332.438 177.639 337.599C177.485 334.783 177.182 334.886 175.947 335.314C178.189 333.406 179.249 329.85 178.994 326.871C179.593 328.926 179.935 328.926 182.418 328.028Z" fill="#8F8F8F"/>
<path fill-rule="evenodd" clip-rule="evenodd" d="M75.2261 343.85C69.6289 347.414 69.6289 348.956 69.6289 353.543C69.6289 357.786 69.777 358.792 72.0698 361.567C73.6273 362.922 73.6273 362.922 75.9481 363.188C77.2164 363.415 77.2164 364.004 80.0594 364.004C83.2987 364.004 84.1487 361.135 86.2414 358.597C87.4152 357.114 88.8005 355.76 90.2352 353.543C91.7569 350.88 92.6795 348.043 92.6795 345.781C92.6102 344.546 92.3078 343.174 90.8908 341.752C88.9155 339.865 87.5678 339.865 85.3564 339.865C80.0026 339.865 78.276 341.898 75.2261 343.85Z" fill="white" stroke="#8F8F8F"/>
<path fill-rule="evenodd" clip-rule="evenodd" d="M72.7383 349.981C72.9581 351.088 73.7035 353.363 75.6954 354.823C75.228 353.828 74.005 351.704 73.9405 349.981C73.8921 348.688 74.1273 348.736 74.912 347.178C73.446 348.357 73.2367 348.397 72.7383 349.981ZM81.4822 359.341C81.9026 359.341 83.0464 358.461 84.9137 356.703C83.4188 357.724 82.8489 358.031 81.5657 358.031C80.2167 357.841 78.8699 357.215 77.1801 356.334C78.5521 357.863 79.7657 358.914 81.4822 359.341Z" fill="#8F8F8F"/>
<path fill-rule="evenodd" clip-rule="evenodd" d="M173.442 343.85C179.039 347.414 179.039 348.956 179.039 353.543C179.039 357.786 178.891 358.792 176.598 361.567C175.041 362.922 175.041 362.922 172.72 363.188C171.452 363.415 171.452 364.004 168.609 364.004C165.369 364.004 164.519 361.135 162.427 358.597C161.253 357.114 159.867 355.76 158.433 353.543C156.911 350.88 155.988 348.043 155.988 345.781C156.058 344.546 156.36 343.174 157.777 341.752C159.752 339.865 161.1 339.865 163.312 339.865C168.665 339.865 170.392 341.898 173.442 343.85Z" fill="white" stroke="#8F8F8F"/>
<path fill-rule="evenodd" clip-rule="evenodd" d="M175.93 349.981C175.71 351.088 174.965 353.363 172.973 354.823C173.44 353.828 174.663 351.704 174.727 349.981C174.776 348.688 174.541 348.736 173.756 347.178C175.222 348.357 175.431 348.397 175.93 349.981ZM167.186 359.341C166.765 359.341 165.622 358.461 163.754 356.703C165.249 357.724 165.819 358.031 167.102 358.031C168.451 357.841 169.798 357.215 171.488 356.334C170.116 357.863 168.902 358.914 167.186 359.341Z" fill="#8F8F8F"/>
<path fill-rule="evenodd" clip-rule="evenodd" d="M90.3252 355.095C87.6662 358.267 84.1172 361.773 84.1172 365.145C84.1172 368.114 84.1172 368.114 88.417 371.072C91.3992 372.539 95.6541 374.257 97.9885 374.257C99.6334 374.257 101.148 373.726 102.425 371.072C103.917 367.969 104.642 362.172 104.762 359.612C104.827 354.688 103.639 354.009 102.903 352.904C101.757 351.494 100.655 351.055 97.9885 351.055C95.2904 351.055 92.8834 352.317 90.3252 355.095Z" fill="white" stroke="#8F8F8F"/>
<path fill-rule="evenodd" clip-rule="evenodd" d="M87.1055 362.891C87.1055 362.891 88.1177 366.465 92.3583 368.638C96.2181 370.208 101.045 369.878 101.045 369.878C101.045 369.878 95.9989 368.947 92.9822 367.571C88.7434 365.44 87.1055 362.891 87.1055 362.891Z" fill="#8F8F8F"/>
<path fill-rule="evenodd" clip-rule="evenodd" d="M158.343 355.095C161.002 358.267 164.551 361.773 164.551 365.145C164.551 368.114 164.551 368.114 160.251 371.072C157.269 372.539 153.014 374.257 150.679 374.257C149.035 374.257 147.52 373.726 146.243 371.072C144.751 367.969 144.025 362.172 143.906 359.612C143.841 354.688 145.029 354.009 145.765 352.904C146.911 351.494 148.013 351.055 150.679 351.055C153.378 351.055 155.785 352.317 158.343 355.095Z" fill="white" stroke="#8F8F8F"/>
<path fill-rule="evenodd" clip-rule="evenodd" d="M161.563 362.891C161.563 362.891 160.55 366.465 156.31 368.638C152.45 370.208 147.623 369.878 147.623 369.878C147.623 369.878 152.669 368.947 155.686 367.571C159.925 365.44 161.563 362.891 161.563 362.891Z" fill="#8F8F8F"/>
<path fill-rule="evenodd" clip-rule="evenodd" d="M113.665 377.58C117.165 377.763 121.125 377.915 122.014 376.927C123.195 375.69 123.554 372.763 123.554 369.16C123.206 362.298 122.718 361.872 122.014 359.888C120.563 356.24 119.665 354.716 115.294 354.716C111.655 354.716 109.531 357.13 108.668 358.215C107.515 359.62 106.352 362.415 105.465 365.804C104.884 369.003 104.236 374.828 105.465 375.69C106.783 376.606 110.067 377.301 113.665 377.58Z" fill="white" stroke="#8F8F8F"/>
<path fill-rule="evenodd" clip-rule="evenodd" d="M106.223 371.519C107.421 373.122 110.013 374.061 113.998 374.339C117.846 374.641 120.485 374.143 121.915 372.846C120.196 373.488 117.413 373.682 113.565 373.426C109.384 372.9 106.937 372.265 106.223 371.519Z" fill="#8F8F8F"/>
<path fill-rule="evenodd" clip-rule="evenodd" d="M135.003 377.58C131.503 377.763 127.543 377.915 126.654 376.927C125.473 375.69 125.114 372.763 125.114 369.16C125.462 362.298 125.95 361.872 126.654 359.888C128.105 356.24 129.003 354.716 133.374 354.716C137.013 354.716 139.137 357.13 140 358.215C141.153 359.62 142.316 362.415 143.203 365.804C143.784 369.003 144.432 374.828 143.203 375.69C141.885 376.606 138.601 377.301 135.003 377.58Z" fill="white" stroke="#8F8F8F"/>
<path fill-rule="evenodd" clip-rule="evenodd" d="M142.445 371.519C141.247 373.122 138.655 374.061 134.67 374.339C130.822 374.641 128.183 374.143 126.753 372.846C128.472 373.488 131.255 373.682 135.103 373.426C139.284 372.9 141.731 372.265 142.445 371.519Z" fill="#8F8F8F"/>
</svg>
