<svg width="36" height="36" viewBox="0 0 36 36" fill="none" xmlns="http://www.w3.org/2000/svg">
<path d="M21.8409 33.75H16.875V28.7839L22.5379 23.121C22.5129 22.9149 22.5002 22.7076 22.5 22.5C22.4993 21.3608 22.8445 20.2483 23.4899 19.3095C24.1354 18.3708 25.0506 17.6502 26.1145 17.2431C27.1785 16.8359 28.341 16.7614 29.4482 17.0293C30.5554 17.2973 31.5552 17.8952 32.3152 18.7438C33.0752 19.5924 33.5596 20.6518 33.7044 21.7817C33.8492 22.9117 33.6474 24.0589 33.1259 25.0717C32.6043 26.0845 31.7876 26.9151 30.7836 27.4535C29.7797 27.992 28.636 28.2129 27.5038 28.0871L21.8409 33.75ZM19.125 31.5H20.9091L26.766 25.6429L27.3729 25.7822C28.0962 25.9545 28.8559 25.886 29.5367 25.5872C30.2175 25.2883 30.7822 24.7754 31.1449 24.1264C31.5076 23.4774 31.6485 22.7277 31.5463 21.9913C31.4441 21.2548 31.1043 20.5719 30.5786 20.0461C30.0528 19.5204 29.3698 19.1807 28.6334 19.0786C27.8969 18.9764 27.1473 19.1174 26.4983 19.4802C25.8493 19.843 25.3364 20.4077 25.0376 21.0885C24.7388 21.7693 24.6704 22.529 24.8428 23.2523L24.9819 23.859L19.125 29.7161V31.5Z" fill="#009ACE"/>
<path d="M28.125 23.625C28.7463 23.625 29.25 23.1213 29.25 22.5C29.25 21.8787 28.7463 21.375 28.125 21.375C27.5037 21.375 27 21.8787 27 22.5C27 23.1213 27.5037 23.625 28.125 23.625Z" fill="#009ACE"/>
<path d="M22.5 6.75H9V9H22.5V6.75Z" fill="#009ACE"/>
<path d="M22.5 11.25H9V13.5H22.5V11.25Z" fill="#009ACE"/>
<path d="M15.75 15.75H9V18H15.75V15.75Z" fill="#009ACE"/>
<path d="M13.5 27H9V29.25H13.5V27Z" fill="#009ACE"/>
<path d="M13.5 33.75H6.75C6.15345 33.7494 5.58152 33.5121 5.1597 33.0903C4.73788 32.6685 4.50063 32.0965 4.5 31.5V4.5C4.50063 3.90345 4.73788 3.33152 5.1597 2.9097C5.58152 2.48788 6.15345 2.25063 6.75 2.25H24.75C25.3465 2.25063 25.9185 2.48788 26.3403 2.9097C26.7621 3.33152 26.9994 3.90345 27 4.5V14.625H24.75V4.5H6.75V31.5H13.5V33.75Z" fill="#009ACE"/>
</svg>
