<svg width="144" height="36" viewBox="0 0 144 36" fill="none" xmlns="http://www.w3.org/2000/svg">
<path fill-rule="evenodd" clip-rule="evenodd" d="M0 12.8148C0 16.6592 2.09356 20.1715 5.32918 22.4971C5.61472 22.6869 5.75737 22.9717 5.75737 23.3514C5.75737 23.4463 5.70982 23.5887 5.70982 23.6837C5.47195 24.6329 5.04363 26.1992 4.99608 26.2466C4.94853 26.3889 4.90098 26.4839 4.90098 26.6262C4.90098 26.9111 5.13885 27.1484 5.4244 27.1484C5.5195 27.1484 5.61472 27.1009 5.70982 27.0534L9.08822 25.1075C9.32597 24.9651 9.61152 24.8701 9.89706 24.8701C10.0398 24.8701 10.2302 24.8701 10.3729 24.9176C11.9431 25.3923 13.656 25.6295 15.4166 25.6295C23.9337 25.6295 30.8331 19.8866 30.8331 12.8148C30.8331 5.74293 23.9337 0 15.4166 0C6.89944 0 0 5.74293 0 12.8148Z" fill="url(#paint0_linear_316_14776)"/>
<path d="M29.7809 10.6527C37.2351 10.6528 43.597 15.7737 43.5973 22.4115C43.5973 26.0113 41.7139 29.1932 38.8219 31.3109L38.8239 31.3178C38.9137 31.7024 39.0516 32.2107 39.1705 32.642C39.2279 32.85 39.2838 33.0512 39.3219 33.1898C39.3413 33.2605 39.358 33.3246 39.3707 33.3734C39.3768 33.397 39.3843 33.4239 39.3903 33.4496C39.3931 33.4618 39.3976 33.482 39.402 33.5053C39.4041 33.5167 39.4076 33.5357 39.4108 33.559C39.4129 33.5745 39.4196 33.629 39.4196 33.6976V33.6674C39.4216 33.6768 39.435 33.7321 39.444 33.7816C39.454 33.8374 39.4668 33.9228 39.4674 34.0248L39.4615 34.1654C39.4487 34.3054 39.4151 34.443 39.3619 34.5736C39.2909 34.7478 39.1859 34.9068 39.0533 35.0404C38.9207 35.1741 38.7624 35.2805 38.5885 35.3529C38.4147 35.4252 38.228 35.4614 38.0397 35.4613V35.4623C37.7957 35.4622 37.6051 35.3929 37.4713 35.3256C37.4209 35.3002 37.3732 35.2724 37.3639 35.267C37.3586 35.2639 37.3554 35.2614 37.3531 35.2601L37.3268 35.2465L37.3004 35.2318L34.5367 33.6273C34.4759 33.5973 34.4259 33.5751 34.3844 33.5619C34.3384 33.5473 34.3249 33.5492 34.3375 33.5492C34.3057 33.5492 34.283 33.5489 34.2633 33.5492L34.2438 33.556C32.8578 33.9697 31.3362 34.1713 29.7809 34.1713C22.3264 34.1713 15.9645 29.0497 15.9645 22.4115C15.9647 15.7231 22.3297 10.6527 29.7809 10.6527Z" fill="url(#paint1_linear_316_14776)" stroke="url(#paint2_linear_316_14776)" stroke-width="2"/>
<path fill-rule="evenodd" clip-rule="evenodd" d="M12.259 8.67755C12.259 9.78456 11.3835 10.661 10.2778 10.661C9.17197 10.661 8.29651 9.78456 8.29651 8.67755C8.29651 7.57054 9.17197 6.69411 10.2778 6.69411C11.3835 6.69411 12.259 7.57054 12.259 8.67755ZM22.5367 8.67755C22.5367 9.78456 21.6612 10.661 20.5555 10.661C19.4497 10.661 18.5742 9.78456 18.5742 8.67755C18.5742 7.57054 19.4497 6.69411 20.5555 6.69411C21.6612 6.69411 22.5367 7.57054 22.5367 8.67755Z" fill="#187E28"/>
<path fill-rule="evenodd" clip-rule="evenodd" d="M32.4429 19.0906C32.4429 20.0548 33.2134 20.8261 34.1765 20.8261C35.1396 20.8261 35.9101 20.0548 35.9101 19.0906C35.9101 18.1264 35.1396 17.3551 34.1765 17.3551C33.2134 17.3551 32.4429 18.1264 32.4429 19.0906ZM23.8988 19.0906C23.8988 20.0548 24.6693 20.8261 25.6324 20.8261C26.5955 20.8261 27.366 20.0548 27.366 19.0906C27.366 18.1264 26.5955 17.3551 25.6324 17.3551C24.6693 17.3551 23.8988 18.1264 23.8988 19.0906Z" fill="#187E28"/>
<path fill-rule="evenodd" clip-rule="evenodd" d="M76.1083 6.08123H74.4069C74.4069 6.08123 70.6599 18.9281 70.5208 19.4199C69.9657 21.3832 69.4824 23.0927 69.1145 24.8214C68.7631 22.7807 68.1296 20.3559 67.4566 17.8437L64.3558 6.14569L64.3388 6.08123H62.7807L59.3522 17.9338C58.5386 20.5856 57.834 22.9454 57.478 24.8342C57.1245 23.1689 56.6038 21.1145 56.0531 18.9456L52.7593 6.14619L52.7429 6.08123H51.0443L56.5914 27.1025L56.6084 27.1673H58.1352L61.7191 15.0671C62.6145 12.11 63.1796 10.1122 63.5217 8.31099C63.8201 10.244 64.3276 12.2774 65.0865 15.0636L68.2352 27.1673H69.7933L76.0749 6.19243L76.1083 6.08123ZM77.6098 18.2129C77.9247 15.8659 79.385 13.1744 82.5029 13.1744C83.7451 13.1744 84.75 13.555 85.489 14.3052C86.708 15.5436 86.8531 17.3906 86.8511 18.2129H77.6098ZM82.6886 11.7593C78.6312 11.7593 75.9055 15.0357 75.9055 19.9131C75.9055 24.4372 78.7316 27.4769 82.9372 27.4769C85.6222 27.4769 87.1352 26.7972 87.6604 26.5047L87.7377 26.462L87.0533 25.2761L86.9817 25.3085C86.194 25.6663 85.1195 26.0319 83.123 26.0319C81.4511 26.0319 77.5738 25.4002 77.5357 19.565H88.4941L88.5095 19.4971C88.5733 19.2088 88.5733 18.9853 88.5733 18.5785C88.5733 18.0193 88.4952 16.0615 87.4876 14.3654C86.4599 12.6363 84.8457 11.7593 82.6886 11.7593ZM139.933 8.8123H138.271V12.1006H135.76V13.4841H138.271V22.7985C138.271 24.5096 138.583 25.6956 139.22 26.4201C139.776 27.1316 140.679 27.5081 141.831 27.5081C142.658 27.5081 143.426 27.2986 144 27.0467L143.37 25.9376C143.003 26.0122 142.488 26.0966 141.997 26.0966C140.595 26.0966 139.933 25.0863 139.933 23.0777V13.4841H143.805V12.1006H139.933V8.8123ZM105.618 25.2041C104.402 25.7297 102.801 26.0316 101.228 26.0316C95.749 26.0316 92.4783 22.5728 92.4783 16.7794C92.4783 10.7718 95.8415 7.18588 101.476 7.18588C102.993 7.18588 104.449 7.46964 105.579 7.98509L105.65 8.01806L106.398 6.723L106.32 6.68023C105.918 6.45932 104.377 5.74057 101.445 5.74057C95.0507 5.74057 90.7545 10.1641 90.7545 16.7485C90.7545 24.6674 96.1293 27.4769 100.732 27.4769C103.931 27.4769 105.819 26.6959 106.321 26.4564L106.406 26.4162L105.689 25.1731L105.618 25.2041ZM125.456 20.7258C126.52 19.6909 128.477 19.1676 131.278 19.1676C131.476 19.1676 131.678 19.1703 131.884 19.1754V22.2866C131.884 22.5127 131.858 22.8463 131.733 23.1584C131.255 24.5698 129.867 26.0779 127.413 26.0779C125.28 26.0779 124.523 24.4534 124.523 23.0626C124.523 22.1146 124.837 21.3283 125.456 20.7258ZM133.579 25.1567C133.556 24.6635 133.545 24.1305 133.545 23.5276V17.695C133.545 13.8023 131.736 11.7447 128.312 11.7447C126.766 11.7447 125.053 12.2652 123.832 13.0705L124.368 14.3223C125.362 13.6122 126.764 13.1585 128.158 13.1585C129.299 13.158 130.187 13.4552 130.806 14.0689C131.532 14.7888 131.884 15.8938 131.884 17.4473V17.7625C131.824 17.7625 131.763 17.762 131.703 17.762C128.149 17.762 125.608 18.4946 124.147 19.9411C123.253 20.8272 122.8 21.9605 122.8 23.3113C122.8 25.3252 124.195 27.493 127.258 27.493C129.464 27.493 131.089 26.3509 131.933 25.216C131.985 26.1897 132.306 27.1516 132.306 27.1516L134.105 27.1491C134.105 27.1491 133.69 26.3024 133.579 25.1567ZM115.354 11.7593C114.254 11.7593 113.198 12.0647 112.303 12.6399C111.528 13.0827 110.828 13.8004 110.356 14.629V5.74033H108.695V27.1673H110.356V17.9893C110.356 17.3811 110.384 16.9883 110.537 16.529C111.226 14.5903 113.042 13.2361 114.952 13.2361C116.447 13.2361 118.957 13.89 118.957 18.2695V27.1673H120.618V18.1134C120.618 12.0656 116.233 11.7593 115.354 11.7593Z" fill="#4D4D4D"/>
<defs>
<linearGradient id="paint0_linear_316_14776" x1="15.4337" y1="25.5604" x2="15.4337" y2="0.118466" gradientUnits="userSpaceOnUse">
<stop stop-color="#78D431"/>
<stop offset="1" stop-color="#9EEE69"/>
</linearGradient>
<linearGradient id="paint1_linear_316_14776" x1="29.8034" y1="32.9874" x2="29.8034" y2="11.6444" gradientUnits="userSpaceOnUse">
<stop stop-color="#78D431"/>
<stop offset="1" stop-color="#9EEE69"/>
</linearGradient>
<linearGradient id="paint2_linear_316_14776" x1="29.7807" y1="11.6527" x2="29.7807" y2="34.4623" gradientUnits="userSpaceOnUse">
<stop stop-color="white"/>
<stop offset="0.603811" stop-color="white"/>
<stop offset="0.620485" stop-color="white" stop-opacity="0"/>
</linearGradient>
</defs>
</svg>
