<svg width="36" height="36" viewBox="0 0 36 36" fill="none" xmlns="http://www.w3.org/2000/svg">
<path d="M18 20.25C16.8875 20.25 15.8 19.9201 14.8749 19.302C13.9499 18.6839 13.2289 17.8054 12.8032 16.7776C12.3774 15.7498 12.2661 14.6188 12.4831 13.5276C12.7001 12.4365 13.2359 11.4342 14.0225 10.6475C14.8092 9.86085 15.8115 9.32512 16.9026 9.10808C17.9938 8.89104 19.1248 9.00243 20.1526 9.42818C21.1804 9.85392 22.0589 10.5749 22.677 11.4999C23.2951 12.4249 23.625 13.5125 23.625 14.625C23.6233 16.1163 23.0301 17.5461 21.9756 18.6006C20.9211 19.6551 19.4913 20.2483 18 20.25ZM18 11.25C17.3325 11.25 16.68 11.4479 16.125 11.8188C15.5699 12.1896 15.1374 12.7167 14.8819 13.3334C14.6265 13.9501 14.5596 14.6287 14.6899 15.2834C14.8201 15.9381 15.1415 16.5395 15.6135 17.0115C16.0855 17.4835 16.6869 17.8049 17.3416 17.9352C17.9963 18.0654 18.6749 17.9985 19.2916 17.7431C19.9083 17.4876 20.4354 17.0551 20.8062 16.5C21.1771 15.945 21.375 15.2925 21.375 14.625C21.374 13.7302 21.0181 12.8723 20.3854 12.2396C19.7527 11.6069 18.8948 11.251 18 11.25Z" fill="#009ACE"/>
<path d="M18 33.75L8.51007 22.5577C8.45619 22.4935 8.11835 22.0498 8.11835 22.0498C6.49711 19.9144 5.62121 17.3061 5.62501 14.625C5.62501 11.3429 6.9288 8.19532 9.24957 5.87455C11.5703 3.55379 14.718 2.25 18 2.25C21.2821 2.25 24.4297 3.55379 26.7505 5.87455C29.0712 8.19532 30.375 11.3429 30.375 14.625C30.379 17.305 29.5037 19.9123 27.8834 22.047L27.8817 22.0498C27.8817 22.0498 27.5442 22.4935 27.4939 22.5531L18 33.75ZM9.91407 20.6944C9.9152 20.6952 10.1767 21.0411 10.2365 21.1156L18 30.2714L25.7738 21.1026C25.8232 21.0405 26.0869 20.6921 26.0874 20.6912C27.4118 18.9464 28.1276 16.8155 28.125 14.625C28.125 11.9397 27.0583 9.36435 25.1595 7.46554C23.2607 5.56674 20.6853 4.5 18 4.5C15.3147 4.5 12.7394 5.56674 10.8406 7.46554C8.94175 9.36435 7.87501 11.9397 7.87501 14.625C7.87252 16.8167 8.5888 18.9487 9.91407 20.6944Z" fill="#009ACE"/>
</svg>
