<svg width="36" height="36" viewBox="0 0 36 36" fill="none" xmlns="http://www.w3.org/2000/svg">
<path d="M30.375 18.8548C30.375 18.5736 30.375 18.2923 30.375 17.9998C30.375 17.7073 30.375 17.4261 30.375 17.1336L32.535 15.2436C32.9331 14.8927 33.1944 14.4123 33.2727 13.8873C33.3509 13.3623 33.241 12.8266 32.9625 12.3748L30.3075 7.87485C30.1102 7.53314 29.8265 7.24933 29.4849 7.05187C29.1433 6.85441 28.7558 6.75025 28.3612 6.74985C28.1167 6.74797 27.8735 6.78597 27.6412 6.86235L24.9075 7.78485C24.4355 7.47121 23.9432 7.18933 23.4337 6.9411L22.86 4.1061C22.7571 3.58815 22.4753 3.12289 22.064 2.79176C21.6526 2.46063 21.1379 2.28473 20.61 2.29485H15.345C14.817 2.28473 14.3023 2.46063 13.891 2.79176C13.4796 3.12289 13.1979 3.58815 13.095 4.1061L12.5212 6.9411C12.0082 7.18927 11.5121 7.47114 11.0362 7.78485L8.35873 6.81735C8.12394 6.75617 7.8808 6.73338 7.63873 6.74985C7.24416 6.75025 6.85664 6.85441 6.51504 7.05187C6.17343 7.24933 5.88976 7.53314 5.69248 7.87485L3.03748 12.3748C2.77489 12.826 2.67731 13.3543 2.76146 13.8695C2.84561 14.3846 3.10624 14.8545 3.49873 15.1986L5.62498 17.1448C5.62498 17.4261 5.62498 17.7073 5.62498 17.9998C5.62498 18.2923 5.62498 18.5736 5.62498 18.8661L3.49873 20.7561C3.09516 21.1026 2.82739 21.5809 2.74295 22.106C2.65851 22.6312 2.76286 23.1693 3.03748 23.6248L5.69248 28.1248C5.88976 28.4666 6.17343 28.7504 6.51504 28.9478C6.85664 29.1453 7.24416 29.2494 7.63873 29.2498C7.88325 29.2517 8.12644 29.2137 8.35873 29.1373L11.0925 28.2148C11.5645 28.5285 12.0568 28.8104 12.5662 29.0586L13.14 31.8936C13.2429 32.4115 13.5246 32.8768 13.936 33.2079C14.3473 33.5391 14.862 33.715 15.39 33.7048H20.7C21.2279 33.715 21.7426 33.5391 22.154 33.2079C22.5653 32.8768 22.8471 32.4115 22.95 31.8936L23.5237 29.0586C24.0368 28.8104 24.5329 28.5286 25.0087 28.2148L27.7312 29.1373C27.9635 29.2137 28.2067 29.2517 28.4512 29.2498C28.8458 29.2494 29.2333 29.1453 29.5749 28.9478C29.9165 28.7504 30.2002 28.4666 30.3975 28.1248L32.9625 23.6248C33.2251 23.1737 33.3226 22.6454 33.2385 22.1302C33.1544 21.6151 32.8937 21.1452 32.5012 20.8011L30.375 18.8548ZM28.3612 26.9998L24.5025 25.6948C23.5992 26.46 22.5668 27.0581 21.4537 27.4611L20.655 31.4998H15.345L14.5462 27.5061C13.442 27.0916 12.4152 26.4946 11.5087 25.7398L7.63873 26.9998L4.98373 22.4998L8.04373 19.7998C7.83571 18.6353 7.83571 17.4431 8.04373 16.2786L4.98373 13.4998L7.63873 8.99985L11.4975 10.3048C12.4008 9.53973 13.4332 8.94163 14.5462 8.5386L15.345 4.49985H20.655L21.4537 8.4936C22.558 8.90807 23.5848 9.50513 24.4912 10.2598L28.3612 8.99985L31.0162 13.4998L27.9562 16.1998C28.1642 17.3644 28.1642 18.5566 27.9562 19.7211L31.0162 22.4998L28.3612 26.9998Z" fill="#009ACE"/>
<path d="M18 24.7498C16.665 24.7498 15.3599 24.354 14.2499 23.6123C13.1398 22.8706 12.2747 21.8164 11.7638 20.583C11.2529 19.3496 11.1192 17.9924 11.3797 16.683C11.6401 15.3736 12.283 14.1709 13.227 13.2269C14.171 12.2829 15.3737 11.64 16.6831 11.3795C17.9925 11.1191 19.3497 11.2528 20.5831 11.7637C21.8165 12.2746 22.8707 13.1397 23.6124 14.2497C24.3541 15.3598 24.75 16.6648 24.75 17.9998C24.759 18.8888 24.5906 19.7706 24.2546 20.5936C23.9185 21.4166 23.4217 22.1643 22.7931 22.7929C22.1645 23.4215 21.4168 23.9184 20.5937 24.2544C19.7707 24.5904 18.8889 24.7589 18 24.7498ZM18 13.4998C17.4052 13.486 16.8139 13.5929 16.2616 13.8142C15.7094 14.0354 15.2078 14.3664 14.7871 14.787C14.3665 15.2077 14.0355 15.7093 13.8143 16.2615C13.5931 16.8137 13.4861 17.4051 13.5 17.9998C13.4861 18.5946 13.5931 19.186 13.8143 19.7382C14.0355 20.2904 14.3665 20.792 14.7871 21.2127C15.2078 21.6333 15.7094 21.9643 16.2616 22.1855C16.8139 22.4068 17.4052 22.5137 18 22.4998C18.5947 22.5137 19.1861 22.4068 19.7383 22.1855C20.2905 21.9643 20.7922 21.6333 21.2128 21.2127C21.6335 20.792 21.9644 20.2904 22.1857 19.7382C22.4069 19.186 22.5138 18.5946 22.5 17.9998C22.5138 17.4051 22.4069 16.8137 22.1857 16.2615C21.9644 15.7093 21.6335 15.2077 21.2128 14.787C20.7922 14.3664 20.2905 14.0354 19.7383 13.8142C19.1861 13.5929 18.5947 13.486 18 13.4998Z" fill="#009ACE"/>
</svg>
