<svg width="36" height="36" viewBox="0 0 36 36" fill="none" xmlns="http://www.w3.org/2000/svg">
<path d="M30.375 5.625H5.625C5.02826 5.625 4.45597 5.86205 4.03401 6.28401C3.61205 6.70597 3.375 7.27826 3.375 7.875V14.625C2.25 15.1875 2.25 16.3125 2.25 16.3125V25.875C2.25 26.4717 2.48705 27.044 2.90901 27.466C3.33097 27.8879 3.90326 28.125 4.5 28.125H18V30.375H13.5V32.625H22.5V30.375H18V28.125H31.5C32.0967 28.125 32.669 27.8879 33.091 27.466C33.5129 27.044 33.75 26.4717 33.75 25.875V16.3125C33.75 16.3125 33.75 15.1875 32.625 14.625V7.875C32.625 7.27826 32.3879 6.70597 31.966 6.28401C31.544 5.86205 30.9717 5.625 30.375 5.625ZM30.375 24.75H5.625V7.875H30.375V24.75Z" fill="#009ACE"/>
</svg>
