<svg width="32" height="24" viewBox="0 0 32 24" fill="none" xmlns="http://www.w3.org/2000/svg">
<g clip-path="url(#clip0_1042_942)">
<path d="M2.5 10C2.22386 10 2 10.2239 2 10.5V13.5C2 13.7761 2.22386 14 2.5 14H5.5C5.77614 14 6 13.7761 6 13.5V10.5C6 10.2239 5.77614 10 5.5 10H2.5Z" fill="#009ACE"/>
<path d="M7.5 10C7.22386 10 7 10.2239 7 10.5V13.5C7 13.7761 7.22386 14 7.5 14H10.5C10.7761 14 11 13.7761 11 13.5V10.5C11 10.2239 10.7761 10 10.5 10H7.5Z" fill="#009ACE"/>
<path d="M12.5 10C12.2239 10 12 10.2239 12 10.5V13.5C12 13.7761 12.2239 14 12.5 14H15.5C15.7761 14 16 13.7761 16 13.5V10.5C16 10.2239 15.7761 10 15.5 10H12.5Z" fill="#009ACE"/>
<path d="M17.5 10C17.2239 10 17 10.2239 17 10.5V13.5C17 13.7761 17.2239 14 17.5 14H20.5C20.7761 14 21 13.7761 21 13.5V10.5C21 10.2239 20.7761 10 20.5 10H17.5Z" fill="#009ACE"/>
<path d="M22.5 10C22.2239 10 22 10.2239 22 10.5V13.5C22 13.7761 22.2239 14 22.5 14H25.5C25.7761 14 26 13.7761 26 13.5V10.5C26 10.2239 25.7761 10 25.5 10H22.5Z" fill="#009ACE"/>
<path d="M27.5 10C27.2239 10 27 10.2239 27 10.5V13.5C27 13.7761 27.2239 14 27.5 14H30.5C30.7761 14 31 13.7761 31 13.5V10.5C31 10.2239 30.7761 10 30.5 10H27.5Z" fill="#009ACE"/>
</g>
<defs>
<clipPath id="clip0_1042_942">
<rect width="24" height="32" fill="white" transform="matrix(0 -1 1 0 0 24)"/>
</clipPath>
</defs>
</svg>
