<svg width="36" height="36" viewBox="0 0 36 36" fill="none" xmlns="http://www.w3.org/2000/svg">
<path d="M32.9063 7.60495C32.2792 6.97567 31.534 6.47637 30.7136 6.13569C29.8931 5.795 29.0134 5.61963 28.125 5.61963C27.2366 5.61963 26.357 5.795 25.5365 6.13569C24.716 6.47637 23.9709 6.97567 23.3438 7.60495L24.9413 9.20245C25.3601 8.78362 25.8573 8.45138 26.4046 8.22471C26.9518 7.99804 27.5383 7.88137 28.1307 7.88137C28.723 7.88137 29.3095 7.99804 29.8567 8.22471C30.404 8.45138 30.9012 8.78362 31.32 9.20245C31.7389 9.62129 32.0711 10.1185 32.2978 10.6657C32.5244 11.213 32.6411 11.7995 32.6411 12.3918C32.6411 12.9841 32.5244 13.5707 32.2978 14.1179C32.0711 14.6651 31.7389 15.1624 31.32 15.5812L22.32 24.5812C21.4756 25.4271 20.3298 25.9029 19.1346 25.9039C17.9394 25.905 16.7928 25.4312 15.9469 24.5868C15.101 23.7424 14.6252 22.5966 14.6242 21.4014C14.6231 20.2062 15.0969 19.0596 15.9413 18.2137L17.5275 16.6162L15.9413 15.0187L14.3438 16.6162C13.7145 17.2433 13.2152 17.9885 12.8745 18.8089C12.5338 19.6294 12.3585 20.5091 12.3585 21.3975C12.3585 22.2858 12.5338 23.1655 12.8745 23.986C13.2152 24.8064 13.7145 25.5516 14.3438 26.1787C15.6167 27.4353 17.3364 28.1353 19.125 28.125C20.0168 28.1286 20.9005 27.9555 21.725 27.6157C22.5496 27.2758 23.2986 26.776 23.9288 26.145L32.9288 17.145C34.1899 15.8763 34.8958 14.1591 34.8916 12.3703C34.8874 10.5815 34.1733 8.8676 32.9063 7.60495Z" fill="#009ACE"/>
<path d="M4.71378 27.9225C4.29369 27.5043 3.96035 27.0073 3.73289 26.46C3.50544 25.9127 3.38835 25.3258 3.38835 24.7331C3.38835 24.1404 3.50544 23.5535 3.73289 23.0062C3.96035 22.4588 4.29369 21.9618 4.71378 21.5437L13.7138 12.5437C14.1319 12.1236 14.6289 11.7903 15.1762 11.5628C15.7236 11.3354 16.3104 11.2183 16.9032 11.2183C17.4959 11.2183 18.0827 11.3354 18.6301 11.5628C19.1774 11.7903 19.6744 12.1236 20.0925 12.5437C20.51 12.9651 20.8386 13.4661 21.0589 14.0168C21.2792 14.5675 21.3867 15.1569 21.375 15.75C21.3785 16.3449 21.2639 16.9345 21.038 17.4849C20.812 18.0352 20.4792 18.5353 20.0588 18.9562L17.6738 21.375L19.2713 22.9725L21.6563 20.5875C22.9258 19.3179 23.6391 17.596 23.6391 15.8006C23.6391 14.0051 22.9258 12.2833 21.6563 11.0137C20.3867 9.74414 18.6648 9.03091 16.8694 9.03091C15.074 9.03091 13.3521 9.74414 12.0825 11.0137L3.08253 20.0137C2.45156 20.641 1.95083 21.3869 1.60914 22.2084C1.26745 23.0299 1.09155 23.9108 1.09155 24.8006C1.09155 25.6903 1.26745 26.5713 1.60914 27.3928C1.95083 28.2143 2.45156 28.9601 3.08253 29.5875C4.3637 30.8345 6.08729 31.5223 7.87503 31.5C9.67852 31.5017 11.4095 30.7899 12.69 29.52L11.0925 27.9225C10.6744 28.3425 10.1774 28.6759 9.63006 28.9033C9.08273 29.1308 8.49586 29.2479 7.90315 29.2479C7.31044 29.2479 6.72357 29.1308 6.17624 28.9033C5.62891 28.6759 5.13191 28.3425 4.71378 27.9225Z" fill="#009ACE"/>
</svg>
