<svg width="36" height="36" viewBox="0 0 36 36" fill="none" xmlns="http://www.w3.org/2000/svg">
<path d="M19.125 2.25H16.875V5.625H19.125V2.25Z" fill="#009ACE"/>
<path d="M33.75 16.875H30.375V19.125H33.75V16.875Z" fill="#009ACE"/>
<path d="M19.125 30.375H16.875V33.75H19.125V30.375Z" fill="#009ACE"/>
<path d="M5.625 16.875H2.25V19.125H5.625V16.875Z" fill="#009ACE"/>
<path d="M7.72216 6.15297L6.13117 7.74396L8.51765 10.1304L10.1086 8.53945L7.72216 6.15297Z" fill="#009ACE"/>
<path d="M28.2611 6.14203L25.8746 8.52851L27.4656 10.1195L29.8521 7.73302L28.2611 6.14203Z" fill="#009ACE"/>
<path d="M27.4686 25.8775L25.8776 27.4685L28.2641 29.855L29.8551 28.264L27.4686 25.8775Z" fill="#009ACE"/>
<path d="M6.15375 28.2712L8.53875 25.875L10.125 27.4725L7.74 29.8575L6.15375 28.2712Z" fill="#009ACE"/>
<path d="M18 9C16.22 9 14.4799 9.52784 12.9999 10.5168C11.5198 11.5057 10.3663 12.9113 9.68508 14.5558C9.0039 16.2004 8.82567 18.01 9.17293 19.7558C9.5202 21.5016 10.3774 23.1053 11.636 24.364C12.8947 25.6226 14.4984 26.4798 16.2442 26.8271C17.99 27.1743 19.7996 26.9961 21.4442 26.3149C23.0887 25.6337 24.4943 24.4802 25.4832 23.0001C26.4722 21.5201 27 19.78 27 18C27 15.6131 26.0518 13.3239 24.364 11.636C22.6761 9.94821 20.3869 9 18 9ZM18 24.75C16.2098 24.75 14.4929 24.0388 13.227 22.773C11.9612 21.5071 11.25 19.7902 11.25 18C11.25 16.2098 11.9612 14.4929 13.227 13.227C14.4929 11.9612 16.2098 11.25 18 11.25V24.75Z" fill="#009ACE"/>
</svg>
