<svg width="36" height="36" viewBox="0 0 36 36" fill="none" xmlns="http://www.w3.org/2000/svg">
<path d="M29.25 33.75H15.75C15.1533 33.75 14.581 33.5129 14.159 33.091C13.7371 32.669 13.5 32.0967 13.5 31.5V28.125H15.75V31.5H29.25V4.5H15.75V7.875H13.5V4.5C13.5 3.90326 13.7371 3.33097 14.159 2.90901C14.581 2.48705 15.1533 2.25 15.75 2.25H29.25C29.8467 2.25 30.419 2.48705 30.841 2.90901C31.2629 3.33097 31.5 3.90326 31.5 4.5V31.5C31.5 32.0967 31.2629 32.669 30.841 33.091C30.419 33.5129 29.8467 33.75 29.25 33.75Z" fill="#009ACE"/>
<path d="M16.4137 23.1637L20.4412 19.125H4.5V16.875H20.4412L16.4137 12.8363L18 11.25L24.75 18L18 24.75L16.4137 23.1637Z" fill="#009ACE"/>
</svg>
