<svg width="36" height="36" viewBox="0 0 36 36" fill="none" xmlns="http://www.w3.org/2000/svg">
<path d="M13.5 11.2499H7.62751C9.08252 9.01379 11.2212 7.30773 13.7248 6.38607C16.2284 5.46441 18.9628 5.37649 21.5204 6.13543C24.078 6.89437 26.3219 8.45951 27.9175 10.5976C29.5132 12.7356 30.3752 15.3321 30.375 17.9999H32.625C32.6281 14.9911 31.7031 12.0545 29.9762 9.59067C28.2492 7.1268 25.8044 5.25553 22.975 4.23203C20.1456 3.20852 17.0693 3.0826 14.1658 3.87143C11.2622 4.66025 8.67256 6.32544 6.75001 8.63992V4.49992H4.50001V13.4999H13.5V11.2499Z" fill="#009ACE"/>
<path d="M22.5 24.7499H28.3725C26.9175 26.9861 24.7788 28.6921 22.2752 29.6138C19.7716 30.5354 17.0372 30.6234 14.4796 29.8644C11.922 29.1055 9.67813 27.5403 8.08248 25.4023C6.48682 23.2642 5.62484 20.6678 5.62501 17.9999H3.37501C3.37191 21.0087 4.2969 23.9453 6.02385 26.4092C7.75081 28.8731 10.1957 30.7443 13.0251 31.7678C15.8545 32.7913 18.9307 32.9172 21.8343 32.1284C24.7378 31.3396 27.3275 29.6744 29.25 27.3599V31.4999H31.5V22.4999H22.5V24.7499Z" fill="#009ACE"/>
</svg>
