<svg width="36" height="36" viewBox="0 0 36 36" fill="none" xmlns="http://www.w3.org/2000/svg">
<path d="M31.5 4.5H4.5C3.90326 4.5 3.33097 4.73705 2.90901 5.15901C2.48705 5.58097 2.25 6.15326 2.25 6.75V24.75C2.25 25.3467 2.48705 25.919 2.90901 26.341C3.33097 26.7629 3.90326 27 4.5 27H13.5V31.5H9V33.75H27V31.5H22.5V27H31.5C32.0967 27 32.669 26.7629 33.091 26.341C33.5129 25.919 33.75 25.3467 33.75 24.75V6.75C33.75 6.15326 33.5129 5.58097 33.091 5.15901C32.669 4.73705 32.0967 4.5 31.5 4.5ZM20.25 31.5H15.75V27H20.25V31.5ZM31.5 24.75H4.5V6.75H31.5V24.75Z" fill="#009ACE"/>
</svg>
