<svg width="36" height="36" viewBox="0 0 36 36" fill="none" xmlns="http://www.w3.org/2000/svg">
<path d="M30.555 9.0899L28.8337 10.5411C30.6021 12.6358 31.5447 15.3041 31.4846 18.0447C31.4246 20.7853 30.3659 23.4097 28.5075 25.4249L30.1612 26.9999C32.3929 24.5817 33.6644 21.4316 33.7369 18.1419C33.8095 14.8521 32.6779 11.6491 30.555 9.1349V9.0899Z" fill="#009ACE"/>
<path d="M24.2775 13.4999C25.3382 14.7577 25.903 16.3595 25.8657 18.0044C25.8284 19.6493 25.1916 21.224 24.075 22.4324L25.7288 23.9624C27.217 22.3496 28.0647 20.2485 28.1123 18.0545C28.16 15.8604 27.4043 13.7246 25.9875 12.0486L24.2775 13.4999Z" fill="#009ACE"/>
<path d="M20.25 33.7499C20.1012 33.7493 19.9539 33.7191 19.8168 33.6612C19.6797 33.6033 19.5554 33.5187 19.4513 33.4124L10.8787 24.7499H3.375C3.07663 24.7499 2.79048 24.6314 2.5795 24.4204C2.36853 24.2094 2.25 23.9233 2.25 23.6249V12.3749C2.25 12.0765 2.36853 11.7904 2.5795 11.5794C2.79048 11.3684 3.07663 11.2499 3.375 11.2499H10.8787L19.4513 2.5874C19.662 2.37786 19.9472 2.26025 20.2444 2.26025C20.5416 2.26025 20.8267 2.37786 21.0375 2.5874C21.2495 2.7951 21.3708 3.07816 21.375 3.3749V32.6249C21.375 32.9233 21.2565 33.2094 21.0455 33.4204C20.8345 33.6314 20.5484 33.7499 20.25 33.7499ZM4.5 22.4999H11.34C11.4888 22.5005 11.6361 22.5307 11.7732 22.5886C11.9103 22.6465 12.0346 22.7311 12.1388 22.8374L19.125 29.8911V6.10865L12.1388 13.1624C12.0346 13.2687 11.9103 13.3533 11.7732 13.4112C11.6361 13.4691 11.4888 13.4993 11.34 13.4999H4.5V22.4999Z" fill="#009ACE"/>
</svg>
