<svg width="36" height="36" viewBox="0 0 36 36" fill="none" xmlns="http://www.w3.org/2000/svg">
<path d="M33.75 29.25H2.25V31.5H33.75V29.25Z" fill="#009ACE"/>
<path d="M27 25.875H22.5C21.9035 25.8743 21.3316 25.637 20.9098 25.2152C20.488 24.7934 20.2507 24.2215 20.25 23.625V15.75C20.2507 15.1535 20.488 14.5816 20.9098 14.1598C21.3316 13.738 21.9035 13.5007 22.5 13.5H27C27.5965 13.5007 28.1684 13.738 28.5902 14.1598C29.012 14.5816 29.2493 15.1535 29.25 15.75V23.625C29.2493 24.2215 29.012 24.7934 28.5902 25.2152C28.1684 25.637 27.5965 25.8743 27 25.875ZM22.5 15.75V23.625H27.0014L27 15.75H22.5Z" fill="#009ACE"/>
<path d="M13.5 25.875H9C8.40347 25.8743 7.83157 25.637 7.40977 25.2152C6.98796 24.7934 6.75068 24.2215 6.75 23.625V6.75C6.75068 6.15347 6.98796 5.58157 7.40977 5.15977C7.83157 4.73796 8.40347 4.50068 9 4.5H13.5C14.0965 4.50068 14.6684 4.73796 15.0902 5.15977C15.512 5.58157 15.7493 6.15347 15.75 6.75V23.625C15.7493 24.2215 15.512 24.7934 15.0902 25.2152C14.6684 25.637 14.0965 25.8743 13.5 25.875ZM9 6.75V23.625H13.5013L13.5 6.75H9Z" fill="#009ACE"/>
</svg>
