<svg width="36" height="36" viewBox="0 0 36 36" fill="none" xmlns="http://www.w3.org/2000/svg">
<path d="M29.25 33.75H6.75C6.15347 33.7493 5.58157 33.512 5.15977 33.0902C4.73796 32.6684 4.50068 32.0965 4.5 31.5V4.5C4.50068 3.90347 4.73796 3.33157 5.15977 2.90977C5.58157 2.48796 6.15347 2.25068 6.75 2.25H29.25C29.8465 2.25068 30.4184 2.48796 30.8402 2.90977C31.262 3.33157 31.4993 3.90347 31.5 4.5V31.5C31.4993 32.0965 31.262 32.6684 30.8402 33.0902C30.4184 33.512 29.8465 33.7493 29.25 33.75ZM6.75 4.5V31.5H29.25V4.5H6.75Z" fill="#009ACE"/>
<path d="M22.5 14.625H10.125V16.875H22.5V14.625Z" fill="#009ACE"/>
<path d="M18 20.25H10.125V22.5H18V20.25Z" fill="#009ACE"/>
</svg>
