<svg width="36" height="36" viewBox="0 0 36 36" fill="none" xmlns="http://www.w3.org/2000/svg">
<path d="M14.625 23.625H29.4412L26.5387 26.5388L28.125 28.125L33.75 22.5L28.125 16.875L26.5387 18.4613L29.4412 21.375H14.625V23.625Z" fill="#009ACE"/>
<path d="M24.75 15.75V11.25C24.7509 11.102 24.7225 10.9552 24.6665 10.8181C24.6105 10.6811 24.528 10.5564 24.4237 10.4513L16.5487 2.57627C16.4436 2.472 16.319 2.38951 16.1819 2.33353C16.0448 2.27754 15.8981 2.24916 15.75 2.25002H4.5C3.90326 2.25002 3.33097 2.48707 2.90901 2.90903C2.48705 3.33099 2.25 3.90328 2.25 4.50002V31.5C2.25 32.0968 2.48705 32.6691 2.90901 33.091C3.33097 33.513 3.90326 33.75 4.5 33.75H22.5C23.0967 33.75 23.669 33.513 24.091 33.091C24.5129 32.6691 24.75 32.0968 24.75 31.5V29.25H22.5V31.5H4.5V4.50002H13.5V11.25C13.5 11.8468 13.7371 12.4191 14.159 12.841C14.581 13.263 15.1533 13.5 15.75 13.5H22.5V15.75H24.75ZM15.75 11.25V4.96127L22.0387 11.25H15.75Z" fill="#009ACE"/>
</svg>
