<svg width="36" height="36" viewBox="0 0 36 36" fill="none" xmlns="http://www.w3.org/2000/svg">
<path d="M27 24.75V31.5H4.5V4.5H18V2.25H4.5C3.90326 2.25 3.33097 2.48705 2.90901 2.90901C2.48705 3.33097 2.25 3.90326 2.25 4.5V31.5C2.25 32.0967 2.48705 32.669 2.90901 33.091C3.33097 33.5129 3.90326 33.75 4.5 33.75H27C27.5967 33.75 28.169 33.5129 28.591 33.091C29.0129 32.669 29.25 32.0967 29.25 31.5V24.75H27Z" fill="#009ACE"/>
<path d="M33.2464 6.48L29.5315 2.7675C29.1949 2.43769 28.7422 2.25296 28.2707 2.25296C27.7993 2.25296 27.3466 2.43769 27.01 2.7675L11.25 18.5175V24.75H17.4752L33.2351 9C33.5651 8.66353 33.75 8.21115 33.75 7.74C33.75 7.26885 33.5651 6.81647 33.2351 6.48H33.2464ZM16.5408 22.5H13.5014V19.4625L24.1281 8.83125L27.1788 11.88L16.5408 22.5ZM28.7661 10.2937L25.7154 7.245L28.2707 4.69125L31.3214 7.74L28.7661 10.2937Z" fill="#009ACE"/>
</svg>
