<svg width="32" height="26" viewBox="0 0 32 26" fill="none" xmlns="http://www.w3.org/2000/svg">
<path d="M21.7839 17.0116C20.1831 15.4256 17.8885 14.4404 15.7953 14.4404H15.7057C13.6125 14.4404 11.3168 15.4257 9.71601 17.0116C9.23329 17.4899 9.22967 18.269 9.70795 18.7517C9.94857 18.9946 10.2653 19.1162 10.5821 19.1162C10.895 19.1162 11.2081 18.9975 11.448 18.7599C12.5876 17.6308 14.2584 16.9014 15.7049 16.9014H15.7946C17.2409 16.9014 18.9124 17.6308 20.0519 18.7599C20.5346 19.2381 21.3138 19.2346 21.792 18.7517C22.2703 18.269 22.2667 17.4899 21.7839 17.0116Z" fill="#009ACE"/>
<path d="M31.1697 6.72844C27.1257 2.38963 21.6497 6.15233e-05 15.7498 0C9.8503 6.15233e-05 4.37429 2.38963 0.3303 6.72844C-0.13297 7.22554 -0.105593 8.00418 0.391516 8.46752C0.888686 8.93079 1.66726 8.90347 2.1306 8.4063C5.70387 4.57241 10.5406 2.46099 15.7502 2.46093C20.9594 2.46099 25.7961 4.57241 29.3694 8.4063C29.6117 8.6663 29.9403 8.79784 30.2698 8.79784C30.5702 8.79784 30.8713 8.68845 31.1085 8.46752C31.6056 8.00412 31.633 7.22554 31.1697 6.72844Z" fill="#009ACE"/>
<path d="M15.75 25.3037C16.8373 25.3037 17.7187 24.4223 17.7187 23.335C17.7187 22.2477 16.8373 21.3662 15.75 21.3662C14.6627 21.3662 13.7812 22.2477 13.7812 23.335C13.7812 24.4223 14.6627 25.3037 15.75 25.3037Z" fill="#009ACE"/>
<path d="M26.6517 11.4615C23.6624 8.44968 19.7908 6.79108 15.75 6.7912C11.7082 6.79126 7.83654 8.44993 4.84823 11.4616C4.36958 11.944 4.37259 12.7231 4.855 13.2017C5.3374 13.6804 6.11647 13.6774 6.59512 13.195C9.11789 10.6525 12.3692 9.25219 15.75 9.25213C19.1299 9.25201 22.3812 10.6523 24.9049 13.1951C25.1455 13.4374 25.4618 13.5588 25.7783 13.5588C26.0916 13.5588 26.4051 13.4398 26.6451 13.2016C27.1274 12.7229 27.1304 11.9438 26.6517 11.4615Z" fill="#009ACE"/>
</svg>
