<svg width="14" height="5" viewBox="0 0 14 5" fill="none" xmlns="http://www.w3.org/2000/svg">
<path d="M0.5 0C0.223858 0 0 0.223857 0 0.5L0 4.5C0 4.77614 0.223858 5 0.5 5H3.5C3.77614 5 4 4.77614 4 4.5V0.5C4 0.223858 3.77614 0 3.5 0H0.5Z" fill="#009ACE"/>
<path d="M5.5 0C5.22386 0 5 0.223857 5 0.5V4.5C5 4.77614 5.22386 5 5.5 5L8.5 5C8.77614 5 9 4.77614 9 4.5V0.5C9 0.223858 8.77614 0 8.5 0L5.5 0Z" fill="#009ACE"/>
<path d="M10.5 0C10.2239 0 10 0.223857 10 0.5V4.5C10 4.77614 10.2239 5 10.5 5H13.5C13.7761 5 14 4.77614 14 4.5V0.5C14 0.223858 13.7761 0 13.5 0H10.5Z" fill="#009ACE"/>
<path d="M10.5 0C10.2239 0 10 0.223857 10 0.5V4.5C10 4.77614 10.2239 5 10.5 5H13.5C13.7761 5 14 4.77614 14 4.5V0.5C14 0.223858 13.7761 0 13.5 0H10.5Z" fill="#009ACE"/>
</svg>
