<svg width="114" height="114" viewBox="0 0 114 114" fill="none" xmlns="http://www.w3.org/2000/svg">
<path d="M56.9442 51.9567V51.7519C57.0045 51.1376 57.1853 49.0898 57.788 46.5044C58.2701 44.3542 59.6362 41.6665 61.5849 40.4634C63.4131 39.3627 65.623 38.7739 68.0137 38.7739C69.9222 38.7739 71.9513 39.1579 73.3776 39.7978C76.15 41.0521 77.8777 42.1784 78.6211 47.5283C78.6411 47.6307 78.6612 48.3986 78.6813 48.501" stroke="black" stroke-width="1.25" stroke-miterlimit="10"/>
<path d="M69.2667 75.9424C69.7288 75.9424 70.0502 75.9424 70.1306 75.9424H70.1507C70.2913 75.9424 70.6127 75.968 71.0949 75.968C71.7779 75.968 72.8025 75.9168 73.9075 75.6864C75.7155 75.3281 78.066 74.4065 79.1107 72.0772L79.3719 55.2339" stroke="black" stroke-width="1.25" stroke-miterlimit="10"/>
<path d="M56.9442 51.7524V51.394" stroke="black" stroke-width="1.25" stroke-miterlimit="10"/>
<path d="M93.4268 68.6216C90.3932 72.666 87.1186 72.6404 87.0784 72.6404C87.0784 72.6404 85.8329 72.7684 84.4467 72.7684C83.0605 72.7684 81.9154 72.6148 81.3528 72.3588C80.3885 71.8981 79.3439 71.2069 79.3439 71.2069" stroke="black" stroke-width="1.25" stroke-miterlimit="10"/>
<path d="M78.8616 47.3489C79.2433 46.5554 80.7299 41.6662 83.9242 40.4375C84.2858 40.284 86.114 40.1304 86.4957 40.1304C87.2792 40.1304 88.2033 40.4375 88.9667 41.0263C90.7748 42.4086 92.0003 45.0195 92.2614 46.8882" stroke="black" stroke-width="1.25" stroke-miterlimit="10"/>
<path d="M102.327 64.5503C101.443 67.5196 100.257 69.465 98.8109 70.1306C98.4091 70.3098 97.9671 70.4122 97.5251 70.4122C96.5206 70.4122 95.697 69.9258 95.2952 69.6442C94.4112 69.0043 92.9246 67.4684 92.6433 67.1101" stroke="black" stroke-width="1.25" stroke-miterlimit="10"/>
<path d="M92.4695 45.6086C92.811 44.9687 95.0812 40.9499 97.6928 39.0045C98.5567 38.3389 99.2598 38.0317 99.8424 38.0317C100.063 38.0317 100.746 38.3645 100.927 38.4413C101.61 38.7741 103.238 41.6154 104.021 43.4584" stroke="black" stroke-width="1.25" stroke-miterlimit="10"/>
<path d="M103.271 45.0203C104.817 43.6892 107.047 41.4878 108.594 41.4878C108.614 41.4878 108.634 41.4878 108.655 41.4878C108.775 41.5134 109.016 41.7694 109.157 42.0509C109.98 43.638 110.503 47.9128 109.257 55.2337C108.233 61.326 103.07 64.5513 101.663 64.9865C101.663 64.9865 103.09 54.3122 103.09 53.6211" stroke="black" stroke-width="1.25" stroke-miterlimit="10"/>
<path d="M34.5031 46.1204C38.8625 40.2074 42.9407 38.1595 47.7221 38.9531C53.4879 39.9002 56.2603 44.6358 56.9634 51.7519" stroke="black" stroke-width="1.25" stroke-miterlimit="10"/>
<path d="M56.5221 70.5917L56.5422 69.5678L56.7833 57.0762" stroke="black" stroke-width="1.25" stroke-miterlimit="10"/>
<path d="M33.0771 55.6938L33.5191 64.1155C33.2981 72.6395 36.8138 74.9689 42.8006 75.4297C43.0216 75.4297 43.2426 75.4553 43.4636 75.4809L69.4569 75.9681" stroke="black" stroke-width="1.25" stroke-miterlimit="10"/>
<path d="M33.72 71.181C30.1641 74.2527 22.7912 73.9199 20.9028 68.2116C20.9028 68.2116 19.5166 59.8412 19.8782 54.5425" stroke="black" stroke-width="1.25" stroke-miterlimit="10"/>
<path d="M35.9299 46.6585C33.1575 43.4331 24.1774 37.9553 20.3604 44.4827" stroke="black" stroke-width="1.25" stroke-miterlimit="10"/>
<path d="M10.9586 63.2705C11.943 68.8508 16.3025 72.3321 20.1195 68.1341" stroke="black" stroke-width="1.25" stroke-miterlimit="10"/>
<path d="M22.0076 44.6868C18.7732 40.8727 12.686 37.5194 8.64795 44.738" stroke="black" stroke-width="1.25" stroke-miterlimit="10"/>
<path d="M9.95381 43.8681C1.43576 34.5506 2.29962 60.865 10.9985 64.2951L10.657 53.5952" stroke="black" stroke-width="1.25" stroke-miterlimit="10"/>
<path d="M93.6077 56.2578L93.5066 68.9031" stroke="black" stroke-width="1.25" stroke-miterlimit="10"/>
</svg>
