<svg width="58" height="93" viewBox="0 0 58 93" fill="none" xmlns="http://www.w3.org/2000/svg">
<path d="M12.5284 65.013C12.4687 65.2961 12.505 65.5911 12.6318 65.8512C12.7586 66.1113 12.9687 66.3217 13.2285 66.449C13.9431 66.8068 14.5227 67.3864 14.8805 68.101L17.8895 74.544C18.1794 75.1231 18.5996 75.627 19.1174 76.016L20.8835 77.34C21.3269 77.6725 21.8468 77.8881 22.3954 77.9667C22.944 78.0454 23.5035 77.9846 24.0225 77.79L28.9225 75.954C29.3673 75.7871 29.8418 75.7139 30.3162 75.7389C30.7906 75.7638 31.2546 75.8864 31.6794 76.099L34.6794 77.599C35.1775 77.8475 35.7349 77.9526 36.2893 77.9024C36.8437 77.8523 37.3731 77.6489 37.8185 77.315L39.5085 76.049C40.0536 75.6399 40.4959 75.1096 40.8005 74.5L43.9814 67.712C44.0941 67.4868 44.2501 67.2861 44.4404 67.1212C44.6307 66.9563 44.8515 66.8305 45.0905 66.751C45.3862 66.6522 45.6594 66.4957 45.8943 66.2906C46.1292 66.0855 46.321 65.8358 46.4587 65.5561C46.5965 65.2763 46.6774 64.972 46.6968 64.6608C46.7161 64.3496 46.6736 64.0376 46.5715 63.743C46.3185 63.011 46.0715 62.314 45.9435 62.029L46.0775 62.096C45.5455 58.4623 45.214 54.8021 45.0845 51.132C45.0845 47.003 46.0775 43.3 46.0775 35.184C46.0775 27.25 36.5905 5.31599 28.7445 4.33199C25.5025 2.20299 22.6444 0.242985 21.2524 1.29499C20.4464 1.90299 21.0035 4.06799 21.1625 5.58299C19.3825 6.49499 17.2285 9.48899 16.0905 14.209C15.7929 14.5308 15.5253 14.8789 15.2905 15.249C13.0785 19.184 11.3185 23.676 11.3185 28.207C11.3185 38.886 15.2905 44.867 15.2905 49.139C15.2905 52.83 13.8095 59.807 13.4075 61.639C13.028 62.7393 12.7341 63.8674 12.5284 65.013Z" fill="#EBF2F7" stroke="#9F00A7"/>
<path d="M37.7869 52.3419L35.7869 51.3419L41.0789 63.4089C40.4259 63.9924 39.8901 64.6949 39.4999 65.4789L36.3739 72.1449L35.7988 72.5759L33.9099 71.6309C32.7358 71.0454 31.4419 70.7401 30.1299 70.7389C29.1162 70.7381 28.1108 70.9204 27.1619 71.2769L23.9689 72.4769L24.2828 73.1499L25.1359 73.7899L29.1619 72.2799C30.1108 71.9234 31.1162 71.7411 32.1299 71.7419C33.4419 71.7431 34.7358 72.0484 35.9099 72.6339L37.7988 73.5789L38.3739 73.1479L41.4999 66.4819C41.8901 65.6979 42.4259 64.9954 43.0789 64.4119L37.7869 52.3419Z" fill="#D1E2ED"/>
<path d="M36.0436 19.7309C39.3056 26.2459 41.0656 32.5539 41.0656 35.1819C41.063 38.5715 40.8652 41.9581 40.4727 45.3249C40.2369 47.2515 40.1034 49.1892 40.0726 51.1299C40.0726 51.8719 40.1006 52.6839 40.1476 53.5229L42.1476 54.5279C42.1006 53.6869 42.0726 52.8739 42.0726 52.1279C42.1034 50.1872 42.2369 48.2495 42.4727 46.3229C42.8652 42.9561 43.063 39.5695 43.0656 36.1799C43.0656 33.5519 41.3056 27.2439 38.0436 20.7289C34.3436 13.3289 31.0856 10.4999 30.1096 10.2889L29.5226 10.2159C31.0466 11.5749 33.4316 14.5149 36.0436 19.7309Z" fill="#D1E2ED"/>
<path d="M22.2805 72.142L19.3475 65.865C18.9791 65.1283 18.5077 64.4478 17.9475 63.844L18.0775 63.651L18.2855 62.71C18.8855 59.978 20.2855 53.185 20.2855 49.137C20.1451 46.606 19.6215 44.1109 18.7325 41.737C17.1983 37.3862 16.3813 32.8149 16.3135 28.202C16.3135 25.191 17.4135 21.702 19.5765 17.816C19.6525 17.716 19.7485 17.606 19.8555 17.484L20.6555 16.563L20.9425 15.376C21.7815 11.895 23.1335 10.286 23.5045 9.992L26.1715 8.625L26.9615 9.144L28.1125 9.288C29.0885 9.499 32.3435 12.334 36.0465 19.728C39.3085 26.243 41.0685 32.551 41.0685 35.179C41.066 38.5686 40.868 41.9552 40.4755 45.322C40.2397 47.2486 40.1062 49.1863 40.0754 51.127C40.0754 51.87 40.1035 52.684 40.1505 53.527L35.7875 51.336L41.0785 63.403C40.4264 63.9871 39.891 64.6895 39.5005 65.473L36.3745 72.139L35.7994 72.57L33.9105 71.625C32.7362 71.0399 31.4424 70.7346 30.1305 70.733C29.1169 70.7323 28.1114 70.9146 27.1625 71.271L23.1365 72.781L22.2805 72.142Z" fill="#EBF2F7"/>
<path d="M23.0818 70.492L20.2417 64.418C19.9267 63.7887 19.5438 63.1959 19.0997 62.65L19.2588 61.925C19.8678 59.161 21.2827 52.283 21.2827 48.137C21.14 45.5061 20.6006 42.9118 19.6827 40.442C18.1711 36.1897 17.369 31.7176 17.3087 27.205C17.3087 24.385 18.3507 21.08 20.4087 17.379C20.4677 17.306 21.5697 16.037 21.5697 16.037L21.9137 14.614C22.2317 12.8648 22.9741 11.2204 24.0757 9.825L26.1088 8.784L26.6088 9.11L27.8738 9.269C31.9018 10.818 40.0737 27.469 40.0737 34.182C40.0708 37.5368 39.8748 40.8887 39.4867 44.221C39.2462 46.182 39.1106 48.1545 39.0807 50.13C39.0807 50.3707 39.0837 50.6183 39.0897 50.873L33.7637 48.198L39.8917 62.174C39.3791 62.7276 38.948 63.3516 38.6117 64.027L35.6367 70.369L34.3638 69.732C33.0506 69.0765 31.6034 68.7343 30.1357 68.732C29.002 68.7303 27.8772 68.9336 26.8157 69.332L23.3037 70.649L23.0818 70.492Z" fill="url(#paint0_linear_4082_95479)"/>
<path d="M38.1471 52.5229L35.7842 51.3359V51.3409L38.1451 52.5269L38.1471 52.5229Z" fill="white"/>
<path d="M19.3475 65.865C18.9791 65.1283 18.5077 64.4478 17.9475 63.844L18.0775 63.651L18.2855 62.71C18.8855 59.978 20.2855 53.185 20.2855 49.137C20.1449 46.606 19.6213 44.111 18.7325 41.737C17.1986 37.3864 16.3819 32.8155 16.3145 28.203C16.3145 25.192 17.4145 21.703 19.5765 17.817C19.6525 17.717 19.7495 17.607 19.8555 17.485L20.6555 16.564L20.9415 15.377C21.7815 11.895 23.1335 10.287 23.5035 9.99297L26.1715 8.62598L26.9615 9.14497L27.5255 9.21598C27.1276 8.80785 26.6454 8.49148 26.1125 8.28898L24.9615 8.14497L24.1715 7.62598L21.5005 8.99998C21.1305 9.29398 19.7785 10.9 18.9385 14.384L18.6525 15.571L17.8525 16.492C17.7465 16.614 17.6525 16.725 17.5735 16.824C15.4085 20.706 14.3115 24.199 14.3115 27.21C14.379 31.8225 15.1956 36.3934 16.7295 40.744C17.6182 43.118 18.1418 45.613 18.2825 48.144C18.2825 52.192 16.8825 58.985 16.2825 61.717L16.0745 62.658L15.9445 62.851C16.5047 63.4548 16.9761 64.1353 17.3445 64.872L20.2775 71.149L21.1305 71.789L21.9635 71.476L19.3475 65.865Z" fill="white"/>
<path d="M12.5284 65.013C12.4687 65.2961 12.505 65.5911 12.6318 65.8512C12.7586 66.1113 12.9687 66.3217 13.2285 66.449V66.449C13.9431 66.8068 14.5227 67.3864 14.8805 68.101L17.8895 74.544C18.1794 75.1231 18.5996 75.627 19.1174 76.016L20.8835 77.34C21.3269 77.6725 21.8468 77.8881 22.3954 77.9667C22.944 78.0454 23.5035 77.9846 24.0225 77.79L28.9225 75.954C29.3673 75.7871 29.8418 75.7139 30.3162 75.7389C30.7906 75.7638 31.2546 75.8864 31.6794 76.099L34.6794 77.599C35.1775 77.8475 35.7349 77.9526 36.2893 77.9024C36.8437 77.8523 37.3731 77.6489 37.8185 77.315L39.5085 76.049C40.0536 75.6399 40.4959 75.1096 40.8005 74.5L43.9814 67.712C44.0941 67.4868 44.2501 67.2861 44.4404 67.1212C44.6307 66.9563 44.8515 66.8305 45.0905 66.751V66.751C45.3862 66.6522 45.6594 66.4957 45.8943 66.2906C46.1292 66.0855 46.321 65.8358 46.4587 65.5561C46.5965 65.2763 46.6774 64.972 46.6968 64.6608C46.7161 64.3496 46.6736 64.0376 46.5715 63.743C46.3185 63.011 46.0715 62.314 45.9435 62.029L46.0775 62.096C45.5455 58.4623 45.214 54.8021 45.0845 51.132C45.0845 47.003 46.0775 43.3 46.0775 35.184C46.0775 27.25 36.5905 5.31599 28.7445 4.33199C25.5025 2.20299 22.6444 0.242985 21.2524 1.29499C20.4464 1.90299 21.0035 4.06799 21.1625 5.58299C19.3825 6.49499 17.2285 9.48899 16.0905 14.209C15.7929 14.5308 15.5253 14.8789 15.2905 15.249C13.0785 19.184 11.3185 23.676 11.3185 28.207C11.3185 38.886 15.2905 44.867 15.2905 49.139C15.2905 52.83 13.8095 59.807 13.4075 61.639C13.028 62.7393 12.7341 63.8674 12.5284 65.013V65.013Z" stroke="#7AABCC" stroke-miterlimit="10"/>
<path d="M28.7684 39.046C27.5734 35.793 24.2195 26.381 24.2195 23.221C24.2195 19.377 26.2054 17.098 26.2054 14.25C26.2054 11.402 24.7875 5.27997 22.2335 5.27997C19.6795 5.27997 15.2825 11.118 15.2825 21.228C15.2825 31.338 18.2615 44.438 18.2615 48.14" stroke="#7AABCC" stroke-miterlimit="10"/>
<path d="M46.0652 62.094C45.5333 58.4604 45.2018 54.8002 45.0723 51.1301C45.0723 47.0011 46.0652 43.2981 46.0652 35.1821C46.0652 27.0661 36.1353 4.28204 28.1913 4.28204C20.5313 4.28204 32.1633 20.0871 32.1633 25.2141C32.1633 29.2921 30.2773 36.345 29.5073 39.058" stroke="#7AABCC" stroke-miterlimit="10"/>
<path d="M45.6884 67.0001C42.2794 64.3331 35.7333 60.0001 32.3243 60.0001C28.9153 60.0001 15.5001 64.3331 14.0001 67.5001" stroke="#7AABCC" stroke-miterlimit="10"/>
<path d="M47.3243 64.0001C44.0523 60.8331 34.3704 57.0001 30.9614 57.0001C27.5524 57.0001 12.5001 61.4171 12.5001 66.0001" stroke="#7AABCC" stroke-miterlimit="10"/>
<path d="M22.8585 77.5C22.2528 77.4991 21.6636 77.3027 21.1785 76.94L19.4125 75.616C18.9569 75.2737 18.587 74.8304 18.3315 74.321L15.3315 67.89C14.9246 67.0743 14.2647 66.412 13.4504 66.002C13.2902 65.9235 13.1609 65.7936 13.083 65.633C13.0051 65.4725 12.9831 65.2905 13.0205 65.116C13.1931 64.0247 13.4607 62.9507 13.8204 61.906L13.8555 61.842L13.8884 61.742C14.3334 59.722 15.7885 52.842 15.7885 49.136C15.6306 47.0626 15.1763 45.0225 14.4395 43.078C12.7594 38.2964 11.8734 33.2719 11.8165 28.204C11.8165 24.38 13.1315 20.104 15.7245 15.491C15.9418 15.1512 16.1885 14.8309 16.4615 14.534L16.5415 14.442L16.5704 14.323C17.6794 9.72303 19.7875 6.84303 21.3845 6.02303L21.6844 5.86703L21.6484 5.52603C21.6144 5.20003 21.5625 4.84503 21.5095 4.48103C21.3635 3.48903 21.1435 1.99003 21.5425 1.68903C21.7337 1.5538 21.9645 1.48623 22.1985 1.49703C23.5195 1.49703 25.7305 2.95103 28.0715 4.49003L28.5555 4.80903L28.6715 4.82303C36.1785 5.76503 45.5665 27.415 45.5665 35.179C45.5627 38.7249 45.3566 42.2676 44.9495 45.79C44.73 47.5611 44.6045 49.3426 44.5735 51.127C44.6743 54.5042 44.9637 57.8731 45.4404 61.218L44.9185 60.955L45.4745 62.225C45.5455 62.385 45.7085 62.807 46.0885 63.902C46.1694 64.1342 46.2031 64.3801 46.1879 64.6255C46.1726 64.8709 46.1086 65.1107 45.9995 65.331C45.8913 65.5518 45.7401 65.7487 45.5548 65.9103C45.3695 66.0718 45.1539 66.1948 44.9205 66.272C44.6185 66.3713 44.3392 66.5295 44.0989 66.7376C43.8585 66.9456 43.662 67.1994 43.5205 67.484L40.3335 74.284C40.0633 74.8191 39.6735 75.2848 39.1945 75.645L37.5045 76.911C37.0726 77.2371 36.5457 77.4127 36.0045 77.411C35.6171 77.4107 35.2349 77.3203 34.8884 77.147L31.8884 75.647C31.3392 75.3734 30.7341 75.2307 30.1205 75.23C29.6464 75.2298 29.1763 75.3151 28.7325 75.482L23.8325 77.318C23.5213 77.4362 23.1914 77.4979 22.8585 77.5Z" fill="#EBF2F7"/>
<path d="M36.0427 19.731C39.3047 26.246 41.0647 32.555 41.0647 35.182C41.0619 38.5716 40.8643 41.9581 40.4728 45.325C40.2365 47.2515 40.103 49.1893 40.0728 51.13C40.0728 51.872 40.1017 52.684 40.1477 53.523L42.1477 54.523C42.1017 53.683 42.0728 52.869 42.0728 52.123C42.103 50.1823 42.2365 48.2445 42.4728 46.318C42.8643 42.9511 43.0619 39.5646 43.0647 36.175C43.0647 33.548 41.3047 27.239 38.0427 20.724C34.3427 13.33 31.0858 10.495 30.1088 10.284L29.5217 10.211C31.0457 11.575 33.4307 14.515 36.0427 19.731Z" fill="#D1E2ED"/>
<path d="M37.786 52.342L35.786 51.342L41.077 63.409C40.4248 63.9933 39.8893 64.6961 39.499 65.48L36.373 72.145L35.799 72.576L33.9091 71.631C32.7348 71.0459 31.441 70.7406 30.129 70.739C29.1151 70.7383 28.1093 70.9206 27.16 71.277L23.968 72.477L24.282 73.15L25.135 73.788L29.16 72.279C30.1093 71.9226 31.1151 71.7403 32.129 71.741C33.441 71.7426 34.7348 72.0479 35.9091 72.633L37.799 73.578L38.373 73.147L41.499 66.482C41.8893 65.6981 42.4248 64.9953 43.077 64.411L37.786 52.342Z" fill="#D1E2ED"/>
<path d="M22.2797 72.1421L19.3467 65.8651C18.9783 65.1284 18.5069 64.4479 17.9467 63.8441L18.0767 63.6511L18.2847 62.7101C18.8847 59.9781 20.2847 53.1851 20.2847 49.1371C20.1442 46.606 19.6206 44.111 18.7317 41.7371C17.1975 37.3862 16.3804 32.815 16.3126 28.2021C16.3126 25.1911 17.4127 21.7021 19.5757 17.8161C19.6517 17.7161 19.7476 17.6061 19.8546 17.4841L20.6547 16.5631L20.9417 15.3761C21.7807 11.8951 23.1327 10.2861 23.5037 9.99206L26.1707 8.62506L26.9607 9.14406L28.1117 9.28806C29.0877 9.49906 32.3427 12.3341 36.0457 19.7281C39.3077 26.2431 41.0676 32.5511 41.0676 35.1791C41.0651 38.5687 40.8671 41.9553 40.4746 45.3221C40.2389 47.2486 40.1053 49.1864 40.0746 51.1271C40.0746 51.8701 40.1027 52.6841 40.1497 53.5271L35.7866 51.3361L41.0776 63.4031C40.4256 63.9872 39.8901 64.6896 39.4996 65.4731L36.3737 72.1391L35.7986 72.5701L33.9097 71.6251C32.7354 71.04 31.4416 70.7347 30.1296 70.7331C29.116 70.7324 28.1105 70.9146 27.1616 71.2711L23.1356 72.7811L22.2797 72.1421Z" fill="#EBF2F7"/>
<path d="M23.0808 70.492L20.2407 64.418C19.9257 63.7887 19.5428 63.1959 19.0988 62.65L19.2578 61.925C19.8668 59.161 21.2817 52.283 21.2817 48.137C21.139 45.5061 20.5996 42.9118 19.6818 40.442C18.1701 36.1897 17.368 31.7176 17.3077 27.205C17.3077 24.385 18.3497 21.08 20.4077 17.379C20.4667 17.306 21.5687 16.037 21.5687 16.037L21.9127 14.614C22.2307 12.8648 22.9731 11.2204 24.0747 9.825L26.1078 8.784L26.6078 9.11L27.8728 9.269C31.9008 10.818 40.0728 27.469 40.0728 34.182C40.0699 37.5368 39.8738 40.8887 39.4857 44.221C39.2452 46.182 39.1096 48.1545 39.0797 50.13C39.0797 50.3707 39.0827 50.6183 39.0887 50.873L33.7627 48.198L39.8907 62.174C39.3781 62.7276 38.947 63.3516 38.6107 64.027L35.6357 70.369L34.3628 69.732C33.0496 69.0765 31.6024 68.7343 30.1348 68.732C29.001 68.7303 27.8762 68.9336 26.8147 69.332L23.3027 70.649L23.0808 70.492Z" fill="url(#paint1_linear_4082_95479)"/>
<path d="M38.1462 52.523L35.7833 51.336L38.1443 52.522L38.1462 52.523Z" fill="white"/>
<path d="M19.3467 65.865C18.9789 65.1279 18.5075 64.4473 17.9467 63.844L18.0776 63.651L18.2847 62.71C18.8847 59.978 20.2847 53.185 20.2847 49.137C20.144 46.606 19.6204 44.111 18.7317 41.737C17.1978 37.3865 16.381 32.8156 16.3136 28.203C16.3136 25.192 17.4136 21.703 19.5746 17.817C19.6506 17.717 19.7476 17.607 19.8546 17.485L20.6547 16.563L20.9407 15.377C21.7807 11.895 23.1337 10.287 23.5037 9.99301L26.1707 8.62701L26.9607 9.14401L27.5247 9.21602C27.1271 8.80746 26.6448 8.49103 26.1117 8.28902L24.9607 8.14401L24.1707 7.62701L21.4996 9.00002C21.1296 9.29402 19.7766 10.9 18.9366 14.384L18.6506 15.57L17.8506 16.492C17.7436 16.614 17.6507 16.725 17.5707 16.824C15.4067 20.706 14.3097 24.199 14.3097 27.21C14.3771 31.8226 15.1937 36.3935 16.7277 40.744C17.6164 43.118 18.14 45.613 18.2806 48.144C18.2806 52.192 16.8806 58.985 16.2806 61.717L16.0736 62.658L15.9426 62.851C16.5034 63.4544 16.9749 64.1349 17.3427 64.872L20.2756 71.15L21.1287 71.788L21.9617 71.477L19.3467 65.865Z" fill="white"/>
<path d="M22.2 2.00001C23.372 2.00001 25.622 3.48002 27.8 4.91102L28.188 5.16601L28.382 5.29301L28.6121 5.32201C35.7391 6.22201 45.0699 27.74 45.0699 35.182C45.0661 38.7108 44.8612 42.2365 44.4561 45.742C44.2347 47.5301 44.1081 49.3286 44.077 51.13C44.1586 54.2144 44.4086 57.292 44.826 60.349H45.2313L45.021 62.429C45.086 62.577 45.242 62.982 45.621 64.068C45.6804 64.2375 45.7053 64.4172 45.6943 64.5965C45.6833 64.7758 45.6367 64.951 45.557 65.112C45.4777 65.2736 45.367 65.4177 45.2313 65.536C45.0957 65.6543 44.9378 65.7444 44.767 65.801C44.0264 66.0514 43.4151 66.585 43.067 67.285L39.897 74.051C39.6608 74.5229 39.3185 74.9336 38.897 75.251L37.207 76.518C36.8614 76.7787 36.4399 76.9192 36.007 76.918C35.6967 76.9176 35.3908 76.8453 35.113 76.707L32.113 75.207C31.4947 74.8981 30.8131 74.7369 30.1219 74.736C29.5877 74.7357 29.0578 74.8322 28.558 75.021L23.658 76.857C23.3996 76.9538 23.1259 77.0032 22.85 77.003C22.3532 77.0022 21.87 76.8413 21.472 76.544L19.705 75.219C19.3179 74.9273 19.0026 74.5511 18.783 74.119L15.7629 67.652C15.3064 66.7448 14.5702 66.0085 13.663 65.552C13.6026 65.5219 13.5539 65.4728 13.5243 65.4123C13.4947 65.3517 13.4858 65.2831 13.499 65.217C13.6845 64.1789 13.9353 63.1535 14.25 62.147L14.327 62.034L14.368 61.847C14.815 59.816 16.275 52.9 16.275 49.134C16.1199 47.0099 15.6577 44.9195 14.903 42.928C13.2396 38.1938 12.3614 33.2196 12.303 28.202C12.303 24.466 13.596 20.27 16.146 15.734C16.3468 15.424 16.5736 15.1316 16.824 14.86L16.985 14.677L17.042 14.438C18.114 9.99602 20.102 7.23802 21.597 6.46802L22.207 6.15501L22.136 5.47501C22.101 5.14201 22.049 4.77501 21.994 4.40701C21.826 3.63824 21.7838 2.84731 21.869 2.06502C21.9674 2.01339 22.0781 1.98987 22.189 1.99702L22.2 2.00001ZM22.189 0.997016C21.8463 0.985561 21.5096 1.08866 21.2321 1.29002C20.4321 1.89702 20.983 4.06202 21.141 5.57802C19.362 6.49002 17.2089 9.48402 16.0699 14.204C15.7724 14.5258 15.5047 14.8739 15.27 15.244C13.058 19.179 11.299 23.671 11.299 28.202C11.299 38.882 15.27 44.862 15.27 49.134C15.27 52.825 13.79 59.802 13.386 61.634C13.0101 62.7362 12.7189 63.8655 12.515 65.012C12.4552 65.2951 12.4916 65.5901 12.6184 65.8502C12.7452 66.1103 12.9551 66.3207 13.215 66.448C13.9298 66.8061 14.5093 67.386 14.8669 68.101L17.876 74.543C18.1658 75.1221 18.5862 75.626 19.104 76.015L20.87 77.34C21.4411 77.7679 22.1354 77.9991 22.849 77.999C23.2452 77.9997 23.6382 77.9285 24.009 77.789L28.9091 75.953C29.2969 75.8072 29.7076 75.7324 30.1219 75.732C30.6581 75.7322 31.1869 75.8575 31.666 76.098L34.666 77.598C35.0824 77.806 35.5415 77.9141 36.007 77.914C36.6561 77.914 37.2877 77.7035 37.807 77.314L39.495 76.048C40.0401 75.639 40.4824 75.1087 40.787 74.499L43.969 67.711C44.1968 67.2568 44.5952 66.9113 45.077 66.75C45.3729 66.6513 45.6462 66.4949 45.8812 66.2898C46.1162 66.0848 46.3083 65.8352 46.4462 65.5555C46.5841 65.2757 46.6651 64.9714 46.6847 64.6601C46.7042 64.3489 46.6619 64.0368 46.5601 63.742C46.3061 63.011 46.06 62.314 45.932 62.028L46.0649 62.096C45.5329 58.462 45.2015 54.8015 45.072 51.131C45.072 47.002 46.0649 43.3 46.0649 35.183C46.0649 27.249 36.578 5.31502 28.731 4.33102C26.111 2.61102 23.744 1.00101 22.197 1.00101L22.189 0.997016Z" fill="#7AABCC"/>
<path d="M28.7683 39.0461C27.5733 35.7931 24.2194 26.3811 24.2194 23.2211C24.2194 19.3771 26.2053 17.0981 26.2053 14.2501C26.2053 11.4021 24.7874 5.28009 22.2334 5.28009C19.6794 5.28009 15.2823 11.1181 15.2823 21.2281C15.2823 31.3381 18.2614 44.4381 18.2614 48.1401" stroke="#7AABCC" stroke-miterlimit="10"/>
<path d="M46.0652 62.094C45.5333 58.4604 45.2018 54.8002 45.0723 51.1301C45.0723 47.0011 46.0652 43.2981 46.0652 35.1821C46.0652 27.0661 36.1353 4.28204 28.1913 4.28204C20.5313 4.28204 32.1633 20.0871 32.1633 25.2141C32.1633 29.2921 30.2773 36.345 29.5073 39.058" stroke="#7AABCC" stroke-miterlimit="10"/>
<path d="M45.6884 67.0001C42.2794 64.3331 35.7333 60.0001 32.3243 60.0001C28.9153 60.0001 15.5001 64.3331 14.0001 67.5001" stroke="#7AABCC" stroke-miterlimit="10"/>
<path d="M47.3243 64.0001C44.0523 60.8331 34.3704 57.0001 30.9614 57.0001C27.5524 57.0001 12.5001 61.9171 12.5001 66.5001" stroke="#7AABCC" stroke-miterlimit="10"/>
<path d="M12.5283 65.0129C12.4685 65.296 12.5049 65.591 12.6317 65.8511C12.7585 66.1112 12.9685 66.3216 13.2284 66.4489V66.4489C13.943 66.8067 14.5226 67.3863 14.8804 68.1009L17.8894 74.5439C18.1792 75.1231 18.5995 75.627 19.1173 76.0159L20.8834 77.3399C21.3268 77.6725 21.8467 77.888 22.3953 77.9667C22.9439 78.0453 23.5034 77.9845 24.0223 77.7899L28.9224 75.9539C29.3672 75.7871 29.8416 75.7138 30.316 75.7388C30.7904 75.7638 31.2545 75.8864 31.6793 76.0989L34.6793 77.5989C35.1774 77.8475 35.7348 77.9525 36.2892 77.9024C36.8435 77.8522 37.373 77.6488 37.8184 77.3149L39.5084 76.0489C40.0535 75.6399 40.4958 75.1095 40.8004 74.4999L43.9813 67.7119C44.094 67.4868 44.25 67.286 44.4403 67.1211C44.6306 66.9562 44.8514 66.8304 45.0903 66.7509V66.7509C45.3861 66.6521 45.6593 66.4956 45.8942 66.2905C46.129 66.0854 46.3209 65.8358 46.4586 65.556C46.5964 65.2763 46.6773 64.972 46.6967 64.6608C46.716 64.3496 46.6734 64.0376 46.5714 63.7429C46.3184 63.0109 46.0714 62.3139 45.9434 62.0289L46.0774 62.0959C45.5454 58.4622 45.2139 54.8021 45.0844 51.1319C45.0844 47.0029 46.0774 43.2999 46.0774 35.1839C46.0774 27.2499 36.5904 5.31593 28.7444 4.33193C25.5024 2.20293 22.6443 0.242924 21.2523 1.29492C20.4463 1.90292 21.0034 4.06793 21.1624 5.58293C19.3824 6.49493 17.2283 9.48893 16.0903 14.2089C15.7928 14.5307 15.5251 14.8788 15.2904 15.2489C13.0784 19.1839 11.3184 23.6759 11.3184 28.2069C11.3184 38.8859 15.2904 44.8669 15.2904 49.1389C15.2904 52.8299 13.8093 59.8069 13.4073 61.6389C13.0279 62.7393 12.734 63.8673 12.5283 65.0129V65.0129Z" stroke="#9F00A7" stroke-width="2" stroke-linecap="round" stroke-linejoin="round"/>
<defs>
<linearGradient id="paint0_linear_4082_95479" x1="-4694.78" y1="70.649" x2="-4694.78" y2="8.784" gradientUnits="userSpaceOnUse">
<stop stop-color="white"/>
<stop offset="0.25" stop-color="#F2F7FA"/>
</linearGradient>
<linearGradient id="paint1_linear_4082_95479" x1="-4694.78" y1="70.649" x2="-4694.78" y2="8.784" gradientUnits="userSpaceOnUse">
<stop stop-color="white"/>
<stop offset="0.25" stop-color="#F2F7FA"/>
</linearGradient>
</defs>
</svg>
