<svg width="114" height="114" viewBox="0 0 114 114" fill="none" xmlns="http://www.w3.org/2000/svg">
<path d="M99.9333 66.5778C102.824 65.5513 104.489 64.3496 107.589 62.4969C108.699 67.6293 109.485 75.5656 109.577 80.047C109.624 82.2 109.462 85.0791 108.791 87.0569C106.016 95.2436 101.413 99.8251 94.984 99.725C65.6351 99.2743 68.2947 99.725 48.9138 99.9503C40.4028 99.2243 37.165 99.8251 28.6771 99.2743C23.1728 98.9238 6.05835 98.6735 4.69383 87.6328C4.13876 83.1013 4 84.9039 4 77.6936C4 72.6865 4.90198 63.9741 7.65416 60.3188C7.65416 60.3188 11.609 64.0241 19.0792 67.8546C19.0792 67.8546 55.3895 82.3002 99.887 66.5778H99.9333Z" stroke="black" stroke-width="1.25" stroke-linecap="round" stroke-linejoin="round"/>
<path d="M56.7601 40.2689C56.7601 38.4413 56.6213 36.6137 56.7832 34.8111C57.1301 31.1809 57.292 27.3755 61.8482 26.7496C68.2776 25.8734 72.51 27.3755 73.1113 32.3075C73.8051 37.8654 74.1752 44.1494 72.3481 49.2567C71.2148 52.4612 65.8955 51.8354 62.4495 51.4348C60.8306 51.2345 57.7546 50.6336 57.2226 49.2567C56.1588 46.5779 56.8295 43.6988 56.6676 40.6694C56.737 40.6694 56.6676 40.2689 56.7601 40.2689Z" stroke="black" stroke-width="1.25" stroke-linecap="round" stroke-linejoin="round"/>
<path d="M54.5633 39.793C54.0545 52.1105 56.3673 50.7836 43.7396 51.034C39.5997 51.1341 38.2815 48.8058 38.3046 45.0505C38.3046 40.3938 38.5359 35.6621 39.3222 31.0806C40.1317 26.3989 42.8839 25.4476 49.4752 26.1486C53.4994 26.5742 54.5864 29.2029 54.5864 32.9583C54.5864 35.2365 54.5864 37.4897 54.5864 39.768L54.5633 39.793Z" stroke="black" stroke-width="1.25" stroke-linecap="round" stroke-linejoin="round"/>
<path d="M38.0724 40.3939C38.1418 49.4068 35.459 52.4361 27.0637 51.9354C25.6298 51.8603 23.0626 49.9075 23.132 48.2551C23.3401 43.3481 23.132 38.2909 24.0571 33.4841C24.7278 29.904 27.3875 27.4755 31.2035 27.9512C35.274 28.4519 37.8874 31.7566 38.0493 36.2881C38.0955 37.64 38.0493 39.017 38.0493 40.3689L38.0724 40.3939Z" stroke="black" stroke-width="1.25" stroke-linecap="round" stroke-linejoin="round"/>
<path d="M88.3061 39.5927C88.4217 43.6735 88.1211 46.6277 87.7048 49.7321C87.5891 50.5583 86.8722 51.9854 86.479 51.9854C83.1024 51.8351 79.5639 52.0104 76.4416 50.8337C75.054 50.308 73.8051 47.0033 73.7357 44.7751C73.6663 42.0462 73.9439 39.2923 74.1983 36.313C74.5452 32.082 75.7709 29.2279 79.6101 28.8023C83.218 28.4018 86.3171 29.7537 87.6816 33.8846C88.3523 35.9125 88.1905 38.1907 88.3061 39.5927Z" stroke="black" stroke-width="1.25" stroke-linecap="round" stroke-linejoin="round"/>
<path d="M105.56 47.5543C105.675 51.0843 106.276 53.1623 103.062 52.8118C100.125 52.4863 97.673 51.8354 97.9968 46.7531C98.1587 44.3247 98.2743 41.4456 98.945 39.1924C99.3845 37.7153 100.356 36.2382 101.466 36.0629C102.507 35.8877 104.403 37.4649 104.819 38.7417C105.745 41.5457 105.12 44.9506 105.56 47.5293L105.56 47.5543Z" stroke="black" stroke-width="1.25" stroke-linecap="round" stroke-linejoin="round"/>
<path d="M6.41138 46.6786C6.57327 45.0263 6.57327 42.3725 7.15146 39.9941C7.45212 38.7423 8.67787 37.3403 9.60298 37.14C10.3199 36.9898 11.8001 38.4419 11.9389 39.4433C12.4939 43.3739 13.0027 47.4797 12.7021 51.3853C12.6096 52.4869 9.69549 53.3631 7.98404 53.8138C7.614 53.9139 6.78141 51.9111 6.45762 50.7093C6.20322 49.783 6.41137 48.6314 6.41138 46.6786Z" stroke="black" stroke-width="1.25" stroke-linecap="round" stroke-linejoin="round"/>
<path d="M98.7138 45.1252C98.7138 45.4256 98.7601 46.1016 98.7138 46.402C98.4132 49.4563 99.2226 52.3104 95.3834 52.8361C91.683 53.3369 88.1676 50.5078 88.0982 46.4771C88.0289 42.4714 88.6764 38.3655 89.5322 34.4349C89.8328 33.083 91.683 31.5058 93.0013 31.2804C94.0652 31.1052 96.0773 32.5573 96.4704 33.759C97.6962 37.3891 98.1588 41.3197 98.6676 45.0501C98.7138 45.2003 98.5982 44.8498 98.6676 45.1252L98.7138 45.1252Z" stroke="black" stroke-width="1.25" stroke-linecap="round" stroke-linejoin="round"/>
<path d="M23.0397 41.6457C23.0166 49.2816 21.6983 51.3846 16.5871 52.1607C14.5287 52.4861 12.771 52.1106 12.7479 49.4318C12.6785 45.1006 12.5629 40.7444 13.0486 36.4633C13.3955 33.459 15.3151 30.9555 18.4835 31.4562C21.652 31.9569 23.0859 34.5356 23.0397 37.9905C23.0397 39.1922 23.0397 40.4189 23.0397 41.6207L23.0397 41.6457Z" stroke="black" stroke-width="1.25" stroke-linecap="round" stroke-linejoin="round"/>
<path d="M105.834 51.5823C108.586 48.3778 110 41.7717 110 37.3404C110 30.9563 109.884 32.5335 109.306 28.5278C108.751 24.5972 105.652 22.2188 101.767 20.7417C101.767 20.7417 51.6028 6.14594 11.6846 20.0658C9.1174 20.967 6.48086 25.6737 5.20884 29.0035C4.53814 30.756 4.37624 33.3096 4.4225 35.2123C4.53814 39.193 5.69451 47.3546 6.80464 51.9111" stroke="black" stroke-width="1.25" stroke-linecap="round" stroke-linejoin="round"/>
</svg>
