<svg width="100" height="114" viewBox="0 0 100 114" fill="none" xmlns="http://www.w3.org/2000/svg">
<path d="M30.0298 51.6743C31.1947 51.6743 32.15 50.6535 32.15 49.4086V35.7647C32.15 32.0051 36.0409 28.9427 39.559 28.9427H60.8307C64.3488 28.9427 68.2397 33.0757 68.2397 36.8602V49.4086C68.2397 50.6535 68.1698 51.6743 69.3581 51.6743L78.4679 51.9731C79.3066 49.6825 80.3783 47.5164 81.4035 45.425C81.986 44.205 82.5451 43.0348 83.081 41.8646L84.7818 37.4079C85.8302 34.0468 86.4826 30.5362 86.669 26.9011C86.902 22.1706 86.2496 17.938 84.7585 14.3278C82.4053 8.67605 77.1165 3.32306 70.5929 4.06999C68.2397 4.34386 66.2593 5.51405 63.976 6.85852L63.0907 7.38138C61.2035 8.47687 58.6872 9.84624 55.9147 10.643C54.377 11.0911 52.7228 11.365 50.9987 11.4397C49.3677 11.5144 47.7368 11.4148 46.1525 11.1409C42.7043 10.5434 39.559 8.90013 37.2058 7.55566L35.9943 6.85852C33.711 5.51405 31.7539 4.34386 29.3774 4.06999C22.8538 3.32306 17.565 8.67605 15.2118 14.3278C13.6974 17.9629 13.0683 22.1955 13.3013 26.9011C13.3945 28.5195 13.5809 30.1129 13.8372 31.6815L14.7924 36.1382C15.1186 37.3083 15.4914 38.4785 15.9341 39.6238C16.6796 41.5907 17.5883 43.4581 18.5668 45.425C19.592 47.5164 20.6404 49.6825 21.5025 51.9731L30.0764 51.6743H30.0298Z" stroke="black" stroke-width="1.25" stroke-linejoin="round"/>
<path d="M24.6244 58.4458H31.9868C35.5049 58.4458 38.3706 55.3834 38.3706 51.6238L38.0911 38.2538C38.0911 38.0048 39.0463 36.1375 40.4442 35.9881C44.7079 35.515 54.0274 35.4403 58.6871 35.8138C60.3879 35.9632 61.5995 37.8803 61.5995 38.1542L61.5296 51.6238C61.5296 55.3834 64.3953 58.4458 67.9134 58.4458H76.1146C75.4156 60.3629 74.9496 62.3049 74.6468 64.2967C74.1808 67.4089 74.0643 70.5709 73.9711 73.6831L73.9245 74.8284C73.6682 81.9243 74.3905 86.5552 71.4548 93.5515C69.1716 99.0289 65.8398 105.776 60.4345 109.337C60.0152 109.61 58.99 110.233 58.4542 109.909C58.2445 109.785 56.4971 108.54 56.2874 100.373C56.2175 97.1616 56.2874 93.8751 56.3573 90.6882C56.4971 84.5634 56.6369 85.0862 55.7049 78.7622C55.2389 75.7247 54.4701 71.8905 52.5829 69.4505C51.9305 68.604 50.9753 68.1309 49.9501 68.1309C48.925 68.1309 47.9697 68.604 47.3174 69.4505C45.4069 71.8905 44.638 75.6998 44.1953 78.7622C43.2401 85.1111 43.4032 84.5634 43.543 90.6882C43.6129 93.8751 43.6828 97.1616 43.6129 100.373C43.4032 108.565 41.6558 109.81 41.4461 109.909C40.9102 110.208 39.8851 109.61 39.4657 109.337C34.0604 105.776 30.7287 99.0289 28.4454 93.5515C25.5098 86.5552 26.232 81.8994 25.9757 74.8284L25.9291 73.6831C25.8126 70.3966 25.7194 67.0355 25.1603 63.749C24.8574 61.9563 24.4147 60.1637 23.7856 58.4458H24.6244Z" stroke="black" stroke-width="1.25" stroke-linejoin="round"/>
</svg>
