<svg width="114" height="114" viewBox="0 0 114 114" fill="none" xmlns="http://www.w3.org/2000/svg">
<path d="M12.4707 28.6274C12.6404 28.598 12.9565 28.6068 13.4033 28.6743C13.833 28.7393 14.3294 28.85 14.8311 28.9858C15.7245 29.2278 16.5699 29.5327 17.0498 29.7681L17.2324 29.8647C19.2943 31.0542 20.649 32.57 21.4316 34.8374L21.5811 35.3013L21.584 35.312C21.9131 36.3456 22.1887 37.8419 22.2744 39.3394C22.3611 40.8535 22.2475 42.2746 21.8691 43.2046C21.1221 45.0409 20.7189 46.321 20.6543 47.6411C20.5904 48.9474 20.8614 50.2427 21.3516 52.0933C21.7083 54.4601 21.5803 57.5342 21.1377 59.8804C20.9997 60.6119 20.5693 61.3552 20.085 62.2729C19.63 63.135 19.1337 64.1452 19.1104 65.2378C19.0929 66.0581 19.3136 66.7354 19.5137 67.3267C19.7187 67.9325 19.9006 68.4464 19.9346 69.0669C19.9888 70.059 19.7698 71.0028 19.5527 72.0591C19.3418 73.0852 19.1354 74.2107 19.3408 75.4038L19.3428 75.4165L19.3457 75.4282C19.5448 76.3589 20.1269 77.0146 20.5449 77.5552C20.9788 78.1163 21.3361 78.6523 21.4336 79.4771C21.5513 80.4736 21.2603 81.4294 20.9756 82.52C20.7066 83.5502 20.4324 84.7405 20.9053 85.9136C21.1437 86.505 21.5579 87.4723 22.0693 88.3618C22.3249 88.8063 22.6136 89.2471 22.9268 89.6157C23.2326 89.9757 23.6022 90.3154 24.0303 90.4937C24.3629 90.6321 24.6869 90.7533 25.0879 90.9233C25.4711 91.0858 25.7834 91.2362 25.957 91.3569C26.2325 91.5484 26.4977 91.8301 26.8506 92.1841C27.1743 92.5088 27.5738 92.895 28.0459 93.1382L28.0508 93.1411L28.1201 93.1753C28.7065 93.4741 29.4101 93.6033 30.0098 93.7075C30.6546 93.8196 31.1888 93.9053 31.6113 94.0806C31.7238 94.1273 31.9409 94.2804 32.2529 94.522C32.4514 94.6757 32.6908 94.8676 32.9062 95.0181L33.1113 95.1519C34.1127 95.7477 35.158 95.8489 36.126 95.8325C36.6039 95.8244 37.091 95.7863 37.5361 95.7593C37.9921 95.7316 38.4189 95.7141 38.8301 95.7378C39.1444 95.756 39.6314 95.8983 40.2695 96.0649C40.831 96.2116 41.54 96.3847 42.1025 96.3286C42.6197 96.277 43.1573 96.1568 43.6611 96.0347C44.0502 95.9404 44.4146 95.8462 44.7637 95.769L45.1084 95.6987C45.4165 95.6407 45.8874 95.5796 46.3867 95.5093C46.8594 95.4427 47.3751 95.3648 47.7041 95.2759H47.7051C48.1551 95.154 48.6183 94.8129 49.0244 94.4546C49.4517 94.0775 49.8988 93.6055 50.3193 93.1226C51.1611 92.1559 51.9387 91.0989 52.3096 90.5542C52.5039 90.2688 52.6286 89.9003 52.7227 89.5581C52.8193 89.2063 52.9032 88.8045 52.9854 88.4282C53.1615 87.6215 53.3334 86.9472 53.6055 86.5513C54.0276 85.9373 54.5842 85.5853 55.2549 85.2085C55.9017 84.8452 56.7025 84.4385 57.3408 83.7124C58.067 82.8862 58.3031 81.7504 58.4648 80.77C58.6394 79.7122 58.7334 78.8265 59.0557 78.1499C59.3275 77.5793 59.7364 77.1 60.208 76.5005C60.6605 75.9253 61.1521 75.2583 61.418 74.4058C61.6702 73.5972 61.621 72.8399 61.5322 72.1743C61.4391 71.4765 61.3207 70.9528 61.3291 70.3901C61.3603 69.6147 61.5776 68.8396 61.873 68.0386C62.0206 67.6385 62.1843 67.2424 62.3496 66.8374C62.5131 66.4367 62.6787 66.0267 62.8232 65.6187C63.3231 64.2077 64.1873 63.1168 65.1309 61.9565C66.0001 60.8877 66.9455 59.7505 67.5635 58.3071L67.6826 58.0142C68.1226 56.8729 67.9613 55.7626 67.9238 54.8247C67.8211 52.249 68.8084 49.6208 70.4541 47.5347C72.1009 45.4472 74.3646 43.9554 76.7559 43.5835H76.7578C78.8443 43.2538 81.2936 43.7988 82.9688 45.1069C84.9611 46.6628 85.4899 49.4101 85.0977 52.4126C84.709 55.3876 83.4344 58.4113 82.0967 60.2739C81.8752 60.5502 81.5367 60.8786 81.1816 61.2222C81.009 61.3893 80.8329 61.5602 80.6826 61.7163C80.5384 61.8661 80.3881 62.0324 80.2842 62.1909C79.3372 63.6358 79.1138 65.2621 79.0293 66.7407C79.0081 67.1123 78.9952 67.4807 78.9834 67.8354C78.9716 68.1925 78.9605 68.5352 78.9424 68.8677C78.9061 69.5357 78.8425 70.1275 78.7021 70.6431C77.572 74.793 76.0747 77.5037 72.71 79.7124L72.3535 79.9468L72.4414 80.3647C72.7033 81.6042 72.6243 83.2807 72.3096 84.5239C71.5594 87.4867 69.813 88.4954 67.29 90.0317L66.9902 90.2144V90.5659C66.9909 92.013 66.6639 93.4379 66.0381 94.7222C64.791 97.2673 62.8664 97.9667 60.2236 98.8433L59.9463 98.9351L59.8389 99.2065C58.9685 101.41 57.9367 103.089 56.5869 104.208C55.2538 105.314 53.5572 105.917 51.2607 105.874L50.9385 105.868L50.7471 106.126C49.9094 107.259 48.687 107.955 47.3496 108.39C45.1095 109.121 43.4968 108.939 41.0869 108.798L40.8721 108.797C40.6545 108.807 40.4317 108.847 40.2246 108.891C39.9453 108.951 39.6288 109.037 39.332 109.112C38.7079 109.269 38.0965 109.4 37.5332 109.371H37.5322C35.1543 109.248 34.4259 108.639 32.1572 107.88C31.6088 107.697 30.7589 107.598 29.9678 107.501C29.1309 107.399 28.3025 107.292 27.6641 107.113H27.6631C26.6083 106.817 26.1569 106.564 25.7783 106.301C25.3837 106.027 24.942 105.639 24.0723 105.191C23.4273 104.859 22.6961 104.639 22.0312 104.412C21.3445 104.177 20.6705 103.918 20.0127 103.5C18.8255 102.744 17.9653 102.149 17.2979 101.412C16.6449 100.69 16.1508 99.8031 15.7705 98.4321L15.7109 98.2173L15.5293 98.0884L14.9746 97.6948C13.6935 96.7771 12.5262 95.8505 11.8008 94.5298C11.435 93.8638 11.188 92.9407 11.0889 91.9595C10.9901 90.9813 11.0443 89.9993 11.2363 89.231L11.3389 88.8218L10.9971 88.5737C9.6353 87.5851 8.66054 86.1436 7.95312 84.4917C6.96581 82.1865 7.38379 79.5991 8.31934 77.1685L8.46777 76.7827L8.1709 76.4946C6.99531 75.3576 5.95517 73.2805 5.64746 71.6099C5.41467 70.3457 5.47489 69.3155 5.74219 68.353C6.01271 67.3792 6.50343 66.4444 7.1748 65.3755L7.42969 64.9692L7.10352 64.6187C4.37002 61.6704 4.43946 58.6067 4.81348 54.5229C5.04881 51.9537 5.72071 50.4172 6.95215 48.145L7.02832 48.0054L7.02734 47.8462L7.02246 44.8813L7.02148 44.6919L6.91602 44.5347L6.6582 44.1382C6.08186 43.2198 5.69258 42.3444 5.63574 41.2778C5.51098 38.9332 5.98263 35.8435 7.13281 33.2935C8.28948 30.7292 10.0501 28.8712 12.4258 28.6343L12.4482 28.6313L12.4707 28.6274Z" stroke="black" stroke-width="1.25"/>
<path d="M75.9171 4.65723C78.1091 4.44083 79.6462 5.34362 81.8712 6.16406C82.4655 6.38313 83.2457 6.42547 83.9142 6.46387C84.6375 6.50541 85.2817 6.5424 85.7853 6.68848C87.4164 7.16178 88.4538 7.84006 89.9982 8.78516L90.0441 8.81348L90.0948 8.83398C93.703 10.2632 97.2584 11.4981 98.2072 15.5557L98.2648 15.8008L98.4757 15.9385C100.046 16.9575 101.152 17.8281 101.879 18.9121C102.593 19.977 102.979 21.3088 102.975 23.3193V23.373L102.979 23.3955C102.979 23.4015 102.979 23.4107 102.979 23.4229C102.977 23.464 102.972 23.5209 102.966 23.5938C102.953 23.7421 102.933 23.9158 102.914 24.1064C102.896 24.2876 102.877 24.4837 102.871 24.6445C102.868 24.7229 102.868 24.8133 102.875 24.8975C102.879 24.9386 102.886 24.998 102.903 25.0625C102.916 25.1072 102.956 25.2526 103.086 25.3789V25.3799C104.753 27.0022 105.897 28.6045 106.382 30.3916C106.864 32.1657 106.718 34.2031 105.651 36.7402L105.488 37.126L105.783 37.4238C106.948 38.5957 107.918 40.4158 108.306 42.1084L108.375 42.4453C108.81 44.8046 108.138 46.5527 106.84 48.5566L106.594 48.9365L106.879 49.2891C107.846 50.4847 108.796 51.8891 109.086 53.3086L109.135 53.5928C109.744 57.9499 109.245 62.02 107.078 65.6865L106.997 65.8242L106.992 65.9844C106.959 67.0672 106.979 68.0666 107.001 69.1289L107.005 69.3018L107.098 69.4492C107.884 70.6948 108.242 71.5711 108.371 72.4775C108.504 73.4045 108.407 74.4145 108.185 75.9648C107.713 79.2517 106.525 82.5101 104.012 84.4102C103.319 84.9341 102.689 85.1893 102.042 85.2881C101.464 85.3763 100.843 85.3444 100.107 85.2314L99.7843 85.1787L99.3273 85.0869C97.0463 84.5709 94.8465 83.2009 93.546 81.1816C92.7694 79.9757 92.1847 78.2201 91.8976 76.373C91.6105 74.5264 91.6324 72.6626 92.006 71.252C92.247 70.3424 92.5543 69.6769 92.8536 68.8135C93.1444 67.9749 93.3784 67.0633 93.381 65.8613C93.383 64.8928 93.2264 64.1251 93.0411 63.4102C92.8527 62.6832 92.6553 62.073 92.5255 61.3018C92.2057 59.4016 92.5542 56.4036 92.8204 54.3564C92.9182 53.6043 93.3185 52.8527 93.7921 51.9521C94.2389 51.1026 94.7526 50.114 94.839 49.0449C94.9074 48.1973 94.7041 47.3965 94.507 46.6924C94.3007 45.9557 94.1051 45.3316 94.0704 44.6904C94.0378 44.0834 94.1261 43.4651 94.2589 42.8086C94.3853 42.1836 94.5701 41.4543 94.6769 40.7803L94.6759 40.7793C94.8794 39.4945 94.8029 38.6605 94.4445 37.8955C94.2744 37.5328 94.0516 37.2079 93.8146 36.8838C93.5696 36.5487 93.3134 36.2182 93.0177 35.7871C92.5074 35.043 92.4458 34.2534 92.587 33.3652C92.6587 32.9147 92.7806 32.4534 92.9171 31.9678C93.0505 31.4933 93.2014 30.9836 93.3107 30.4854C93.5244 29.5097 93.2809 28.4855 92.9269 27.5947C92.5687 26.6937 92.0627 25.8462 91.6603 25.1982C91.1135 24.3179 90.6373 23.8238 90.045 23.4785C89.7621 23.3136 89.4694 23.1926 89.17 23.0781C88.8774 22.9662 88.5909 22.8628 88.2404 22.7217C88.2093 22.6974 88.1679 22.6647 88.1183 22.625C88.0028 22.5326 87.8494 22.4091 87.6925 22.2803C87.5357 22.1515 87.3765 22.0193 87.2482 21.9111C87.184 21.8571 87.1289 21.8096 87.0861 21.7725C87.0646 21.7539 87.0474 21.7383 87.0343 21.7266C87.0213 21.7149 87.0158 21.71 87.0157 21.71C85.6724 20.3878 84.3086 20.3145 82.8077 20.0322C82.4035 19.8869 82.1365 19.7269 81.8644 19.5361C81.5883 19.3425 81.2362 19.0639 80.7667 18.7842L80.7609 18.7803L80.5323 18.6562C79.392 18.0772 78.2391 18.0857 77.2072 18.1445C76.0628 18.2098 75.1119 18.3242 74.1661 18.043L74.1593 18.041L74.1515 18.0391C72.9815 17.7202 71.3606 17.3139 69.9386 18.0693L69.922 18.0781L69.9064 18.0869C69.4965 18.3365 69.0018 18.4064 68.4015 18.4248C68.2537 18.4293 68.106 18.4309 67.9523 18.4326C67.801 18.4343 67.6436 18.4357 67.4884 18.4414C67.1814 18.4527 66.8499 18.4798 66.5323 18.5635C66.0907 18.6798 65.6054 19.0188 65.171 19.3789C64.713 19.7587 64.2253 20.2371 63.7677 20.7285C63.3091 21.221 62.8721 21.7367 62.5157 22.1973C62.2546 22.5348 62.0215 22.8616 61.8566 23.1367L61.7159 23.3926L61.715 23.3955L61.6759 23.4756C61.3467 24.1517 61.0183 25.4696 60.8898 26.083V26.084C60.6537 27.2107 60.2495 27.7361 59.7404 28.1318C59.4639 28.3467 59.1441 28.5318 58.7511 28.752C58.3706 28.965 57.9287 29.2072 57.4601 29.5176C56.2409 30.2848 55.8506 31.6822 55.6232 32.8691C55.5645 33.1753 55.5138 33.483 55.4659 33.7754C55.4175 34.0713 55.372 34.3515 55.3195 34.6172C55.2124 35.1587 55.0891 35.5803 54.9152 35.8828C54.6058 36.4208 54.2814 36.864 53.963 37.2891C53.6515 37.7048 53.3257 38.1277 53.0626 38.5801C52.5378 39.4826 52.2692 40.4866 52.4816 41.9932L52.5304 42.3018C52.8422 44.2335 52.2116 45.4906 51.6046 47.3936C51.0681 49.0755 50.1057 50.3812 49.0636 51.7275C48.0373 53.0534 46.9141 54.4397 46.2394 56.1963C45.9305 57.0004 45.9529 58.0457 45.9806 58.9541C46.0104 59.9323 46.0514 60.8077 45.8956 61.501C45.2635 64.3151 43.6151 66.8806 41.4327 68.543C39.257 70.2002 36.5778 70.9435 33.8351 70.1943H33.8341C32.6309 69.8671 31.6438 69.4198 30.8693 68.7666C30.1027 68.1201 29.5104 67.2433 29.1388 65.999C28.6256 64.2801 28.7031 62.2714 29.1398 60.2598C29.5749 58.2554 30.3572 56.2935 31.2052 54.6943C31.5191 54.1127 32.0238 53.6046 32.6193 52.9766C33.1866 52.3782 33.8229 51.6812 34.2013 50.7998C34.9079 49.1537 34.9624 47.5044 35.0284 45.9883C35.0915 44.5408 35.1643 43.2032 35.7013 41.8848L35.8156 41.6211L35.8204 41.6094C36.6498 39.6934 37.0746 38.2859 38.3351 36.7686C38.7509 36.268 39.2414 35.8621 39.7706 35.4268C40.2844 35.0042 40.8477 34.5442 41.3048 33.9766L41.4425 33.8057L41.4435 33.5859C41.4441 33.363 41.4316 32.9685 41.421 32.6016C41.4099 32.2189 41.4005 31.8706 41.4044 31.7041C41.4559 29.4956 41.9705 28.09 42.8341 26.9863C43.7206 25.8536 45.014 24.983 46.7638 23.917L47.0587 23.7373L47.0636 23.3916C47.096 20.8978 47.7248 19.1676 48.8126 17.9121C49.91 16.6457 51.5383 15.7872 53.713 15.1689L54.004 15.0869L54.1202 14.8066C55.0171 12.6369 56.0435 10.9383 57.3898 9.79492C58.7162 8.66856 60.401 8.04093 62.7101 8.09766L62.9962 8.10449L63.1876 7.89355C65.8782 4.93662 69.1477 4.77585 72.6896 5.28516C72.8285 5.30515 72.9741 5.28922 73.0695 5.27637C73.1813 5.26127 73.3069 5.23733 73.4357 5.20996C73.6939 5.15508 74.006 5.07778 74.3156 5C74.97 4.83552 75.5797 4.68323 75.9034 4.6582L75.9171 4.65723Z" stroke="black" stroke-width="1.25"/>
</svg>
