<svg width="114" height="114" viewBox="0 0 114 114" fill="none" xmlns="http://www.w3.org/2000/svg">
<path d="M19.7093 44.3128C18.6688 43.8244 17.6284 43.4337 16.4356 43.3116C11.3603 42.7988 7.24923 46.486 5.44748 50.3931C4.43241 52.5664 3.97562 55.0815 4.001 57.8409L4.07713 59.6723C4.15326 60.3805 4.25477 61.1374 4.40703 61.9921L5.11758 64.898C5.39673 65.7771 5.65049 66.5096 5.95502 67.1934C6.48793 68.4631 7.14773 69.6597 7.88366 71.0027C8.59421 72.2969 9.33013 73.64 9.88842 75.0318C11.1065 77.9865 11.2334 81.2587 11.3349 84.4087V85.1413C11.5379 89.7565 12.7053 94.4205 14.8369 98.9869C16.5118 102.601 18.9479 107.045 23.0082 109.438C23.9726 110.024 24.7592 110.146 25.3683 109.829C26.0535 109.463 27.2462 108.095 27.3984 102.967C27.4492 100.892 27.3984 98.7915 27.3477 96.7403C27.2462 92.8821 27.1447 88.9018 27.8045 84.946C28.109 83.1145 28.6165 80.8436 29.8092 79.4761C30.3675 78.8412 31.5095 78.8412 32.0678 79.4761C33.2605 80.868 33.768 83.139 34.0725 84.9704C34.7323 88.9507 34.6308 92.931 34.5293 96.7648C34.4786 98.7915 34.4278 100.892 34.4786 102.967C34.6308 108.095 35.8235 109.463 36.5087 109.829C36.7117 109.927 36.9401 110 37.2193 110C37.7014 110 38.2597 109.804 38.8688 109.438C42.9037 107.021 45.3652 102.576 47.0401 98.9869C49.1717 94.4205 50.3137 89.7809 50.5167 85.1413V84.4087C50.6436 81.6982 50.7959 78.9389 51.5825 76.3261C43.6142 75.1539 35.9758 71.5644 29.9869 65.5329C23.9979 59.5014 20.6228 51.9803 19.76 44.2883L19.7093 44.3128Z" stroke="black" stroke-width="1.25" stroke-miterlimit="10"/>
<path d="M51.506 76.3509C62.7226 78.0114 74.5735 74.8614 83.4047 66.7298C98.5039 52.8354 99.0622 29.8083 84.6228 15.2546C70.1833 0.72528 46.253 0.188063 31.1284 14.0825C22.2973 22.214 18.4654 33.4467 19.6835 44.2888" stroke="black" stroke-width="1.25" stroke-miterlimit="10"/>
<path d="M19.7094 44.313C20.5722 52.0294 23.9219 59.526 29.9362 65.5575" stroke="black" stroke-width="1.25" stroke-miterlimit="10"/>
<path d="M83.405 66.7534L110 93.6387" stroke="black" stroke-width="1.25" stroke-miterlimit="10"/>
<path d="M39.2241 23.3864C49.654 13.7897 66.1997 14.156 76.1728 24.1922" stroke="black" stroke-width="1.25" stroke-miterlimit="10"/>
<path d="M71.8331 74.0799L73.3304 70.5147C74.4469 67.2914 75.1575 63.9704 75.462 60.625L75.5889 57.6215C75.6397 53.1284 74.8783 49.026 73.2289 45.4364C70.2851 39.063 63.611 33.056 55.2874 33.8862C52.2676 34.2037 49.7553 35.5467 47.0907 36.9386L46.0757 37.4758C43.9694 38.5747 41.1779 39.9421 38.1327 40.748C36.4579 41.1875 34.6815 41.4561 32.8036 41.5294C31.0272 41.6026 29.2508 41.5049 27.5252 41.2363C24.1501 40.6991 21.7492 39.7014 19.2623 38.456" stroke="black" stroke-width="1.25" stroke-miterlimit="10"/>
</svg>
