<svg width="114" height="114" viewBox="0 0 114 114" fill="none" xmlns="http://www.w3.org/2000/svg">
<path d="M34.5847 66.5223C34.5841 66.2538 34.5274 65.972 34.5508 65.6966C34.6292 64.8978 34.5232 64.0931 34.3371 63.282C34.3128 63.1996 34.2805 63.0897 34.2803 63.0002C34.1657 61.8996 33.7788 60.9382 33.1674 60.0124C32.7573 59.4159 32.3711 58.8123 32.001 58.1743C31.84 57.893 31.6469 57.5912 31.534 57.2959C31.155 56.2725 30.9523 55.2274 30.9259 54.1608C30.8607 53.6726 30.8987 52.7364 30.8987 52.7364C31.0498 52.185 31.2009 51.6336 31.3199 51.0617C31.7646 49.1116 31.6561 47.1439 31.1787 45.1644C30.7823 43.5492 30.3619 41.941 29.9575 40.2984C29.553 38.6557 28.8763 37.1521 27.8152 35.8502C27.4937 35.4665 27.2843 35.0203 27.0749 34.5741C26.551 33.3244 26.1474 32.0396 25.8879 30.7127C25.7664 30.1215 25.6529 29.5578 25.5313 28.9665C25.434 28.4578 25.3929 27.9625 25.5601 27.4661C25.6318 27.2661 25.6634 27.0181 25.703 26.7977C25.8369 25.744 25.8265 24.6429 25.7199 23.5698C25.6055 22.5588 25.4189 21.5687 25.1362 20.6068C24.3285 17.8582 23.0964 15.3528 21.488 13.0766C20.9009 12.2333 20.1939 11.5144 19.3989 10.9406C18.339 10.1755 17.2153 9.54843 16.0519 9.14177C15.2336 8.84336 14.3833 8.61395 13.5334 8.56348C12.6835 8.513 11.8336 8.46254 11.0081 8.58399C10.4551 8.65579 9.89399 8.70011 9.34906 8.7994C8.33938 9.00443 7.46661 9.49778 6.81115 10.3754C5.89189 11.5985 5.29376 13.0263 4.88022 14.5495C4.31577 16.7136 4.26453 18.9368 4.46999 21.2344C4.60139 22.6583 4.78894 24.0957 5.10473 25.5255C5.29898 26.3641 5.52534 27.2231 5.83976 28.0267C6.33149 29.2559 7.02319 30.2776 8.09886 30.9188C8.41191 31.096 8.57287 31.3773 8.72594 31.7206C9.3867 33.2587 9.85517 34.8528 10.2515 36.468C10.381 36.9973 10.4783 37.506 10.2389 38.0235C10.207 38.0925 10.1913 38.2164 10.1674 38.3129C9.58739 40.6904 9.49655 43.1341 9.97507 45.6504C10.1536 46.613 10.3561 47.5685 10.5826 48.517C10.8902 49.8299 11.2217 51.1357 11.6494 52.4135C12.1498 53.9387 12.8744 55.3387 13.9032 56.5307C14.6506 57.3869 15.47 58.1327 16.3772 58.7334C16.6743 58.9452 16.8912 59.1505 17.0283 59.5283C17.101 59.7756 17.2458 60.002 17.3666 60.2353C17.7128 60.8804 17.7043 60.6739 17.5214 61.3838C17.2752 62.4106 17.0529 63.4304 16.9751 64.4975C16.8425 66.1775 17.1347 67.7932 17.8997 69.3307C18.9625 71.4379 20.3693 73.2059 22.1921 74.5243C22.5936 74.825 23.0191 75.1186 23.4206 75.4193C23.6856 75.6105 23.8064 75.8439 23.7991 76.1743C23.7841 76.6561 23.8012 77.1584 23.7863 77.6403C23.7725 78.6589 23.7827 79.6705 23.9052 80.7091C23.9951 81.4588 24.1089 82.2014 24.2949 82.9231C24.602 84.057 25.1093 85.0728 25.8168 85.9706C27.2721 87.9035 28.9431 89.505 31.0456 90.4434C31.1981 90.5182 31.3506 90.5931 31.479 90.675C31.6957 90.7908 31.8565 90.9827 31.9532 91.223C31.9936 91.3605 32.034 91.4979 32.0744 91.6353C32.1955 92.0476 32.2606 92.4464 32.3817 92.8587C32.689 94.0821 33.0525 95.3189 33.5521 96.4862C34.0921 97.7909 34.8721 98.8466 35.9641 99.6321C36.6948 100.165 37.4574 100.629 38.2679 100.989C39.0865 101.377 39.9208 101.641 40.7792 101.898C41.3247 102.067 41.7584 102.388 41.9922 103.006C42.0164 103.089 42.0566 103.137 42.0809 103.219C42.532 104.222 43.1991 104.982 44.0261 105.576C44.7649 106.137 45.5675 106.559 46.3861 106.947C47.951 107.654 49.5714 108.106 51.2394 108.366C51.9772 108.479 52.7149 108.502 53.4117 108.21C53.668 108.105 53.9166 108.152 54.1895 108.281C54.7673 108.56 55.3451 108.839 55.923 109.118C56.9502 109.595 58.017 109.85 59.0753 109.9C60.246 109.976 61.4003 109.908 62.5465 109.812C62.8991 109.769 63.2437 109.698 63.5642 109.635C64.029 109.529 64.5016 109.361 64.9179 109.09C65.2301 108.91 65.5347 108.881 65.8637 109.023C66.2489 109.18 66.6419 109.274 67.043 109.396C67.9897 109.686 68.9119 109.805 69.8658 109.766C70.8437 109.719 71.8296 109.611 72.7672 109.427C73.5846 109.278 74.3375 108.998 75.0421 108.554C75.6425 108.2 76.2269 107.791 76.7308 107.286C76.9468 107.043 77.2031 106.939 77.5238 106.965C77.7322 106.964 77.9407 106.962 78.1491 106.961C78.9267 106.943 79.6962 106.898 80.4173 106.688C81.9636 106.266 83.3731 105.557 84.7019 104.662C85.3743 104.197 86.0065 103.684 86.5664 103.103C87.1823 102.446 87.6616 101.679 87.9561 100.728C88.0279 100.528 88.0996 100.328 88.1472 100.135C88.2109 99.9078 88.3709 99.7417 88.5631 99.6856C88.8756 99.5945 89.1881 99.5033 89.5005 99.4122C90.43 99.2007 91.3272 98.8793 92.1196 98.29C92.6318 97.9018 93.1119 97.4932 93.5759 97.0296C94.5279 96.0953 95.2389 94.9628 95.7009 93.6045C96.3301 91.7498 96.7588 89.8342 96.7784 87.7695C96.7851 87.1707 96.9925 86.7222 97.4248 86.4171C97.7049 86.216 97.9691 86.0494 98.2573 85.8757C99.4502 85.1398 100.474 84.1845 101.37 83.0579C102.001 82.2768 102.432 81.3454 102.678 80.3186C102.941 79.2573 103.026 78.1281 103.016 77.027C102.998 75.9879 102.859 74.9839 102.592 73.9874C102.496 73.6576 102.447 73.3137 102.382 73.0044C102.269 72.6196 102.348 72.2681 102.604 71.9846C102.724 71.8601 102.844 71.7355 102.956 71.5835C103.628 70.7609 104.331 69.9588 104.995 69.1087C105.882 67.9546 106.448 66.5957 106.669 65.0391C106.899 63.5995 106.735 62.1551 106.387 60.7048C106.128 59.6464 105.773 58.6159 105.394 57.5925C105.314 57.3177 105.137 57.0709 105.136 56.8025C105.112 56.5411 105.271 56.2856 105.327 56.0306C105.422 55.6447 105.59 55.3272 105.822 55.0507C106.07 54.7396 106.317 54.4286 106.557 54.0901C107.58 52.6875 108.282 51.0801 108.639 49.275C109.059 47.0636 109.279 44.7913 109.338 42.506C109.374 40.8541 109.082 39.2384 108.59 37.6512C108.339 36.7992 108.017 35.9682 107.694 35.1371C107.573 34.8143 107.508 34.505 107.54 34.1676C107.587 33.7957 107.61 33.4308 107.633 33.0659C107.696 32.1227 107.766 31.207 107.611 30.2374C107.562 29.8936 107.562 29.5357 107.505 29.1644C107.488 28.9305 107.544 28.765 107.672 28.5785C108.791 27.1478 109.469 25.458 109.922 23.6249C110.279 22.1777 110.332 20.6702 110.305 19.1563C110.309 17.5733 110.177 15.9705 110.022 14.3746C109.923 13.4185 109.769 12.449 109.542 11.5004C109.291 10.4695 108.792 9.57058 108.293 8.6717C107.955 8.05412 107.601 7.47104 107.143 6.97799C106.227 5.99189 105.152 5.35076 103.948 4.98561C103.202 4.75564 102.448 4.67712 101.703 4.62609C100.316 4.52345 98.9611 4.70971 97.6955 5.19829C95.5086 6.01531 93.7722 7.47682 92.478 9.55535C90.7764 12.2899 89.8051 15.3784 89.8128 18.8676C89.8009 20.781 90.1658 22.6441 90.9714 24.4085C91.4788 25.5138 91.7379 26.6617 91.6443 27.8528C91.5434 29.3744 91.3303 30.869 90.8604 32.2892C90.5897 33.1441 90.3109 33.9715 89.8877 34.7514C89.4167 35.6349 89.05 36.6073 88.9401 37.654C88.7986 38.9486 88.5689 40.2093 88.4034 41.5109C88.2141 42.909 88.2653 44.3265 88.2844 45.7235C88.3031 46.9416 88.6183 48.103 89.2219 49.1802C89.3265 49.3586 89.4071 49.544 89.4556 49.7089C89.939 50.8212 90.1741 51.9761 90.2889 53.1662C90.3464 53.8059 90.3157 54.4117 90.1246 55.0046C89.9254 55.57 89.7422 56.1009 89.543 56.6664C89.3279 57.2663 89.1127 57.8662 88.9297 58.4866C88.6432 59.4654 88.6213 60.4566 88.8721 61.4875C89.0096 62.0443 89.1472 62.601 89.1645 63.1928C89.1812 63.5161 89.222 63.8325 89.2307 64.1284C89.2478 64.6307 89.2569 65.1055 89.2419 65.5874C89.219 66.1312 89.116 66.6685 89.037 67.1989C88.9897 67.5708 88.8944 67.9567 88.7027 68.2812C88.4631 68.7092 88.2154 69.1097 87.8955 69.4418C87.2077 70.2094 86.52 70.9771 85.8562 71.7377C85.6803 71.9382 85.5124 72.1663 85.4007 72.4077C85.289 72.6492 85.1614 72.9252 85.1379 73.2006C85.0827 73.6345 85.0757 74.0543 85.1247 74.4877C85.2634 75.5812 85.37 76.6542 85.3723 77.7279C85.3674 79.1319 85.0656 80.4136 84.3786 81.5391C84.1469 81.9051 83.9554 82.3191 83.7879 82.726C83.5009 83.4365 83.2459 84.1673 83.0552 84.9392C82.8964 85.642 82.569 86.215 82.1291 86.6716C81.5932 87.2457 80.985 87.7514 80.3526 88.1746C80.0004 88.3968 79.6641 88.5844 79.2472 88.5867C79.1189 88.5942 78.9988 88.6293 78.8945 88.6299C77.997 88.7723 77.2603 89.1961 76.6687 89.9357C76.4609 90.2053 76.2288 90.3923 75.9325 90.5385C75.3639 90.8237 74.8113 91.0744 74.2266 91.3047C73.4897 91.639 72.6962 91.6915 71.8784 91.6615C71.1889 91.6239 70.4593 91.6278 69.7859 91.6452C69.6015 91.6394 69.4414 91.7159 69.265 91.7375C68.7282 91.8643 68.2317 92.1285 67.7433 92.4202C67.0948 92.7884 66.406 93.1087 65.6365 93.1542C64.5303 93.2083 63.44 93.228 62.3257 93.2546C61.9089 93.2569 61.5158 93.1626 61.1386 92.9445C60.7934 92.7467 60.4161 92.5285 60.095 92.3238C59.806 92.1395 59.5091 92.0173 59.1805 92.0534C58.5232 92.1258 57.8579 92.1707 57.2088 92.2705C56.4554 92.371 55.7099 92.4094 54.9639 92.1794C54.4826 92.0513 53.9853 91.9576 53.5042 91.9189C53.0793 91.8937 52.7181 91.7304 52.3807 91.3813C52.2601 91.2374 52.0914 91.1075 51.9709 90.9636C51.4726 90.4226 50.8629 90.2126 50.1976 90.2575C49.8609 90.2662 49.5242 90.2749 49.1875 90.2836C48.8268 90.2993 48.4659 90.2255 48.0807 90.0693C46.4518 89.4105 45.0625 88.3237 43.9608 86.7949C43.7839 86.5481 43.5749 86.2808 43.382 86.0685C42.8598 85.5345 42.3135 85.0075 41.7672 84.4806C41.5904 84.3232 41.4537 84.1244 41.4131 83.8975C41.2752 83.1618 40.985 82.4408 40.727 81.7402C40.3318 80.6618 40.2733 79.5747 40.367 78.473C40.4531 77.5228 40.4191 76.6077 40.0883 75.6597C39.9348 75.1375 39.6933 74.6708 39.2997 74.3082C39.2274 74.2397 39.147 74.1438 39.0666 74.0479C38.5922 73.4104 38.0459 72.8834 37.3558 72.5774C36.7539 72.3054 36.2959 71.8123 35.9578 71.1948C35.314 70.0696 34.7423 68.9233 34.6192 67.6163C34.6192 67.6163 34.4328 66.7158 34.416 66.3924L34.5847 66.5223Z" stroke="black" stroke-width="1.25" stroke-miterlimit="10"/>
<circle cx="98.7551" cy="42.2783" r="5.875" stroke="black" stroke-width="1.25"/>
<circle cx="18.9814" cy="42.5078" r="5.875" stroke="black" stroke-width="1.25"/>
<circle cx="25.2703" cy="64.0874" r="4.875" stroke="black" stroke-width="1.25"/>
<circle cx="97.1753" cy="61.5391" r="4.875" stroke="black" stroke-width="1.25"/>
</svg>
