<svg width="39" height="27" viewBox="0 0 39 27" fill="none" xmlns="http://www.w3.org/2000/svg">
<path d="M36.5645 17.1529C23.302 18.6734 15.349 18.6923 2.51697 17.1608C1.7829 17.0731 1.13281 17.6316 1.13281 18.3546V23.0867C1.13281 23.6537 1.54227 24.1446 2.11047 24.2589C15.3841 26.9313 23.3753 26.9941 36.9635 24.2591C37.5317 24.1447 37.9414 23.6537 37.9414 23.0868V18.347C37.9414 17.6267 37.2965 17.069 36.5645 17.1529Z" fill="#FFD6D6" stroke="#121212" stroke-width="0.575002"/>
<path d="M18.1534 22.0861C19.9189 21.5912 19.6983 17.9612 19.3673 16.2079C19.3673 16.2079 18.5505 16.0039 17.8197 16.0039C17.0889 16.0039 16.2775 16.2079 16.2775 16.2079C16.1672 18.3736 16.3878 22.5812 18.1534 22.0861Z" fill="white" stroke="#121212" stroke-width="0.3"/>
<path d="M21.7042 22.0837C23.4698 21.5887 23.2491 17.9586 22.9181 16.2055C22.9181 16.2055 22.2057 16.1035 21.475 16.1035C20.7442 16.1035 19.8283 16.2055 19.8283 16.2055C19.7179 18.3712 19.9387 22.5788 21.7042 22.0837Z" fill="white" stroke="#121212" stroke-width="0.3"/>
<path d="M25.1866 22.2921C26.878 21.7972 26.5383 17.7554 26.2212 16.0025C26.2212 16.0025 25.3329 15.9004 24.7065 15.9004C24.0801 15.9004 23.1553 16.0025 23.1553 16.0025C23.0496 18.1677 23.4951 22.7871 25.1866 22.2921Z" fill="white" stroke="#121212" stroke-width="0.3"/>
<path d="M14.2047 22.2921C12.5132 21.7972 12.8531 17.7554 13.1702 16.0025C13.1702 16.0025 13.8496 15.9004 14.6847 15.9004C15.5199 15.9004 16.236 16.0025 16.236 16.0025C16.3417 18.1677 15.8963 22.7871 14.2047 22.2921Z" fill="white" stroke="#121212" stroke-width="0.3"/>
<path d="M9.54179 15.6698C11.0614 14.719 12.9066 16.4848 12.9066 16.4848C13.0151 18.6242 11.5224 23.1882 9.78575 22.6993C8.3386 22.2917 9.10766 16.1793 9.54179 15.6698Z" fill="white" stroke="#121212" stroke-width="0.3"/>
<path d="M29.8547 15.2616C28.3351 14.3108 26.4899 16.0766 26.4899 16.0766C26.3814 18.216 27.8741 22.78 29.6108 22.291C31.058 21.8835 30.2888 15.7709 29.8547 15.2616Z" fill="white" stroke="#121212" stroke-width="0.3"/>
<path d="M37.9659 13.451C36.9221 12.8388 36.3438 12.969 35.0912 13.7853C34.778 13.9895 36.0306 19.2752 37.7009 18.7853C38.4879 18.0428 38.3835 13.9612 37.9659 13.451Z" fill="white" stroke="#121212" stroke-width="0.3"/>
<path d="M32.4972 14.7463C31.0017 13.7914 29.8266 14.9509 29.8266 14.9509C29.7197 17.0996 30.9806 21.3518 32.6899 20.8606C34.1142 20.4513 32.9246 15.2579 32.4972 14.7463Z" fill="white" stroke="#121212" stroke-width="0.3"/>
<path d="M1.07818 13.7861C2.12201 13.1738 3.47904 13.1738 4.73171 13.9901C5.04491 14.1942 3.79224 19.48 2.12201 18.9901C0.513412 17.5333 0.660619 14.2962 1.07818 13.7861Z" fill="white" stroke="#121212" stroke-width="0.3"/>
<path d="M35.426 13.7024C33.9252 13.1187 32.9644 14.4531 32.9644 14.4531C32.8578 16.6088 33.9105 20.3294 35.6183 19.8367C37.0417 19.4261 35.853 14.2156 35.426 13.7024Z" fill="white" stroke="#121212" stroke-width="0.3"/>
<path d="M3.96925 13.9056C5.47005 13.3218 6.43076 14.6562 6.43076 14.6562C6.53745 16.812 5.48478 20.5326 3.77686 20.0399C2.35365 19.6293 3.54224 14.4187 3.96925 13.9056Z" fill="white" stroke="#121212" stroke-width="0.3"/>
<path d="M6.68473 15.3576C8.18037 14.4027 9.35545 15.5622 9.35545 15.5622C9.46226 17.7109 8.20149 21.963 6.49222 21.4719C5.06791 21.0627 6.25747 15.8692 6.68473 15.3576Z" fill="white" stroke="#121212" stroke-width="0.3"/>
<path d="M0.302314 4.45803L1.30268 11.0586C1.39194 11.647 1.9087 12.0829 2.51717 12.0829H36.4691C37.1119 12.0829 37.646 11.598 37.6935 10.9713L38.1933 4.37498C38.2361 3.81141 37.8666 3.29321 37.3109 3.13744C23.4834 -0.739251 15.2332 -0.582878 1.19341 3.12796C0.595255 3.28601 0.211583 3.85894 0.302314 4.45803Z" fill="#FFD6D6" stroke="#121212" stroke-width="0.575002"/>
<path d="M16.6889 7.45577C19.925 7.7618 19.612 15.2108 19.612 15.2108C19.612 15.2108 18.568 15.721 16.6889 15.619C14.8099 15.517 13.766 15.2108 13.766 15.2108C13.766 15.2108 13.4529 7.14962 16.6889 7.45577Z" fill="white" stroke="#121212" stroke-width="0.3"/>
<path d="M22.5426 7.36192C25.7787 7.66795 25.4575 14.9043 25.4575 14.9043C25.4575 14.9043 24.4135 15.5251 22.5426 15.5251C20.6716 15.5251 19.7159 15.2105 19.7159 15.2105C19.7159 15.2105 19.3065 7.05578 22.5426 7.36192Z" fill="white" stroke="#121212" stroke-width="0.3"/>
<path d="M28.0655 7.76172C30.0698 8.33309 29.9445 12.1494 29.6313 13.9862C29.6313 13.9862 28.7962 14.7005 27.6479 14.9046C26.4996 15.1086 25.56 14.7005 25.56 14.7005C25.2469 9.80249 26.4996 7.76172 28.0655 7.76172Z" fill="white" stroke="#121212" stroke-width="0.3"/>
<path d="M11.128 8.16992C9.12372 8.74141 9.24895 12.5577 9.56215 14.3945C9.56215 14.3945 10.3973 15.1087 11.5456 15.3128C12.6939 15.5168 13.6334 15.1087 13.6334 15.1087C13.9466 10.2108 12.6939 8.16992 11.128 8.16992Z" fill="white" stroke="#121212" stroke-width="0.3"/>
<path d="M32.2397 7.45703C31.5091 7.45703 29.9432 10.3141 29.8387 10.6203L29.7344 14.0896C29.7344 14.0896 31.3002 15.0081 31.8222 14.8039C32.3442 14.5998 32.7618 13.8856 32.7618 13.8856C32.9357 13.0352 33.3045 11.2734 33.388 10.2121C33.4925 8.88563 33.1793 7.45703 32.2397 7.45703Z" fill="white" stroke="#121212" stroke-width="0.3"/>
<path d="M6.78858 7.55859C7.51933 7.55859 9.0852 10.4157 9.18956 10.7218L9.29404 14.1912C9.29404 14.1912 7.72817 15.1095 7.20613 14.9055C6.68422 14.7014 6.26666 13.9871 6.26666 13.9871C6.09269 13.1368 5.72388 11.3749 5.64027 10.3137C5.53591 8.98708 5.84911 7.55859 6.78858 7.55859Z" fill="white" stroke="#121212" stroke-width="0.3"/>
<path d="M35.0593 7.9668C34.7254 7.9668 33.8763 8.9192 33.4935 9.3954L32.8672 13.7831C32.8672 13.7831 33.911 14.3954 34.3287 14.3954C34.7463 14.3954 35.0593 13.9872 35.0593 13.9872C35.644 13.4157 35.8597 10.5518 35.8946 9.19126C35.7553 8.78311 35.3934 7.9668 35.0593 7.9668Z" fill="white" stroke="#121212" stroke-width="0.3"/>
<path d="M36.905 8.16992C36.5596 8.16992 36.2859 8.8589 35.8899 9.2973L35.2852 13.5781C35.2852 13.5781 35.7711 13.9863 36.2031 13.9863C36.6351 13.9863 36.905 13.7126 36.905 13.7126C37.5098 13.1865 37.4198 10.5498 37.4558 9.2973C37.3118 8.92155 37.2507 8.16992 36.905 8.16992Z" fill="white" stroke="#121212" stroke-width="0.3"/>
<path d="M1.99217 8.16992C2.33766 8.16992 2.61133 8.8589 3.00727 9.2973L3.61206 13.5781C3.61206 13.5781 3.12612 13.9863 2.69408 13.9863C2.26216 13.9863 1.99217 13.7126 1.99217 13.7126C1.38739 13.1865 1.47738 10.5498 1.44141 9.2973C1.58542 8.92155 1.64656 8.16992 1.99217 8.16992Z" fill="white" stroke="#121212" stroke-width="0.3"/>
<path d="M3.9484 7.9668C4.28247 7.9668 5.13145 8.9192 5.51427 9.3954L6.14054 13.7831C6.14054 13.7831 5.09671 14.3954 4.67915 14.3954C4.26159 14.3954 3.9484 13.9872 3.9484 13.9872C3.36374 13.4157 3.14803 10.5518 3.11328 9.19126C3.25239 8.78311 3.61432 7.9668 3.9484 7.9668Z" fill="white" stroke="#121212" stroke-width="0.3"/>
</svg>
