<svg width="24" height="24" viewBox="0 0 24 24" fill="none" xmlns="http://www.w3.org/2000/svg">
<path d="M22.5001 20.2494H5.25008V21.7494H22.5001V20.2494Z" fill="black" fill-opacity="0.2275"/>
<path d="M20.5351 7.88188L14.5876 1.94188C14.4483 1.80242 14.2828 1.69178 14.1007 1.61629C13.9186 1.54081 13.7235 1.50195 13.5263 1.50195C13.3292 1.50195 13.134 1.54081 12.9519 1.61629C12.7698 1.69178 12.6044 1.80242 12.4651 1.94188L1.96508 12.4419C1.82561 12.5812 1.71497 12.7466 1.63949 12.9287C1.564 13.1108 1.52515 13.306 1.52515 13.5031C1.52515 13.7003 1.564 13.8954 1.63949 14.0775C1.71497 14.2596 1.82561 14.4251 1.96508 14.5644L5.34758 17.9994H12.5401L20.5351 10.0044C20.6745 9.86507 20.7852 9.69964 20.8607 9.51754C20.9362 9.33545 20.975 9.14026 20.975 8.94313C20.975 8.74601 20.9362 8.55082 20.8607 8.36872C20.7852 8.18663 20.6745 8.02119 20.5351 7.88188ZM11.9176 16.4994H6.00008L3.00008 13.4994L7.73258 8.76688L13.6801 14.7069L11.9176 16.4994ZM14.7376 13.6794L8.79758 7.73188L13.5001 2.99938L19.5001 8.94688L14.7376 13.6794Z" fill="black" fill-opacity="0.2275"/>
</svg>
