<svg width="317" height="196" viewBox="0 0 317 196" fill="none" xmlns="http://www.w3.org/2000/svg">
<circle cx="278.172" cy="84.9803" r="22.5932" stroke="#F4F4F4" stroke-width="2.5"/>
<path d="M268.843 117.074H287.501C302.93 117.074 315.438 129.582 315.438 145.011V206.279H240.906V145.011C240.906 129.582 253.414 117.074 268.843 117.074Z" stroke="#F4F4F4" stroke-width="2.5"/>
<circle cx="38.5161" cy="84.9803" r="22.5932" stroke="#F4F4F4" stroke-width="2.5"/>
<path d="M29.1875 117.074H47.8447C63.2741 117.074 75.7822 129.582 75.7822 145.011V206.279H1.25002V145.011C1.25004 129.582 13.7581 117.074 29.1875 117.074Z" stroke="#F4F4F4" stroke-width="2.5"/>
<path d="M158.344 1.25C181.61 1.25018 200.5 20.3819 200.5 44.0186C200.5 67.6551 181.61 86.786 158.344 86.7861C135.078 86.7861 116.187 67.6552 116.187 44.0186C116.187 20.3818 135.078 1.25 158.344 1.25Z" stroke="#F4F4F4" stroke-width="2.5"/>
<path d="M117.224 102.287H199.463C214.893 102.287 227.401 114.795 227.401 130.224V267.3H89.2865V130.224C89.2865 114.795 101.795 102.287 117.224 102.287Z" stroke="#F4F4F4" stroke-width="2.5"/>
</svg>
