<svg width="24" height="24" viewBox="0 0 24 24" fill="none" xmlns="http://www.w3.org/2000/svg">
<path d="M24.0001 11.9999C22.631 11.2309 21.3119 10.7652 20.1616 10.5464C20.246 11.0184 20.2898 11.5029 20.2898 11.9999C20.2898 12.4969 20.246 12.9814 20.1616 13.4534C21.3119 13.2377 22.631 12.772 24.0001 11.9999Z" fill="#009ACE"/>
<path d="M18.7985 7.2582C19.4581 6.2892 20.0614 5.02637 20.4865 3.5166C18.9736 3.93859 17.7139 4.54187 16.7449 5.20454C17.542 5.76094 18.239 6.45799 18.7985 7.2582Z" fill="#009ACE"/>
<path d="M10.5464 3.8385C11.0184 3.7541 11.5029 3.71034 11.9999 3.71034C12.4969 3.71034 12.9814 3.7541 13.4534 3.8385C13.2346 2.68507 12.7688 1.36598 11.9999 0C11.2309 1.36911 10.7652 2.6882 10.5464 3.8385Z" fill="#009ACE"/>
<path d="M5.20166 7.25791C5.76118 6.4577 6.45824 5.76064 7.25845 5.20112C6.28944 4.54158 5.02661 3.93829 3.51685 3.51318C3.93883 5.02608 4.54211 6.28891 5.20166 7.25791Z" fill="#009ACE"/>
<path d="M0 11.9999C1.36911 12.7688 2.6882 13.2346 3.8385 13.4534C3.7541 12.9814 3.71034 12.4969 3.71034 11.9999C3.71034 11.5029 3.7541 11.0184 3.8385 10.5464C2.68507 10.7652 1.36598 11.2309 0 11.9999Z" fill="#009ACE"/>
<path d="M5.20112 16.7417C4.54158 17.7107 3.93829 18.9735 3.51318 20.4833C5.02608 20.0613 6.28578 19.458 7.25478 18.7954C6.4577 18.239 5.76064 17.5419 5.20112 16.7417Z" fill="#009ACE"/>
<path d="M10.5464 20.1616C10.7652 21.315 11.2309 22.6341 11.9999 24.0001C12.7688 22.631 13.2346 21.3119 13.4534 20.1616C12.9814 20.246 12.4969 20.2898 11.9999 20.2898C11.5029 20.2898 11.0184 20.246 10.5464 20.1616Z" fill="#009ACE"/>
<path d="M16.7419 18.7988C17.7109 19.4583 18.9738 20.0616 20.4835 20.4867C20.0616 18.9738 19.4583 17.7141 18.7956 16.7451C18.2392 17.5422 17.5422 18.2393 16.7419 18.7988Z" fill="#009ACE"/>
<g opacity="0.75">
<path opacity="0.75" d="M20.1613 10.5495C19.6237 10.4463 19.1235 10.3994 18.6703 10.3994C18.1264 10.3994 17.6075 10.4619 17.1199 10.5776C17.2449 11.0308 17.3137 11.5091 17.3137 12.003C17.3137 12.4968 17.2449 12.9751 17.1199 13.4283C17.6075 13.544 18.1264 13.6065 18.6703 13.6065C19.1235 13.6065 19.6237 13.5596 20.1613 13.4565C20.2457 12.9845 20.2894 12.5 20.2894 12.003C20.2863 11.506 20.2426 11.0183 20.1613 10.5495Z" fill="#009ACE"/>
<path opacity="0.75" d="M16.6262 9.38976C17.0544 9.12719 17.4639 8.80523 17.8484 8.41763C18.1672 8.0988 18.4892 7.7112 18.7955 7.25796C18.236 6.45775 17.5389 5.76069 16.7387 5.20117C16.2886 5.5075 15.901 5.82946 15.5791 6.14829C15.1946 6.53277 14.8726 6.94538 14.6069 7.37049C15.454 7.84874 16.1511 8.54892 16.6262 9.38976Z" fill="#009ACE"/>
<path opacity="0.75" d="M11.9998 3.71338C11.5028 3.71338 11.0183 3.75714 10.5463 3.84154C10.4431 4.37918 10.3962 4.87931 10.3962 5.33255C10.3962 5.87644 10.4588 6.39533 10.5744 6.88295C11.0277 6.75792 11.5059 6.68915 11.9998 6.68915C12.4937 6.68915 12.9719 6.75792 13.4252 6.88295C13.5408 6.39533 13.6033 5.87644 13.6033 5.33255C13.6033 4.87931 13.5564 4.37918 13.4533 3.84154C12.9813 3.75714 12.4968 3.71338 11.9998 3.71338Z" fill="#009ACE"/>
<path opacity="0.75" d="M7.2582 5.20117C6.45799 5.76069 5.76094 6.45775 5.20142 7.25796C5.50775 7.70807 5.8297 8.09567 6.14854 8.41763C6.53301 8.80211 6.94562 9.12407 7.37073 9.38976C7.84585 8.54892 8.54604 7.85186 9.38688 7.37361C9.12431 6.94538 8.80235 6.53589 8.41475 6.15142C8.09592 5.82946 7.70832 5.51063 7.2582 5.20117Z" fill="#009ACE"/>
<path opacity="0.75" d="M6.87978 13.4254C6.75475 12.9722 6.68598 12.4939 6.68598 12C6.68598 11.5061 6.75475 11.0279 6.87978 10.5747C6.39215 10.459 5.87327 10.3965 5.32938 10.3965C4.87613 10.3965 4.376 10.4434 3.83836 10.5465C3.75397 11.0185 3.71021 11.503 3.71021 12C3.71021 12.497 3.75397 12.9815 3.83836 13.4535C4.376 13.5567 4.87613 13.6036 5.32938 13.6036C5.87327 13.6036 6.39215 13.5411 6.87978 13.4254Z" fill="#009ACE"/>
<path opacity="0.75" d="M7.37073 14.6133C6.94249 14.8758 6.53301 15.1978 6.14854 15.5854C5.8297 15.9042 5.50775 16.2918 5.20142 16.7451C5.76094 17.5453 6.45799 18.2424 7.2582 18.8019C7.70832 18.4955 8.09592 18.1736 8.41788 17.8548C8.80235 17.4703 9.12431 17.0577 9.39001 16.6326C8.54604 16.1512 7.84585 15.4541 7.37073 14.6133Z" fill="#009ACE"/>
<path opacity="0.75" d="M11.9998 17.3139C11.5059 17.3139 11.0277 17.2451 10.5744 17.1201C10.4588 17.6077 10.3962 18.1266 10.3962 18.6705C10.3962 19.1238 10.4431 19.6239 10.5463 20.1615C11.0183 20.2459 11.5028 20.2897 11.9998 20.2897C12.4968 20.2897 12.9813 20.2459 13.4533 20.1615C13.5564 19.6239 13.6033 19.1238 13.6033 18.6705C13.6033 18.1266 13.5408 17.6077 13.4252 17.1201C12.9688 17.2483 12.4937 17.3139 11.9998 17.3139Z" fill="#009ACE"/>
<path opacity="0.75" d="M16.626 14.6133C16.1509 15.4541 15.4507 16.1512 14.6099 16.6294C14.8724 17.0577 15.1944 17.4672 15.582 17.8516C15.9008 18.1705 16.2884 18.4924 16.7417 18.7987C17.5419 18.2392 18.2389 17.5422 18.7985 16.742C18.4921 16.2918 18.1702 15.9042 17.8513 15.5823C17.4637 15.2009 17.0542 14.879 16.626 14.6133Z" fill="#009ACE"/>
</g>
<g opacity="0.5">
<path opacity="0.5" d="M17.1198 10.5776C16.0445 10.8308 15.1224 11.3435 14.394 12.003C15.1192 12.6626 16.0445 13.1721 17.1198 13.4284C17.2448 12.9751 17.3136 12.4969 17.3136 12.003C17.3136 11.506 17.2448 11.0309 17.1198 10.5776Z" fill="#009ACE"/>
<path opacity="0.5" d="M14.6128 7.37354C14.0346 8.31128 13.7407 9.32717 13.6938 10.3087C14.6754 10.2618 15.6881 9.96796 16.6259 9.38969C16.1507 8.54884 15.4537 7.84866 14.6128 7.37354Z" fill="#009ACE"/>
<path opacity="0.5" d="M10.5742 6.87984C10.8274 7.95512 11.34 8.87723 11.9996 9.60555C12.6591 8.88036 13.1686 7.95512 13.425 6.87984C12.9717 6.7548 12.4935 6.68604 11.9996 6.68604C11.5057 6.68604 11.0275 6.7548 10.5742 6.87984Z" fill="#009ACE"/>
<path opacity="0.5" d="M7.37036 9.38656C8.30811 9.96484 9.324 10.2587 10.3055 10.3055C10.2586 9.32404 9.96479 8.31128 9.38651 7.37354C8.54567 7.84866 7.84861 8.54572 7.37036 9.38656Z" fill="#009ACE"/>
<path opacity="0.5" d="M6.87984 10.5747C6.7548 11.0279 6.68604 11.5062 6.68604 12.0001C6.68604 12.494 6.7548 12.9722 6.87984 13.4254C7.95512 13.1723 8.87723 12.6596 9.60555 12.0001C8.87723 11.3405 7.95199 10.831 6.87984 10.5747Z" fill="#009ACE"/>
<path opacity="0.5" d="M9.38705 16.6295C9.96532 15.6917 10.2591 14.6758 10.306 13.6943C9.32453 13.7412 8.31177 14.035 7.37402 14.6133C7.84602 15.4542 8.5462 16.1512 9.38705 16.6295Z" fill="#009ACE"/>
<path opacity="0.5" d="M10.5742 17.1202C11.0275 17.2453 11.5057 17.314 11.9996 17.314C12.4935 17.314 12.9717 17.2453 13.425 17.1202C13.1718 16.045 12.6591 15.1228 11.9996 14.3945C11.3369 15.1228 10.8274 16.0481 10.5742 17.1202Z" fill="#009ACE"/>
<path opacity="0.5" d="M14.6099 16.6295C15.4508 16.1544 16.1478 15.4542 16.6261 14.6133C15.6883 14.035 14.6724 13.7412 13.6909 13.6943C13.7378 14.6758 14.0316 15.6886 14.6099 16.6295Z" fill="#009ACE"/>
</g>
</svg>
